<svg width="30" height="30" viewBox="0 0 22 22" fill="none" xmlns="http://www.w3.org/2000/svg">
<rect x="1" y="1" width="20" height="20" rx="1" fill="#1E1E1E"/>
<path d="M19.9 1H2.1C1.80826 1 1.52847 1.11589 1.32218 1.32218C1.11589 1.52847 1 1.80826 1 2.1V19.9C1 20.1917 1.11589 20.4715 1.32218 20.6778C1.52847 20.8841 1.80826 21 2.1 21H11.68V13.25H9.08V10.25H11.68V8C11.6261 7.47176 11.6885 6.93813 11.8627 6.43654C12.0369 5.93495 12.3188 5.47755 12.6885 5.09641C13.0582 4.71528 13.5068 4.41964 14.0028 4.23024C14.4989 4.04083 15.0304 3.96225 15.56 4C16.3383 3.99521 17.1163 4.03528 17.89 4.12V6.82H16.3C15.04 6.82 14.8 7.42 14.8 8.29V10.22H17.8L17.41 13.22H14.8V21H19.9C20.0445 21 20.1875 20.9715 20.321 20.9163C20.4544 20.861 20.5757 20.78 20.6778 20.6778C20.78 20.5757 20.861 20.4544 20.9163 20.321C20.9715 20.1875 21 20.0445 21 19.9V2.1C21 1.95555 20.9715 1.81251 20.9163 1.67905C20.861 1.54559 20.78 1.42433 20.6778 1.32218C20.5757 1.22004 20.4544 1.13901 20.321 1.08373C20.1875 1.02845 20.0445 1 19.9 1Z" fill="#FFFEFE"/>
<rect x="1" y="1" width="20" height="20" rx="1" stroke="#1E1E1E" stroke-width="0.5"/>
</svg>
