<svg width="49" height="49" viewBox="0 0 49 49" fill="none" xmlns="http://www.w3.org/2000/svg">
<path d="M24.5 2C12.0733 2 2 12.0733 2 24.5C2 36.9267 12.0733 47 24.5 47C36.9267 47 47 36.9267 47 24.5C47 12.0733 36.9267 2 24.5 2Z" stroke="#4942E4" stroke-width="3" stroke-linecap="round" stroke-linejoin="round"/>
<path d="M7.11035 38.7785C7.11035 38.7785 12.1256 32.375 24.5006 32.375C36.8756 32.375 41.8931 38.7785 41.8931 38.7785M24.5006 24.5C26.2908 24.5 28.0077 23.7888 29.2736 22.523C30.5394 21.2571 31.2506 19.5402 31.2506 17.75C31.2506 15.9598 30.5394 14.2429 29.2736 12.977C28.0077 11.7112 26.2908 11 24.5006 11C22.7104 11 20.9935 11.7112 19.7276 12.977C18.4618 14.2429 17.7506 15.9598 17.7506 17.75C17.7506 19.5402 18.4618 21.2571 19.7276 22.523C20.9935 23.7888 22.7104 24.5 24.5006 24.5Z" stroke="#4942E4" stroke-width="3" stroke-linecap="round" stroke-linejoin="round"/>
</svg>
