<svg width="994" height="656" viewBox="0 0 994 656" fill="none" xmlns="http://www.w3.org/2000/svg">
<g clip-path="url(#clip0_69_200)">
<path d="M130.84 69.7913C183.1 28.3813 254.47 20.8013 315.42 43.8213C396.4 74.4113 456 151.881 534.65 189.081C589.88 215.211 653.32 219.881 711.24 202.101C739.42 193.451 766.84 179.581 796.09 178.651C822 177.831 847.59 187.441 869.62 202.441C934.43 246.571 966.96 340.701 945.12 420.891C933.43 463.831 908.32 501.121 879.07 532.391C818.65 597.011 738.49 639.001 654.71 649.941C607.95 656.041 560.51 652.731 513.92 645.231C412.39 628.891 312.36 591.871 228.76 526.581C128.67 448.431 29.48 312.081 66.96 169.961C77.45 130.181 100.21 94.0713 130.84 69.7913Z" fill="#8696FE"/>
<path d="M915.41 184.601C912.12 176.191 909.39 165.501 914.93 158.661C917.01 156.091 919.98 154.561 923.02 153.741C937.67 149.781 952.04 161.051 962.26 173.241C971.76 184.571 979.87 197.301 986.29 210.991C989.57 217.971 992.44 225.361 993.13 233.171C993.82 240.991 992.06 249.371 987.09 255.021C953.65 293.091 924.55 207.911 915.42 184.591L915.41 184.601Z" fill="#8696FE"/>
<path d="M621.71 406.86C639.84 389.12 664.32 447.14 672.79 469.28L689.75 449.82C677.88 435.67 635.06 380.93 670.19 367.06C694.37 357.51 693.82 423.89 692.98 446.1L715.88 419.82C709.97 406.16 681.66 336.25 720.78 333.22C746.98 331.19 726.2 395.9 719.08 416.16L743.45 388.19C752.49 366.34 778.6 308.88 796.25 327.12C821.1 352.81 767.26 382.98 747.29 392.91L724.04 419.59C744.53 407.41 799.46 377.27 802.68 402.37C807.61 440.83 735.17 428.11 719.41 424.9L694.6 453.38C711.85 448.94 784.52 431.74 779.84 458.8C773.1 497.79 705.05 462.14 692.83 455.4L675.16 475.68C675.26 475.97 675.36 476.24 675.44 476.46C694.9 479.4 765.25 491.71 750.74 514.36C730 546.75 683.24 491.69 672.69 478.51L633.54 523.44L629.02 519.5L668.74 473.92C648.98 463.39 596.19 431.82 621.7 406.86H621.71Z" fill="#44E3A0"/>
<path d="M715.44 618.24C695.49 618.24 676.05 612.76 668.86 596.34C653.03 560.19 695.48 528.39 723.06 515.29C733.49 510.34 744.42 506.15 754.98 502.1C764.62 498.4 774.59 494.58 784.1 490.21C809.38 478.58 832.11 462.61 851.66 442.75C852.88 441.51 854.7 441.16 856.3 441.85C857.91 442.55 858.91 444.14 858.83 445.89C857.68 473.65 855.74 500.61 844.75 525.23C836.42 543.9 822.65 561.67 801.42 581.15C790.49 591.19 775.67 603.61 758.05 610.58C747.47 614.77 731.29 618.24 715.43 618.24H715.44ZM785.72 493.72C776.09 498.15 766.06 501.99 756.36 505.71C745.86 509.73 735.01 513.89 724.71 518.78C698.39 531.28 657.76 561.35 672.4 594.78C684.51 622.43 736.85 614.82 756.63 606.98C773.66 600.24 788.12 588.11 798.81 578.29C819.63 559.18 833.11 541.82 841.22 523.65C851.93 499.65 853.84 473.09 854.97 445.72C854.97 445.66 854.97 445.49 854.76 445.39C854.56 445.3 854.46 445.41 854.42 445.45C834.54 465.65 811.43 481.89 785.72 493.71V493.72Z" fill="#8696FE"/>
<path d="M370.21 510.11C352.08 492.37 327.6 550.39 319.13 572.53L302.17 553.07C314.04 538.92 356.86 484.18 321.73 470.31C297.55 460.76 298.1 527.14 298.94 549.35L276.04 523.07C281.95 509.41 310.26 439.5 271.14 436.47C244.94 434.44 265.72 499.15 272.84 519.41L248.47 491.44C239.43 469.59 213.32 412.13 195.67 430.37C170.82 456.06 224.66 486.23 244.63 496.16L267.88 522.84C247.39 510.66 192.46 480.52 189.24 505.62C184.31 544.08 256.75 531.36 272.51 528.15L297.33 556.63C280.08 552.19 207.41 534.99 212.09 562.05C218.83 601.04 286.88 565.39 299.09 558.65L316.76 578.93C316.66 579.22 316.56 579.49 316.48 579.71C297.02 582.65 226.67 594.96 241.18 617.61C261.92 650 308.68 594.94 319.23 581.76L358.38 626.69L362.9 622.75L323.18 577.17C342.94 566.64 395.73 535.07 370.22 510.11H370.21Z" fill="#44E3A0"/>
<path d="M304.9 481.49C300.04 454.01 290.14 427.43 275.85 403.46C274.79 401.69 276.5 399.55 278.48 400.15C304.18 408.03 330.13 416.77 351.03 433.53C369.35 448.22 382.67 468.24 393.65 489C401.75 504.32 408.84 520.53 410.93 537.74C413.85 561.77 406.43 613.5 376.17 618.28C338.26 624.27 319.14 575.59 313.7 546.88C309.6 525.25 308.74 503.16 304.9 481.49Z" fill="#4942E4"/>
<path d="M780.97 153.35L780.94 151.33C785.52 151.26 790 149.99 793.92 147.67L794.95 149.41C790.73 151.91 785.89 153.27 780.97 153.35ZM766.87 149.86C762.57 147.49 758.93 144.02 756.36 139.83L758.08 138.77C760.47 142.66 763.85 145.88 767.85 148.08L766.87 149.85V149.86ZM805.15 139.06L803.39 138.06C805.65 134.11 806.84 129.6 806.84 125.02C806.84 124.46 806.82 123.9 806.79 123.35L808.81 123.23C808.85 123.82 808.87 124.42 808.87 125.02C808.87 129.96 807.58 134.81 805.15 139.07V139.06ZM752.19 125.92C752.19 125.62 752.18 125.31 752.18 125.01C752.18 120.4 753.31 115.82 755.46 111.76L757.25 112.71C755.26 116.47 754.2 120.73 754.2 125.02C754.2 125.3 754.2 125.58 754.21 125.85L752.19 125.92ZM802.51 110.55C800 106.74 796.52 103.62 792.45 101.55L793.37 99.75C797.75 101.98 801.49 105.33 804.2 109.44L802.51 110.55ZM766.4 102.79L765.31 101.08C769.46 98.44 774.24 96.93 779.16 96.7L779.25 98.72C774.68 98.93 770.24 100.34 766.39 102.79H766.4Z" fill="#4942E4"/>
<path d="M82.99 517.07C78.22 516.81 73.45 516.15 68.81 515.12L69.25 513.14C73.78 514.14 78.44 514.78 83.11 515.05L83 517.07H82.99ZM97.3 516.72L97.09 514.71C101.73 514.22 106.35 513.35 110.83 512.11L111.37 514.06C106.78 515.32 102.05 516.21 97.3 516.72ZM55.13 510.89C50.71 509.11 46.4 506.95 42.32 504.48L43.37 502.75C47.35 505.17 51.56 507.28 55.88 509.02L55.12 510.9L55.13 510.89ZM124.82 509.15L123.97 507.31C128.19 505.36 132.29 503.05 136.15 500.44L137.28 502.12C133.33 504.79 129.14 507.16 124.82 509.15ZM30.72 496.07C27.1 492.97 23.7 489.55 20.63 485.91L22.18 484.61C25.18 488.17 28.5 491.51 32.04 494.54L30.72 496.08V496.07ZM148.44 493.15L147.05 491.68C150.43 488.48 153.58 484.98 156.41 481.28L158.02 482.51C155.13 486.3 151.91 489.88 148.44 493.15ZM12.32 474.26C9.87 470.17 7.75 465.85 6 461.42L7.88 460.68C9.59 465.01 11.66 469.23 14.05 473.22L12.31 474.26H12.32ZM165.76 470.46L163.97 469.51C166.16 465.4 168.02 461.08 169.51 456.66L171.43 457.31C169.91 461.83 168 466.25 165.76 470.46ZM1.86 447.72C0.86 443.08 0.24 438.3 0 433.52L2.02 433.42C2.25 438.09 2.86 442.75 3.83 447.29L1.85 447.72H1.86ZM174.88 443.41L172.88 443.09C173.63 438.52 174 433.83 174 429.15C174 426.3 173.86 423.42 173.58 420.59L175.59 420.39C175.88 423.28 176.02 426.23 176.02 429.14C176.02 433.93 175.63 438.73 174.87 443.41H174.88ZM2.46 419.44L0.45 419.21C0.98 414.46 1.91 409.74 3.2 405.16L5.15 405.71C3.89 410.18 2.98 414.8 2.46 419.44ZM171.08 406.82C169.88 402.33 168.29 397.9 166.37 393.65L168.21 392.82C170.18 397.16 171.8 401.7 173.03 406.3L171.07 406.82H171.08ZM10.03 392.6L8.2 391.74C10.23 387.43 12.62 383.25 15.33 379.32L17 380.47C14.36 384.31 12.02 388.39 10.04 392.61L10.03 392.6ZM159.57 381.43C156.99 377.56 154.07 373.87 150.89 370.46L152.37 369.08C155.62 372.57 158.61 376.34 161.26 380.3L159.58 381.42L159.57 381.43ZM25.82 369.61L24.36 368.21C27.66 364.76 31.26 361.57 35.07 358.71L36.29 360.33C32.57 363.12 29.05 366.25 25.83 369.61H25.82ZM140.55 361.03C136.86 358.18 132.92 355.61 128.83 353.39L129.79 351.61C133.98 353.88 138.02 356.51 141.79 359.42L140.55 361.02V361.03ZM48.1 352.85L47.16 351.05C51.39 348.84 55.82 346.96 60.35 345.47L60.98 347.39C56.56 348.85 52.23 350.68 48.1 352.84V352.85ZM116.01 347.77C111.61 346.25 107.05 345.09 102.46 344.31L102.8 342.31C107.5 343.11 112.17 344.3 116.67 345.85L116.01 347.76V347.77ZM74.57 344.12L74.26 342.12C78.75 341.42 83.34 341.06 87.91 341.06H88.54L88.52 343.09H87.94C83.52 343.05 78.97 343.43 74.57 344.12Z" fill="#4942E4"/>
<path d="M932.55 465.57C927.64 465.2 922.96 463.85 918.64 461.55L919.59 459.76C923.67 461.93 928.08 463.2 932.71 463.55L932.56 465.57H932.55ZM946.91 463.7L946.24 461.79C950.6 460.27 954.53 457.9 957.93 454.74L959.31 456.22C955.7 459.57 951.53 462.08 946.91 463.7ZM907.49 452.3C904.43 448.45 902.23 444.1 900.98 439.37L902.94 438.85C904.13 443.31 906.19 447.41 909.08 451.04L907.49 452.3ZM967.7 444.43L965.85 443.62C967.7 439.4 968.63 434.9 968.63 430.25H970.65C970.65 435.18 969.66 439.95 967.7 444.43ZM968.43 426.61C967.93 422.01 966.51 417.65 964.21 413.63L965.97 412.62C968.42 416.88 969.92 421.51 970.45 426.39L968.44 426.61H968.43ZM902.19 425.21L900.19 424.91C900.92 420.06 902.63 415.49 905.25 411.34L906.96 412.42C904.48 416.33 902.88 420.64 902.19 425.21ZM955.13 403.42C951.41 400.65 947.24 398.72 942.74 397.69L943.19 395.72C947.97 396.82 952.39 398.86 956.34 401.8L955.13 403.43V403.42ZM916.46 402.6L915.32 400.93C919.39 398.16 923.89 396.31 928.71 395.41L929.08 397.4C924.54 398.24 920.29 399.99 916.46 402.6Z" fill="#4942E4"/>
<path d="M779.13 12.15C779.13 18.86 773.69 24.3 766.98 24.3C760.27 24.3 754.83 18.86 754.83 12.15C754.83 5.44 760.27 0 766.98 0C773.69 0 779.13 5.44 779.13 12.15Z" fill="#4942E4"/>
<path d="M100.11 310.7C100.11 316.85 95.12 321.83 88.97 321.83C82.82 321.83 77.84 316.84 77.84 310.7C77.84 304.56 82.83 299.56 88.97 299.56C95.11 299.56 100.11 304.55 100.11 310.7Z" fill="#4942E4"/>
<path d="M906.44 398.1C910.914 398.1 914.54 394.473 914.54 390C914.54 385.526 910.914 381.9 906.44 381.9C901.966 381.9 898.34 385.526 898.34 390C898.34 394.473 901.966 398.1 906.44 398.1Z" fill="#4942E4"/>
<path d="M319.56 21.2599C319.56 25.1699 316.39 28.3499 312.47 28.3499C308.55 28.3499 305.38 25.1799 305.38 21.2599C305.38 17.3399 308.55 14.1699 312.47 14.1699C316.39 14.1699 319.56 17.3399 319.56 21.2599Z" fill="#4942E4"/>
<path d="M816.45 618.18H796.71C798.25 630.33 799.48 639.59 800.01 643.51C800.01 643.51 786.23 652.86 776.88 651.65C776.36 651.58 775.82 651.76 775.51 652.19C775.1 652.76 774.79 653.68 775.7 654.83C775.96 655.16 776.38 655.34 776.81 655.34H814C815.4 655.34 816.58 654.32 816.78 652.94C817.02 651.3 817.16 647.53 816.16 644.07L816.46 618.18H816.45Z" fill="#CC7049"/>
<path d="M794.69 646.82C794.69 646.82 797.98 648.97 798.49 651.25C798.75 652.4 802.31 652.2 805.79 651.71C809.33 651.22 812.61 649.7 815.53 647.64C816.08 647.25 816.6 647 816.96 647.07C818.23 647.32 818.1 655.04 816.58 655.67C815.18 656.25 781.07 655.76 775.67 655.68C775.25 655.68 774.92 655.34 774.92 654.93C774.91 653.62 775.13 651.02 777.11 650.74C779.77 650.36 794.7 646.82 794.7 646.82H794.69Z" fill="#44E3A0"/>
<path d="M861.86 618.18H842.12L846.95 644.07C846.55 647.53 847.36 651.29 847.88 652.94C848.32 654.32 849.68 655.34 851.08 655.34H881.97C881.97 654.02 882.01 652.7 882.04 651.37C873.29 649.75 862.99 643.51 862.99 643.51C862.83 639.58 862.44 630.32 861.86 618.18Z" fill="#CC7049"/>
<path d="M869.08 646.82C869.08 646.82 865.79 648.97 865.28 651.25C865.02 652.4 861.46 652.2 857.98 651.71C854.44 651.22 851.16 649.7 848.24 647.64C847.69 647.25 847.17 647 846.81 647.07C845.54 647.32 845.67 655.04 847.19 655.67C848.59 656.25 882.7 655.76 888.1 655.68C888.52 655.68 888.85 655.34 888.85 654.93C888.86 653.62 888.64 651.02 886.66 650.74C884 650.36 869.07 646.82 869.07 646.82H869.08Z" fill="#44E3A0"/>
<path d="M792.97 386.87C792.97 386.87 781.5 397.33 782.51 405.77C783.52 414.21 791.28 439.85 788.92 457.4C786.56 474.95 781.16 490.13 782.51 508.69C783.86 527.25 795.33 630.16 795.33 630.16C795.33 630.16 821.31 621.39 830.42 625.44C839.53 629.49 864.5 632.86 867.87 631.51C867.87 631.51 862.13 492.83 843.24 466.85C843.24 466.85 839.87 429.56 843.16 421.21C846.45 412.86 842.4 389.83 834.05 387.05C825.7 384.27 792.97 386.88 792.97 386.88V386.87Z" fill="#4942E4"/>
<path d="M801.27 399.82C813.92 398.86 826.74 397.33 838.6 392.61C827.34 398.83 813.97 400.46 801.27 399.82Z" fill="#4942E4"/>
<path d="M808.49 565.21C817.19 555.64 825.13 545.37 832.05 534.44C832.5 533.71 832.97 532.98 833.45 532.25C827.53 544.78 818.95 556.1 808.49 565.21Z" fill="#4942E4"/>
<path d="M821.8 562.52C824.38 557.06 827.45 551.96 831.09 547.14C828.85 552.75 825.72 557.93 821.8 562.52Z" fill="#4942E4"/>
<path d="M822.31 459.44C822.44 457.85 811.81 455.01 812.22 453.93C812.59 452.97 815.28 452.6 816.68 452.65C816.98 452.66 817.2 452.43 817.17 452.13C817.11 451.55 816.76 450.69 815.29 450.54C813.38 450.34 809.61 450.03 805.2 451.32C805.2 451.32 805.2 451.32 805.19 451.32C804.66 451.02 799.97 448.46 792.98 444.61C791.74 448.79 790.6 453.02 789.04 456.99C793.72 457.89 798.47 458.56 803.27 458.89V458.85C805.86 461.25 812.18 466.88 815.69 467.97C815.98 468.06 816.21 467.81 816.11 467.53C815.9 466.93 815.13 465.79 812.6 463.89C812.6 463.89 818.79 466.49 819.91 466.03C821.03 465.57 813.63 461.15 813.63 461.15C813.63 461.15 820.9 463.33 821.68 462.54C822.46 461.75 814.64 458.26 814.64 458.26C814.64 458.26 822.26 460.07 822.31 459.43V459.44Z" fill="#CC7049"/>
<path d="M789.25 390.25C789.25 390.25 774.57 405.27 766.31 416.91C758.04 428.55 756.36 434.96 758.38 442.22C760.4 449.47 773.06 453.69 776.77 454.87C780.48 456.05 798.7 459.43 798.7 459.43L801.74 448.63L780.65 436.48L802.25 405.44L789.26 390.26L789.25 390.25Z" fill="#4942E4"/>
<path d="M772.93 433.61C775.64 434.06 778.2 434.97 780.72 436L780.04 436.82C779.16 435.27 778.35 433.68 777.73 431.97C779.35 433.68 780.63 435.67 781.9 437.62C778.81 436.53 775.7 435.39 772.92 433.62L772.93 433.61Z" fill="#4942E4"/>
<path d="M791.53 424.37C793.84 421.02 796.71 418.22 800.13 416.02C797.83 419.38 794.94 422.17 791.53 424.37Z" fill="#4942E4"/>
<path d="M783.76 424.33H844.23C845.14 424.33 845.88 425.07 845.88 425.98V465.5H782.11V425.98C782.11 425.07 782.85 424.33 783.76 424.33Z" fill="#E0DFDF"/>
<path d="M845.88 464.82H782.11V469.54H845.88V464.82Z" fill="#A1B1D0"/>
<path d="M819.73 446.6C819.73 449.77 817.16 452.34 813.99 452.34C810.82 452.34 808.25 449.77 808.25 446.6C808.25 443.43 810.82 440.86 813.99 440.86C817.16 440.86 819.73 443.43 819.73 446.6Z" fill="white"/>
<path d="M849.56 456.85L848.49 455.52C848.23 455.57 847.99 455.64 847.73 455.69C847.33 455.43 846.92 455.18 846.52 454.92C846.16 455.59 845.93 456.02 845.86 456.16C841.45 457.5 838.46 459.84 836.97 461.05C835.82 461.98 836 462.89 836.27 463.41C836.41 463.68 836.72 463.74 836.96 463.57C838.11 462.76 840.56 461.59 841.39 462.19C842.33 462.87 835 471.07 835.97 472.33C836.36 472.84 841.74 467.14 841.74 467.14C841.74 467.14 837.11 474.34 838.2 474.58C839.29 474.82 844.17 469.01 844.17 469.01C844.17 469.01 840.4 476.76 841.59 476.53C842.78 476.3 846.53 470.73 846.53 470.73C845.46 473.71 845.44 475.08 845.59 475.69C845.66 475.98 845.99 476.06 846.18 475.83C848.52 473 850.71 464.84 851.56 461.4L851.58 461.42L851.6 461.44C852.42 460.82 853.19 460.16 853.99 459.52C852.49 458.65 851.01 457.76 849.55 456.85H849.56Z" fill="#CC7049"/>
<path d="M836.83 389.07C836.83 389.07 842.57 391.43 845.77 393.46C848.98 395.48 879.18 421.3 879.51 428.72C879.85 436.14 853.02 462.13 853.02 462.13L846.1 455.21L856.9 432.6L827.54 405.44L836.82 389.07H836.83Z" fill="#4942E4"/>
<path d="M860.62 427.53C859.64 429.94 858.1 432.06 856.52 434.09C856.27 432.26 855.95 424.27 857.12 430.08C857.29 430.89 857.43 431.71 857.52 432.53L856.49 432.25C857.7 430.53 859 428.9 860.62 427.52V427.53Z" fill="#4942E4"/>
<path d="M847.46 453.98C850.3 455.16 852.68 456.98 854.55 459.42C851.71 458.25 849.33 456.42 847.46 453.98Z" fill="#4942E4"/>
<path d="M843.41 420.19L833.54 414.88L842.52 423.74L843.41 420.19Z" fill="#4942E4"/>
<path d="M836.08 355.81C835.52 354.05 833.65 352.65 831.78 353.1C832.61 328.69 812.26 331.98 812.26 331.98C799.49 333.09 798.03 346.66 798.13 353.57C797.72 353.33 797.33 353.15 797.11 353.1C795.24 352.63 793.36 354.04 792.8 355.8C792.35 357.2 792.66 358.79 793.46 360.02C794.13 361.05 795.21 362 796.36 362.44C796.62 362.54 797.71 362.72 798.59 362.69C800.56 378.65 815.02 377.08 815.02 377.08C827.55 377.7 830.81 368.95 831.54 362.63C832 362.57 832.39 362.5 832.54 362.44C833.69 362 834.77 361.04 835.44 360.02C836.24 358.79 836.54 357.2 836.1 355.8L836.08 355.81Z" fill="#CC7049"/>
<path d="M825.18 365.99C827.439 365.99 829.27 364.159 829.27 361.9C829.27 359.641 827.439 357.81 825.18 357.81C822.921 357.81 821.09 359.641 821.09 361.9C821.09 364.159 822.921 365.99 825.18 365.99Z" fill="#C5533A"/>
<path d="M804.84 365.99C807.099 365.99 808.93 364.159 808.93 361.9C808.93 359.641 807.099 357.81 804.84 357.81C802.581 357.81 800.75 359.641 800.75 361.9C800.75 364.159 802.581 365.99 804.84 365.99Z" fill="#C5533A"/>
<path d="M820.12 356.39C820.772 356.39 821.3 355.306 821.3 353.97C821.3 352.633 820.772 351.55 820.12 351.55C819.468 351.55 818.94 352.633 818.94 353.97C818.94 355.306 819.468 356.39 820.12 356.39Z" fill="#1E1E1E"/>
<path d="M822.53 350.79C822.33 351.18 822.07 351.52 821.73 351.82C821.4 352.12 820.97 352.35 820.49 352.46H820.47C820.23 352.52 820 352.37 819.95 352.14C819.9 351.9 820.04 351.67 820.28 351.62C820.32 351.62 820.36 351.61 820.4 351.61C821.06 351.64 821.79 351.23 822.29 350.65C822.34 350.58 822.43 350.57 822.49 350.62C822.54 350.66 822.55 350.73 822.52 350.79H822.53Z" fill="#1E1E1E"/>
<path d="M809.9 356.39C810.552 356.39 811.08 355.306 811.08 353.97C811.08 352.633 810.552 351.55 809.9 351.55C809.248 351.55 808.72 352.633 808.72 353.97C808.72 355.306 809.248 356.39 809.9 356.39Z" fill="#1E1E1E"/>
<path d="M807.73 350.64C808.23 351.22 808.96 351.62 809.62 351.6C809.86 351.6 810.06 351.78 810.07 352.02C810.07 352.26 809.89 352.46 809.65 352.47C809.61 352.47 809.57 352.47 809.54 352.46H809.52C809.04 352.35 808.62 352.11 808.28 351.82C807.94 351.52 807.68 351.18 807.48 350.79C807.44 350.72 807.48 350.64 807.54 350.6C807.6 350.57 807.67 350.59 807.71 350.63L807.73 350.64Z" fill="#1E1E1E"/>
<path d="M819.44 361.28C819.03 362.08 818.41 362.76 817.66 363.3C816.91 363.84 815.98 364.18 815.02 364.18C814.06 364.16 813.13 363.83 812.39 363.27C812 363.02 811.7 362.66 811.37 362.36C811.09 362 810.82 361.64 810.58 361.27C810.94 361.54 811.28 361.82 811.61 362.1C811.98 362.33 812.31 362.6 812.69 362.79C813.42 363.21 814.22 363.44 815.02 363.45C815.82 363.47 816.62 363.22 817.36 362.82C818.1 362.41 818.79 361.88 819.44 361.27V361.28Z" fill="#1E1E1E"/>
<path d="M816.26 365.57C815.92 365.87 815.46 365.98 815.02 365.99C814.57 365.98 814.12 365.85 813.78 365.57C814.22 365.64 814.61 365.73 815.02 365.71C815.43 365.73 815.83 365.65 816.26 365.57Z" fill="#1E1E1E"/>
<path d="M812.06 345.59C811.51 345.1 810.89 344.94 810.23 344.91C809.58 344.9 808.91 344.97 808.28 345.19C807.64 345.38 807.06 345.74 806.56 346.17C806.05 346.58 805.69 347.13 805.39 347.67C805.24 347.94 805.34 348.29 805.61 348.44C805.83 348.56 806.09 348.52 806.27 348.36L806.32 348.32C806.7 347.97 807.07 347.64 807.49 347.39C807.89 347.12 808.33 346.98 808.78 346.86C809.23 346.76 809.7 346.7 810.17 346.72C810.64 346.74 811.14 346.76 811.66 346.63L811.81 346.59C812.13 346.51 812.32 346.19 812.24 345.87C812.21 345.75 812.15 345.65 812.06 345.57V345.59Z" fill="#1E1E1E"/>
<path d="M817.96 345.59C818.51 345.1 819.13 344.94 819.79 344.91C820.44 344.9 821.11 344.97 821.74 345.19C822.38 345.38 822.96 345.74 823.46 346.17C823.97 346.58 824.33 347.13 824.63 347.67C824.78 347.94 824.68 348.29 824.41 348.44C824.19 348.56 823.93 348.52 823.75 348.36L823.7 348.32C823.32 347.97 822.95 347.64 822.53 347.39C822.13 347.12 821.69 346.98 821.24 346.86C820.79 346.76 820.32 346.7 819.85 346.72C819.38 346.74 818.88 346.76 818.36 346.63L818.21 346.59C817.89 346.51 817.7 346.19 817.78 345.87C817.81 345.75 817.87 345.65 817.96 345.57V345.59Z" fill="#1E1E1E"/>
<path d="M815.29 350.28C815.5 351.19 815.65 352.1 815.82 352.99C815.99 353.88 816.16 354.77 816.41 355.62C816.47 355.83 816.53 356.04 816.61 356.24C816.67 356.41 816.82 356.72 816.82 357.02C816.85 357.62 816.46 358.21 815.97 358.45C815.47 358.73 814.89 358.69 814.43 358.53C813.97 358.36 813.56 358.11 813.21 357.8C814.06 358.12 815.05 358.37 815.64 357.92C815.94 357.69 816.1 357.39 816.06 357.06C816.04 356.89 815.99 356.78 815.88 356.52C815.79 356.29 815.71 356.07 815.64 355.84C815.38 354.92 815.25 353.99 815.2 353.06C815.15 352.13 815.16 351.2 815.29 350.27V350.28Z" fill="#1E1E1E"/>
<path d="M794.28 357.11C794.27 356.56 794.42 355.94 794.91 355.51C795.43 355.08 796.17 355.12 796.73 355.33C797.33 355.54 797.82 355.95 798.2 356.4C798.59 356.86 798.88 357.37 799.11 357.94C799.19 358.15 799.09 358.38 798.89 358.46C798.73 358.52 798.56 358.48 798.45 358.37L798.42 358.34C798.03 357.94 797.53 357.52 797.07 357.38C796.84 357.32 796.66 357.33 796.5 357.44C796.33 357.56 796.2 357.81 796.09 358.07C795.88 358.6 795.76 359.22 796.21 359.47C796.68 359.74 797.38 359.67 798 359.59C797.42 359.85 796.77 360.06 796.03 359.85C795.66 359.73 795.36 359.31 795.34 358.92C795.3 358.54 795.36 358.19 795.45 357.85C795.55 357.51 795.69 357.16 796.02 356.86C796.36 356.56 796.88 356.49 797.26 356.6C798.02 356.83 798.54 357.27 799.02 357.79L798.33 358.2C797.96 357.27 797.35 356.31 796.47 355.88C796.03 355.67 795.51 355.56 795.1 355.8C794.67 356.03 794.4 356.56 794.26 357.09L794.28 357.11Z" fill="#1E1E1E"/>
<path d="M835.12 357.11C835.13 356.56 834.98 355.94 834.49 355.51C833.97 355.08 833.23 355.12 832.67 355.33C832.07 355.54 831.58 355.95 831.2 356.4C830.81 356.86 830.52 357.37 830.29 357.94C830.21 358.15 830.31 358.38 830.51 358.46C830.67 358.52 830.84 358.48 830.95 358.37L830.98 358.34C831.37 357.94 831.87 357.52 832.33 357.38C832.56 357.32 832.74 357.33 832.9 357.44C833.07 357.56 833.2 357.81 833.31 358.07C833.52 358.6 833.64 359.22 833.19 359.47C832.72 359.74 832.02 359.67 831.4 359.59C831.98 359.85 832.63 360.06 833.37 359.85C833.74 359.73 834.04 359.31 834.06 358.92C834.1 358.54 834.04 358.19 833.95 357.85C833.85 357.51 833.71 357.16 833.38 356.86C833.04 356.56 832.52 356.49 832.14 356.6C831.38 356.83 830.86 357.27 830.38 357.79L831.07 358.2C831.44 357.27 832.05 356.31 832.93 355.88C833.37 355.67 833.89 355.56 834.3 355.8C834.73 356.03 835 356.56 835.14 357.09L835.12 357.11Z" fill="#1E1E1E"/>
<path d="M839.59 389.13C839.52 389.11 839.45 389.09 839.37 389.07C834.89 387.78 832.32 383.05 833.22 378.47C834.81 370.38 837.48 355.85 837 351.77C836.33 346.03 832.44 329.67 817.26 328.49C802.08 327.31 792.8 337.43 790.94 352.11C789.08 366.79 793.98 382.65 793.98 382.65C793.84 384.95 786.1 392.27 783.81 394.39C783.53 394.65 783.64 395.12 784.01 395.24C806.98 402.5 833.15 392.77 839.68 390.06C840.13 389.88 840.05 389.25 839.59 389.13ZM815 376.07C806.19 376.07 799.05 367.8 799.05 357.6C799.05 347.4 806.19 339.13 815 339.13C823.81 339.13 830.95 347.4 830.95 357.6C830.95 367.8 823.81 376.07 815 376.07Z" fill="#C7B7DA"/>
<path d="M786.55 394.3C798.29 390.45 810.19 385.73 819.65 377.6C821.06 376.5 822.21 375.14 823.5 373.88C822.42 375.3 821.34 376.75 820.05 378.01C811.08 386.87 798.77 391.86 786.55 394.29V394.3Z" fill="white"/>
<path d="M805.11 373.54C796.69 369.88 792.84 359.64 795.66 351.1C795.59 352.68 795.45 354.38 795.55 355.96C795.69 362.95 799.41 369.51 805.11 373.54Z" fill="white"/>
<path d="M802.24 346.38C802.24 346.38 815.65 340.22 827.8 346.38C827.8 346.38 815.4 326.64 802.24 346.38Z" fill="white"/>
<path d="M350.07 38.47H702.05C713.3 38.47 722.44 47.61 722.44 58.86V635.56C722.44 646.81 713.3 655.95 702.05 655.95H350.07C338.82 655.95 329.68 646.81 329.68 635.56V58.86C329.68 47.61 338.82 38.47 350.07 38.47Z" fill="#14202E"/>
<path d="M571.61 53.3101H480.51V60.0601H571.61V53.3101Z" fill="#2E3D4C"/>
<path d="M569.25 621.54H482.87V639.09H569.25V621.54Z" fill="#2E3D4C"/>
<path d="M713 78.28H339.13V610.27H713V78.28Z" fill="white"/>
<path d="M713 78.28H339.13V98.53H713V78.28Z" fill="#8696FE"/>
<path d="M372.36 538.61C380.655 538.61 387.38 531.885 387.38 523.59C387.38 515.295 380.655 508.57 372.36 508.57C364.065 508.57 357.34 515.295 357.34 523.59C357.34 531.885 364.065 538.61 372.36 538.61Z" fill="#4942E4"/>
<path d="M413.87 538.61C422.165 538.61 428.89 531.885 428.89 523.59C428.89 515.295 422.165 508.57 413.87 508.57C405.575 508.57 398.85 515.295 398.85 523.59C398.85 531.885 405.575 538.61 413.87 538.61Z" fill="#4942E4"/>
<path d="M517.29 511.95H437.32V519.71H517.29V511.95Z" fill="#4942E4"/>
<path d="M692.08 548.39H360.05V556.15H692.08V548.39Z" fill="#4942E4"/>
<path d="M692.08 564.25H360.05V572.01H692.08V564.25Z" fill="#4942E4"/>
<path d="M440.02 580.11H360.05V587.87H440.02V580.11Z" fill="#4942E4"/>
<path d="M386.965 173.514C388.877 165.442 383.884 157.348 375.812 155.436C367.741 153.523 359.647 158.516 357.734 166.588C355.821 174.66 360.815 182.754 368.886 184.666C376.958 186.579 385.052 181.586 386.965 173.514Z" fill="#8696FE"/>
<path d="M473.42 157.75H393.45V165.51H473.42V157.75Z" fill="#D6D6D6"/>
<path d="M566.22 526.46H437.32V534.22H566.22V526.46Z" fill="#4942E4"/>
<path d="M713 190.31H339.13V433.26H713V190.31Z" fill="#C7B7DA"/>
<path d="M609.32 454.97C597.3 454.97 585.16 449.4 575.62 445.02C563.13 439.29 555.1 423.74 557.72 410.35C559.53 401.07 566.4 393.22 574.79 390.82C575.69 390.56 576.61 390.36 577.53 390.16C578.95 389.85 580.29 389.56 581.56 389.05C586.21 387.22 589.85 382.46 591.3 376.34C592.55 371.06 592.19 365.43 591.85 359.99L591.79 359.08C591.21 349.71 590.93 339.81 594.34 330.72C597.49 322.33 605.29 313.52 615.6 312.74C616.84 312.65 618.08 312.67 619.28 312.69C620.99 312.72 622.6 312.75 624.19 312.48C631.61 311.17 636.34 303.42 640.13 297.2C643.94 290.96 650.06 282.7 658.79 282.83C664.19 282.93 669.47 286.65 671.93 292.09C674.04 296.75 674.2 302.5 672.38 308.27C671.88 309.88 671.23 311.51 670.61 313.09C668.64 318.1 666.77 322.83 668.65 327.24C669.49 329.21 671 330.8 672.59 332.49C673.17 333.11 673.76 333.72 674.31 334.36C682.16 343.42 683.25 357.9 676.84 368.03C672.61 374.73 665.77 379.4 659.16 383.91C650.82 389.6 642.94 394.98 640.29 403.98C638.91 408.65 639.26 413.51 639.62 418.64C639.93 423.04 640.25 427.59 639.38 432.02C637.63 440.95 630.93 448.83 621.9 452.56C617.8 454.26 613.56 454.95 609.31 454.95L609.32 454.97ZM617.63 314.7C617 314.7 616.38 314.71 615.76 314.76C606.34 315.47 599.16 323.65 596.24 331.43C592.97 340.15 593.25 349.8 593.82 358.95L593.88 359.86C594.23 365.45 594.6 371.23 593.28 376.8C591.68 383.57 587.58 388.85 582.31 390.93C580.88 391.49 579.4 391.82 577.97 392.13C577.09 392.32 576.22 392.51 575.36 392.76C567.67 394.96 561.39 402.18 559.72 410.73C557.31 423.04 564.99 437.9 576.48 443.17C589.05 448.94 606.29 456.84 621.15 450.7C629.56 447.22 635.8 439.92 637.42 431.64C638.23 427.48 637.92 423.07 637.62 418.8C637.26 413.71 636.89 408.45 638.37 403.42C641.23 393.73 649.77 387.89 658.04 382.25C664.48 377.85 671.14 373.31 675.15 366.96C681.1 357.55 680.08 344.11 672.8 335.69C672.27 335.08 671.7 334.48 671.14 333.89C669.49 332.15 667.79 330.35 666.8 328.04C664.6 322.87 666.7 317.53 668.74 312.36C669.35 310.81 669.98 309.21 670.47 307.67C672.14 302.37 672.01 297.14 670.1 292.93C667.96 288.19 663.4 284.95 658.77 284.86C651.06 284.78 645.42 292.44 641.87 298.26C637.86 304.83 632.87 313.01 624.55 314.48C622.77 314.79 620.98 314.76 619.25 314.73C618.7 314.73 618.16 314.71 617.63 314.71V314.7Z" fill="#F9F9FA"/>
<path d="M677.14 270.78C673.37 270.78 670.31 267.71 670.31 263.95C670.31 260.19 673.37 257.12 677.14 257.12C680.91 257.12 683.97 260.19 683.97 263.95C683.97 267.71 680.91 270.78 677.14 270.78ZM677.14 259.14C674.49 259.14 672.33 261.3 672.33 263.95C672.33 266.6 674.49 268.76 677.14 268.76C679.79 268.76 681.95 266.6 681.95 263.95C681.95 261.3 679.79 259.14 677.14 259.14Z" fill="#F9F9FA"/>
<path d="M647.03 234.85C647.03 236.25 645.9 237.38 644.5 237.38C643.1 237.38 641.97 236.25 641.97 234.85C641.97 233.45 643.1 232.32 644.5 232.32C645.9 232.32 647.03 233.45 647.03 234.85Z" fill="#F9F9FA"/>
<path d="M374.98 384.16C376.797 384.16 378.27 382.687 378.27 380.87C378.27 379.053 376.797 377.58 374.98 377.58C373.163 377.58 371.69 379.053 371.69 380.87C371.69 382.687 373.163 384.16 374.98 384.16Z" fill="#F9F9FA"/>
<path d="M676.64 398.84C673.15 398.84 670.31 396 670.31 392.51C670.31 389.02 673.15 386.18 676.64 386.18C680.13 386.18 682.97 389.02 682.97 392.51C682.97 396 680.13 398.84 676.64 398.84ZM676.64 388.21C674.27 388.21 672.34 390.14 672.34 392.51C672.34 394.88 674.27 396.81 676.64 396.81C679.01 396.81 680.94 394.88 680.94 392.51C680.94 390.14 679.01 388.21 676.64 388.21Z" fill="#F9F9FA"/>
<path d="M470.05 379.94C470.05 379.94 450.48 412.33 444.74 440.34H576.67C576.67 440.34 566.55 391.75 555.07 380.28L470.04 379.94H470.05Z" fill="#483F99"/>
<path d="M466.84 389.47C497.43 388.69 528.37 388.69 558.96 389.47C528.37 390.26 497.43 390.25 466.84 389.47Z" fill="white"/>
<path d="M480.26 390.23C477.92 398.29 472.48 408.42 463.36 409.76C462.06 409.87 460.75 409.79 459.51 409.46C470.27 410.03 476.09 398.48 480.26 390.23Z" fill="white"/>
<path d="M519.73 389.22C520.06 401.79 520.22 415.57 520.26 428.19V428.41L520.1 428.57C516.57 432.12 513.06 435.7 509.5 439.23L508.51 440.21V438.82C508.57 422.37 508.64 405.92 509.09 389.47C509.32 397.69 509.43 405.92 509.52 414.14C509.63 422.36 509.61 430.59 509.66 438.81L508.68 438.4C512.21 434.85 515.79 431.34 519.34 427.8L519.18 428.17C519.22 415.54 519.38 401.78 519.71 389.2L519.73 389.22Z" fill="white"/>
<path d="M549.6 389.47C550.01 399.47 553.43 408.33 565.04 407.44C553.32 410.44 547.97 399.61 549.6 389.47Z" fill="white"/>
<path d="M621.84 246.85L605.56 247.34C605.56 247.34 600.29 271.29 593.08 303.23C590.7 299.45 588.47 295.86 586.41 292.52C579.15 306.76 570.25 320 560.66 332.77C566.09 341.99 572.34 352.06 579.42 362.55C579.52 362.7 579.62 362.84 579.71 362.99C592.29 381.55 621.31 374.73 624.26 352.5C624.29 352.25 624.33 351.99 624.36 351.74C628.75 318.45 629.51 281.94 621.82 246.85H621.84Z" fill="#F6BA8A"/>
<path d="M612.22 222.76C611.85 218.52 611.3 214.09 610.61 214.24C609.47 214.48 608.79 217.44 608.29 221.18C609.62 221.6 610.94 222.12 612.22 222.76Z" fill="#F18665"/>
<path d="M619.1 227.97C619.03 223.41 618.71 214.5 617.2 213.68C616.02 213.04 614.71 218.73 613.82 223.63C615.88 224.85 617.72 226.32 619.1 227.97Z" fill="#F18665"/>
<path d="M630.44 221.94C629.36 222.72 627.53 224.92 625.2 231.09C625.2 231.09 626.79 217.17 625.2 215.19C623.95 213.62 620.85 224.22 619.62 228.68C620.4 229.75 621.01 230.87 621.34 232.04C621.83 233.82 621.95 235.44 621.78 236.9C623.7 242.13 620.49 248.26 614.91 250.18C612.75 250.93 610.51 251.03 608.3 250.73C606.58 251.32 604.74 251.49 603.08 251.22C604.34 253.42 605.84 255.67 607.67 257.89L619 255.73C619 255.73 631.41 232.31 631.56 222.51C631.56 221.88 630.94 221.57 630.43 221.93L630.44 221.94Z" fill="#F6BA8A"/>
<path d="M590.68 328.48C590.93 320.05 591.71 311.66 592.71 303.29L593.65 303.6C592.15 305.96 590.65 308.33 589.07 310.65C588.55 311.43 588.02 312.2 587.48 312.96C589.47 308.96 591.68 305.01 593.9 301.13C593.2 310.28 592.25 319.44 590.69 328.49L590.68 328.48Z" fill="#1E1E1E"/>
<path d="M596.44 216.07L615.98 252.65C616.82 254.22 618.64 254.99 620.36 254.51C623.96 253.51 629.67 251.23 631.08 246.63C633.18 239.77 615.55 205.61 615.55 205.61L596.44 216.07Z" fill="#E0DFDF"/>
<path d="M575.45 168.59L568.85 170.56C566.86 171.16 565.62 173.12 565.92 175.18C566.82 181.17 569.47 194.22 576.97 211.59C577.81 213.53 579.97 214.54 581.99 213.93L587.84 212.18L575.45 168.59Z" fill="#4942E4"/>
<path d="M607.96 150.93L576.86 160.23C572.29 161.6 572.46 175.69 577.26 191.7C582.06 207.71 589.64 219.58 594.21 218.22L625.31 208.92L607.96 150.93Z" fill="#4942E4"/>
<path d="M624.91 177.44C629.7 193.45 629.88 207.54 625.3 208.91C620.73 210.28 613.14 198.41 608.35 182.39C603.56 166.38 603.38 152.29 607.95 150.92C612.52 149.55 620.11 161.42 624.9 177.44H624.91Z" fill="#4942E4"/>
<path d="M666.62 113.5L609.01 157.94L609.2 161.89C609.94 176.94 614.77 191.93 622.93 204.48L694.73 204.91L666.62 113.5Z" fill="#E0DFDF"/>
<path d="M704.64 152.04C712.28 177.57 709.03 201.09 697.39 204.58C688.37 207.28 676.96 197.17 668.72 180.6C666.33 175.78 664.2 170.41 662.47 164.66C660.92 159.46 659.81 154.34 659.13 149.47C656.5 130.38 660.45 114.89 669.72 112.12C681.36 108.64 697 126.52 704.63 152.05L704.64 152.04Z" fill="#C4C4C4"/>
<path d="M680.85 159.15C685.59 175.01 686.14 190.09 683.08 200.07C675.04 193.4 667.21 180.5 662.47 164.64C657.73 148.78 657.18 133.7 660.24 123.71C668.28 130.37 676.11 143.28 680.85 159.14V159.15Z" fill="#919191"/>
<path d="M681.12 147.72L687.36 168.57L668.73 180.6C666.34 175.78 664.21 170.41 662.48 164.66C660.93 159.46 659.82 154.34 659.14 149.47L681.12 147.73V147.72Z" fill="#EBEBEB"/>
<path d="M688.99 156.72C690.71 162.48 689.98 167.78 687.35 168.56C684.72 169.35 681.2 165.32 679.48 159.56C677.76 153.8 678.49 148.5 681.12 147.72C683.75 146.93 687.27 150.96 688.99 156.72Z" fill="#4942E4"/>
<path d="M614.8 154.54C617.23 170.37 620.74 186.66 629.52 200.28C630.41 201.69 631.54 202.95 632.51 204.31C620.39 191.99 615.69 171.37 614.8 154.54Z" fill="#1E1E1E"/>
<path d="M589.67 212.24C598.1 208.89 606.76 206.29 615.65 204.48C607.22 207.84 598.55 210.42 589.67 212.24Z" fill="#1E1E1E"/>
<path d="M686.34 156.9C686.71 158.34 687.82 164.14 684.84 162.87C682.31 161.55 680.03 153.05 683.07 151.66C685.03 151.58 685.9 155.4 686.34 156.9ZM686.34 156.9C685.95 155.42 685.38 153.9 684.31 152.77C683.98 152.42 683.5 152.11 683.21 152.23C681.58 153.3 683.75 162.28 685.7 162.49C686.01 162.46 686.3 161.96 686.43 161.5C686.86 160.01 686.67 158.4 686.34 156.9Z" fill="#1E1E1E"/>
<path d="M671.49 114.05C680.99 116.3 688.22 122.63 692.79 131.13C701.72 146.68 710.38 168.14 707.03 186.27C705.65 192.35 703.47 199.57 697.26 202.27C695.07 203.18 692.54 203.14 690.38 202.29C694.92 203.93 699.78 201.4 702.16 197.43C713.38 177.56 701.99 149.97 692.02 131.57C687.75 123.14 680.67 116.7 671.49 114.05Z" fill="#1E1E1E"/>
<path d="M604.68 254.84C604.68 254.84 597.93 239.99 598.61 236.62C599.28 233.25 606.96 224.98 610.59 226.33C614.22 227.68 608.65 238.14 608.65 238.14C608.65 238.14 617.68 249.11 616.66 254.67C615.64 260.23 604.68 254.84 604.68 254.84Z" fill="#F6BA8A"/>
<path d="M538.81 242.88C538.81 242.88 568.24 258.46 573.3 264.54C578.36 270.61 591.86 299.29 591.86 299.29L562.5 338.77C562.5 338.77 531.15 292.03 538.81 242.88Z" fill="#4942E4"/>
<path d="M544.65 253.12C543.4 251.03 543 248.98 543.2 247.09C541.53 245.89 540.06 244.55 538.72 242.94C538.2 241.06 537 236.48 536.09 231.32C535.29 226.7 534.72 221.62 535.12 217.64V217.62C535.3 215.65 535.72 213.95 536.47 212.7L491.75 187.55C491.78 187.7 491.8 187.83 491.83 187.98C492.54 192.13 497.93 224.71 492.4 241.99C489.04 243.54 484.9 244.64 479.77 244.82C474.24 245.01 468.83 246.98 464.8 250.77C460.45 254.86 456.59 261.74 456.52 273.2C460.61 273.71 464.7 274.52 468.78 275.25C480.98 277.44 493.16 279.78 505.39 281.8C521.16 284.41 537.33 284.98 553.28 286.75C552.59 274.87 550.25 262.55 544.63 253.12H544.65Z" fill="#F6BA8A"/>
<path d="M536.1 231.32C511.79 234.39 499.47 205.35 499.02 204.27C503.51 211.4 510.02 215 516.37 216.72C524.2 218.86 531.79 218.14 534.98 217.67C535.03 217.65 535.08 217.65 535.13 217.64C534.73 221.63 535.3 226.7 536.1 231.32Z" fill="#EBA771"/>
<path d="M491.31 241.6C491.31 241.6 519.99 273.32 528.43 268.26C536.87 263.2 538.99 243.85 538.99 243.85C538.99 243.85 567.91 268.93 571.96 277.03C576.01 285.13 575.67 300.99 565.55 325.96C555.43 350.93 559.22 384.67 559.22 384.67H466.68C466.68 384.67 474.44 368.47 472.08 349.58C469.72 330.68 447.45 270.29 447.45 270.29C447.45 270.29 443.06 242.62 491.32 241.61L491.31 241.6Z" fill="#8696FE"/>
<path d="M490.46 244.97C498.12 253.47 517.87 275.85 530.29 270.7C539.29 266.53 540.5 253.27 540.74 244.47C541.18 253.56 540.14 267.32 530.7 271.68C517.33 277.35 497.82 254.56 490.46 244.98V244.97Z" fill="#4942E4"/>
<path d="M557.23 282.31C558.66 286.83 560.69 291.05 562.84 295.26C569.35 307.06 568.47 317.45 563.92 329.75C563.09 331.96 562.23 334.17 561.29 336.33C561.98 334.07 562.73 331.83 563.37 329.57C567.2 317.18 568.08 307.52 562.03 295.64C560.06 291.36 558.19 286.95 557.23 282.31Z" fill="#4942E4"/>
<path d="M513.91 335.37C520.47 333.82 527.62 334.43 533.82 337.07C527.14 335.99 520.67 335.43 513.91 335.37Z" fill="#4942E4"/>
<path d="M437.85 327.13C435.96 325.37 434.05 323.63 432.17 321.85C423.47 313.6 414.49 305.74 405.87 297.52C403.47 300.13 401.03 302.81 398.57 305.59C393.01 311.87 387.34 318.57 381.68 325.66C374.46 334.72 374.18 347.45 380.97 356.83C385.46 363.04 390.2 369.2 395.19 375.25C409.72 392.87 426.4 409.49 445.35 423.28L457.16 412.1C457.16 412.1 440.59 382.51 420.71 346.29C426.55 339.71 432.3 333.27 437.82 327.13H437.85Z" fill="#F6BA8A"/>
<path d="M444.58 419.94C444.58 419.94 450.85 445.69 457.25 453.12C457.66 453.59 458.34 453.41 458.48 452.8C458.77 451.5 458.67 448.64 456.32 442.48C456.32 442.48 464.38 453.94 466.87 454.37C469.36 454.8 461.18 438.78 461.18 438.78C461.18 438.78 471.61 450.7 473.86 450.17C476.11 449.64 466.16 434.8 466.16 434.8C466.16 434.8 477.62 446.46 478.42 445.39C480.41 442.72 464.76 425.91 466.7 424.45C468.42 423.16 473.58 425.5 476.01 427.15C476.52 427.5 477.17 427.34 477.45 426.78C477.99 425.68 478.33 423.78 475.89 421.87C472.13 418.93 463.93 412.74 451.62 410.8L444.58 419.94Z" fill="#F6BA8A"/>
<path d="M413.02 338.44C416.17 340.46 418.77 343.05 420.78 346.2C417.63 344.19 415.04 341.58 413.02 338.44Z" fill="#1E1E1E"/>
<path d="M397.84 304.36L431.58 335.4L474.1 291.53C474.1 291.53 476.86 246.01 467.74 245.18C454.2 243.95 410.67 285.79 397.85 304.35L397.84 304.36Z" fill="#4942E4"/>
<path d="M459.76 306.21L476.97 290.02L464.48 321.23L459.76 306.21Z" fill="#4942E4"/>
<path d="M558.98 176.85C558.48 163.67 556.88 150.1 552.34 138.44C546.5 123.42 518.97 117.58 499.77 134.27C490.85 142.02 488.97 156.07 489.5 168.91C489.04 168.68 488.62 168.51 488.35 168.44C484.44 167.47 480.52 170.41 479.35 174.08C478.42 177.01 479.05 180.31 480.72 182.89C482.11 185.03 484.36 187.03 486.77 187.95C487.37 188.18 490.07 188.63 491.98 188.47C493.82 196.91 498.11 204.71 504.76 210.23C513.15 217.21 523.88 219.99 534.58 217.77C542.89 216.05 555.17 210.73 558.23 202.1C559.03 199.85 559.1 197.43 559.13 195.04C559.15 194.49 559.15 193.94 559.15 193.39C559.2 188.07 559.2 182.49 558.98 176.87V176.85Z" fill="#F6BA8A"/>
<path d="M559.15 193.37C558.45 193.55 557.71 193.65 556.96 193.65C552.25 193.65 548.43 189.83 548.43 185.12C548.43 180.41 552.25 176.59 556.96 176.59C557.66 176.59 558.33 176.67 558.98 176.84C559.2 182.46 559.2 188.04 559.15 193.36V193.37Z" fill="#EBA771"/>
<path d="M505.97 185.13C505.97 189.84 509.79 193.66 514.5 193.66C519.21 193.66 523.03 189.84 523.03 185.13C523.03 180.42 519.21 176.6 514.5 176.6C509.79 176.6 505.97 180.42 505.97 185.13Z" fill="#EBA771"/>
<path d="M543.94 168.57C543.94 171.36 545.04 173.61 546.4 173.61C547.76 173.61 548.86 171.35 548.86 168.57C548.86 165.79 547.76 163.53 546.4 163.53C545.04 163.53 543.94 165.79 543.94 168.57Z" fill="#1E1E1E"/>
<path d="M551.43 161.93C551.01 162.75 550.47 163.46 549.76 164.08C549.06 164.7 548.18 165.19 547.18 165.41H547.14C546.65 165.53 546.16 165.23 546.05 164.73C545.94 164.24 546.24 163.75 546.73 163.64C546.81 163.62 546.89 163.61 546.97 163.62C548.35 163.67 549.88 162.84 550.92 161.62L550.94 161.6C551.05 161.48 551.23 161.46 551.35 161.57C551.46 161.66 551.48 161.81 551.42 161.93H551.43Z" fill="#1E1E1E"/>
<path d="M516.17 167.89C517.21 169.11 518.74 169.95 520.12 169.89C520.62 169.87 521.05 170.26 521.07 170.77C521.09 171.27 520.7 171.7 520.19 171.72C520.11 171.72 520.03 171.72 519.95 171.7H519.9C518.9 171.46 518.02 170.98 517.32 170.36C516.62 169.74 516.07 169.02 515.65 168.21C515.58 168.07 515.63 167.89 515.78 167.81C515.9 167.75 516.05 167.78 516.14 167.88L516.16 167.9L516.17 167.89Z" fill="#1E1E1E"/>
<path d="M519.45 170.02C520.31 169.1 521.21 168.5 522.27 168.03C523.32 167.59 524.48 167.35 525.62 167.44C526.75 167.54 527.84 167.87 528.8 168.38C529.29 168.62 529.72 168.95 530.17 169.23L531.39 170.24C531.62 170.43 531.66 170.78 531.47 171.01C531.29 171.23 530.97 171.27 530.74 171.11L530.69 171.07L529.5 170.24C529.07 170.03 528.67 169.76 528.23 169.59C527.37 169.21 526.46 169.03 525.57 169.01C524.68 169.01 523.82 169.26 523.03 169.66C522.26 170.05 521.51 170.69 521.03 171.29L520.98 171.35C520.63 171.79 519.99 171.86 519.55 171.51C519.11 171.16 519.04 170.52 519.39 170.08C519.41 170.06 519.42 170.04 519.44 170.02H519.45Z" fill="#1E1E1E"/>
<path d="M544.98 183.83C544.12 185.49 542.82 186.93 541.27 188.05C539.71 189.17 537.76 189.9 535.75 189.88C533.75 189.83 531.79 189.15 530.26 187.99C529.46 187.46 528.83 186.73 528.13 186.1C527.55 185.35 526.98 184.61 526.48 183.83C527.24 184.39 527.94 184.98 528.63 185.56C529.41 186.03 530.1 186.61 530.88 187.01C532.41 187.89 534.08 188.37 535.75 188.39C537.43 188.43 539.1 187.9 540.64 187.07C542.18 186.22 543.63 185.12 544.97 183.84L544.98 183.83Z" fill="#1E1E1E"/>
<path d="M538.33 192.78C537.63 193.4 536.66 193.63 535.74 193.66C534.81 193.63 533.86 193.38 533.14 192.78C534.05 192.92 534.88 193.1 535.74 193.07C536.6 193.1 537.43 192.95 538.33 192.78Z" fill="#1E1E1E"/>
<path d="M529.57 151.08C528.42 150.06 527.12 149.73 525.75 149.67C524.39 149.64 523 149.8 521.68 150.25C520.35 150.66 519.12 151.4 518.1 152.3C517.03 153.16 516.28 154.31 515.66 155.43C515.34 156 515.55 156.72 516.12 157.03C516.58 157.28 517.13 157.2 517.49 156.87L517.59 156.78C518.39 156.04 519.16 155.35 520.02 154.85C520.85 154.29 521.78 153.99 522.71 153.75C523.65 153.53 524.62 153.42 525.62 153.47C526.6 153.5 527.65 153.55 528.73 153.29L529.04 153.21C529.7 153.05 530.11 152.38 529.95 151.72C529.89 151.47 529.75 151.25 529.57 151.09V151.08Z" fill="#1E1E1E"/>
<path d="M541.89 151.08C543.04 150.06 544.34 149.73 545.71 149.67C547.06 149.64 548.46 149.8 549.78 150.25C551.11 150.66 552.34 151.4 553.36 152.3C554.43 153.16 555.18 154.31 555.8 155.43C556.12 156 555.91 156.72 555.34 157.03C554.88 157.28 554.33 157.2 553.97 156.87L553.87 156.78C553.07 156.04 552.3 155.35 551.44 154.85C550.61 154.29 549.68 153.99 548.75 153.75C547.81 153.53 546.84 153.42 545.84 153.47C544.86 153.5 543.81 153.55 542.73 153.29L542.42 153.21C541.76 153.05 541.35 152.38 541.51 151.72C541.57 151.47 541.71 151.25 541.89 151.09V151.08Z" fill="#1E1E1E"/>
<path d="M536.3 160.87C536.74 162.77 537.06 164.66 537.41 166.53C537.77 168.39 538.12 170.26 538.65 172.02C538.77 172.46 538.91 172.9 539.07 173.32C539.2 173.67 539.51 174.33 539.5 174.95C539.56 176.21 538.76 177.44 537.73 177.94C536.68 178.53 535.47 178.44 534.51 178.11C533.54 177.76 532.7 177.23 531.96 176.59C533.73 177.25 535.79 177.77 537.04 176.83C537.67 176.35 538 175.72 537.91 175.03C537.88 174.68 537.77 174.45 537.54 173.91C537.35 173.44 537.18 172.96 537.04 172.48C536.5 170.56 536.22 168.62 536.11 166.68C536 164.74 536.04 162.8 536.29 160.86L536.3 160.87Z" fill="#1E1E1E"/>
<path d="M482.44 176.8C482.41 175.64 482.73 174.36 483.75 173.46C484.84 172.57 486.38 172.65 487.56 173.09C488.81 173.52 489.83 174.38 490.63 175.33C491.45 176.3 492.05 177.35 492.54 178.55C492.71 178.98 492.51 179.47 492.08 179.65C491.76 179.78 491.4 179.7 491.17 179.46L491.11 179.4C490.29 178.57 489.26 177.68 488.29 177.4C487.8 177.27 487.44 177.29 487.1 177.53C486.75 177.78 486.48 178.3 486.25 178.84C485.82 179.95 485.56 181.24 486.5 181.75C487.49 182.31 488.94 182.18 490.23 182C489.01 182.54 487.66 182.99 486.13 182.55C485.35 182.3 484.73 181.41 484.68 180.62C484.6 179.82 484.72 179.1 484.92 178.39C485.13 177.69 485.42 176.94 486.11 176.33C486.81 175.7 487.91 175.56 488.69 175.8C490.29 176.28 491.36 177.2 492.37 178.27L490.94 179.12C490.17 177.19 488.9 175.18 487.07 174.27C486.15 173.83 485.07 173.61 484.2 174.1C483.29 174.57 482.75 175.68 482.44 176.79V176.8Z" fill="#1E1E1E"/>
<path d="M554.85 142.81C553.75 138.06 551.78 133.67 548.43 130.02C541.28 122.21 529.86 120.08 519.3 119.84C512.17 119.66 504.84 120.18 498.43 123.3C488.31 128.18 482.21 138.52 474.78 146.95C463.69 159.54 448.58 168.53 432.22 172.3C418.84 175.38 404.93 174.99 391.22 176.23C377.53 177.44 363.38 180.6 352.88 189.47C344.7 196.35 339.09 206.42 329.56 211.25C324.28 213.96 318.24 214.77 312.33 215.56L302.65 216.82C288.42 218.7 280.36 234.62 287.85 246.88C287.89 246.96 287.95 247.04 287.99 247.14C292.91 255.04 300.83 261.17 303.82 270C306.55 278.08 304.67 286.93 305.32 295.43C306.37 308.79 313.96 321.18 324.47 329.5C334.98 337.82 348.18 342.3 361.5 343.75C366.38 344.3 371.3 344.44 376.22 344.2C375.57 337.72 377.41 331.04 381.69 325.68C387.36 318.59 393.03 311.89 398.57 305.6C398.65 305.5 398.75 305.4 398.85 305.3L397.84 304.37C410.66 285.83 454.18 243.98 467.73 245.21C470.99 244.46 474.05 244.48 476.82 245.11C477.79 244.95 478.78 244.87 479.78 244.83C484.9 244.65 489.05 243.57 492.41 242.04C497.78 225.28 492.88 194.16 491.9 188.47C490 188.63 487.36 188.19 486.76 187.96C484.37 187.05 482.1 185.04 480.73 182.9C479.05 180.33 478.42 177.03 479.35 174.09C480.43 170.71 483.87 167.97 487.47 168.33C489.16 171.21 491.2 173.88 493.57 176.23C494.31 176.96 495.19 177.7 496.23 177.65C497.57 177.58 498.43 176.24 499.07 175.05C499.88 173.52 501.29 171.95 502.1 170.42C511.71 170.97 521.47 166.7 527.58 159.27C529.45 156.99 530.99 154.46 532.52 151.94C534.57 148.57 536.61 145.19 538.66 141.82C543.2 146.88 550.37 156.03 557.12 156.84C557.12 156.84 557.33 150.2 554.86 142.83L554.85 142.81Z" fill="#1E1E1E"/>
<path d="M231.75 600.69C228.25 601.96 225.38 602.99 223.37 603.72C218.69 601.24 214.36 600.91 212.23 600.79C210.7 600.7 210.22 601.52 210.07 602.11C209.99 602.41 210.19 602.68 210.49 602.72C211.93 602.9 214.63 603.72 214.86 604.76C215.12 605.94 203.83 607.09 203.72 608.74C203.68 609.4 211.73 608.8 211.73 608.8C211.73 608.8 203.22 611.08 203.89 612.02C204.57 612.95 212.32 611.92 212.32 611.92C212.32 611.92 204.1 615.22 205.17 615.88C206.24 616.54 212.96 614.9 212.96 614.9C210.09 616.43 209.14 617.46 208.83 618.05C208.68 618.33 208.88 618.62 209.19 618.57C212.17 618.15 217.41 615.07 220.95 612.8L220.97 612.93C225.71 613.37 230.46 613.49 235.18 613.37C233.88 609.21 232.76 604.99 231.75 600.71V600.69Z" fill="#F18665"/>
<path d="M283.37 546.2L262.62 588.97L224.15 601.88L225.67 614.79C225.67 614.79 271.22 612.01 278.56 604.67C285.9 597.33 299.82 561.9 300.32 558.36C300.83 554.82 283.36 546.21 283.36 546.21L283.37 546.2Z" fill="#4942E4"/>
<path d="M296.15 540.04C296.15 540.04 286.53 549.87 286.91 557.59C287.29 565.31 287.92 607.7 287.92 607.7L284 609.6L275.9 606.69C275.9 606.69 279.82 561.9 279.95 557.09C280.08 552.28 281.47 544.94 286.02 542.92C290.58 540.9 296.14 540.05 296.14 540.05L296.15 540.04Z" fill="#4942E4"/>
<path d="M171.5 625.8C154.41 627.97 142.73 629.55 142.73 629.55L138.94 645.84L173.17 646.23C172.29 639.45 171.77 632.64 171.49 625.8H171.5Z" fill="#F18D6E"/>
<path d="M145.11 628.81C145.11 628.81 141.46 625 139.97 621.68C138.48 618.37 139.31 603.45 131.85 604.45V638.92L134.92 641.99H131.52V648.87C131.52 648.87 139.14 651.52 143.78 649.04C143.78 649.04 139.31 644.07 141.29 638.6C143.28 633.13 145.1 628.82 145.1 628.82L145.11 628.81Z" fill="#4942E4"/>
<path d="M162.65 624.65V647.76H326.64C326.64 647.76 320.9 614.69 307.58 610.47C294.25 606.25 162.66 624.64 162.66 624.64L162.65 624.65Z" fill="#44E3A0"/>
<path d="M175.66 620.78L151.76 634.09L149.83 645.49L155.31 651.9L160.56 650.16C160.56 650.16 160.64 650.12 160.82 650.06C162.53 649.35 172.43 645.27 186.34 639.48C182.59 633.36 178.98 627.14 175.65 620.78H175.66Z" fill="#F79678"/>
<path d="M152.47 631.9C152.47 631.9 147.48 630.19 144.64 627.93C141.79 625.67 135.69 612.04 129.52 616.34L145.33 646.97L149.46 648.29L146.44 649.85L149.6 655.96C149.6 655.96 157.59 654.82 160.57 650.48C160.57 650.48 154.31 648.12 153.57 642.34C152.83 636.57 152.47 631.9 152.47 631.9Z" fill="#4942E4"/>
<path d="M162.4 626.17L172.02 645.91L232.5 621.87C232.5 621.87 302.09 660.59 320.82 653.25C339.55 645.91 340.56 609.98 332.97 605.67C325.38 601.36 283.96 607.1 283.96 607.1L281.85 608.96C281.85 608.96 240.6 591.5 230.73 592C220.86 592.51 162.4 626.16 162.4 626.16V626.17Z" fill="#44E3A0"/>
<path d="M172.78 645.15L232.75 621.62L229.46 617.57" stroke="#4942E4" stroke-miterlimit="10"/>
<path d="M288.43 647.68L232.75 621.62" stroke="#4942E4" stroke-miterlimit="10"/>
<path d="M282.1 609.21L298.55 618.07" stroke="#4942E4" stroke-miterlimit="10"/>
<path d="M302.85 614.78L287.92 612.25" stroke="#4942E4" stroke-miterlimit="10"/>
<path d="M332.55 543.82C330.57 541.96 327.9 540.99 325.18 540.89C322.67 540.8 320.64 540.27 318.99 539.51C316.25 531.01 318.9 514.96 319.25 512.92C319.27 512.85 319.27 512.78 319.29 512.71L297.28 525.09C297.65 525.71 297.85 526.54 297.95 527.51C298.15 529.48 297.87 531.98 297.47 534.25C297.02 536.8 296.43 539.06 296.17 539.97C294.38 542.14 292.01 543.26 288.83 544.98C288.87 545.8 288.82 546.65 288.65 547.54C287.7 552.66 289.37 559.84 289.14 565.16C288.86 571.37 288.66 577.52 288.71 583.73C288.77 591.47 289.1 598.84 289.66 606.31H331.38C330.18 595.2 333.01 578.65 336.13 560.41C337.69 551.29 335.31 546.41 332.54 543.81L332.55 543.82Z" fill="#F79678"/>
<path d="M297.47 534.25C309.44 535.76 315.5 521.47 315.72 520.94C313.51 524.45 310.31 526.22 307.18 527.07C303.33 528.12 299.59 527.77 298.02 527.54C298 527.54 297.97 527.54 297.95 527.52C298.15 529.48 297.87 531.98 297.47 534.25Z" fill="#F47B56"/>
<path d="M296.05 540.41C296.05 540.41 291.38 550.08 294.76 552.27C298.13 554.46 319.22 539.45 319.22 539.45C319.22 539.45 330.69 540.8 333.9 548.9C337.11 557 332.55 607.11 332.55 607.11C332.55 607.11 293.75 609.47 283.96 607.11C283.96 607.11 284.13 582.31 282.95 574.55C281.77 566.79 282.49 553.67 284.89 548.36C286.14 545.59 296.05 540.42 296.05 540.42V540.41Z" fill="white"/>
<path d="M319.56 538.86C319.56 538.86 301.59 547.21 303.36 556.32C305.13 565.43 312.98 655.78 312.98 655.78C312.98 655.78 336.52 656.54 345.37 651.98C354.23 647.42 334.23 585.68 335.25 579.86C336.26 574.04 341.58 547.97 333.98 543.16C326.39 538.35 319.56 538.86 319.56 538.86Z" fill="#4942E4"/>
<path d="M314.16 647.09C324.34 651.51 336.18 651.91 346.22 646.92C336.88 653.49 323.69 653.08 314.16 647.09Z" fill="#4942E4"/>
<path d="M255.41 563.92L257.951 561.397L243.294 546.638L240.754 549.161L255.41 563.92Z" fill="#1E1E1E"/>
<path d="M247.31 565.22C247.31 565.22 248.12 566.74 248.73 567.02C249.34 567.3 252.49 568.07 252.6 568.04C252.74 568.16 255.62 570.6 259.93 574.14C261.27 572.35 262.65 570.56 264.05 568.77C265 567.56 265.92 566.32 266.83 565.07C264.93 564.21 263.34 563.48 262.12 562.93L259.38 560.79C258.15 559.26 254.58 553.49 252.92 553.61C250.91 553.76 251.03 554.54 251.03 554.54C251.03 554.54 254.15 558.52 253.45 560.1C252.79 561.59 245.97 554.16 245.97 554.16L244.15 552.72C244.15 552.72 243.84 556.88 245.33 558.29C245.33 558.29 244.45 560.57 246.09 562.3C246.09 562.3 246.17 564.53 247.31 565.21V565.22Z" fill="#F79678"/>
<path d="M317.79 545.44L304.12 579.6L260.34 560.87C260.34 560.87 252.75 570.49 253.51 570.74C254.27 570.99 292.99 608.7 309.19 605.92C325.39 603.14 336.27 555.56 336.27 555.56L317.8 545.44H317.79Z" fill="#4942E4"/>
<path d="M308.59 606.09C308.59 606.09 313.48 605.58 316.69 601.2C319.9 596.81 331.37 573.53 331.37 573.53C331.37 573.53 325.13 613.85 308.59 606.09Z" fill="#4942E4"/>
<path d="M310.95 582.81C307.94 582.06 305.15 580.67 302.43 579.23C304.61 578.71 306.82 578.18 309.1 578.08C307.51 578.9 305.86 579.47 304.18 579.97L304.28 578.92C306.62 580.01 308.9 581.2 310.95 582.8V582.81Z" fill="#4942E4"/>
<path d="M265.74 581.63C272.19 585.61 278.16 590.22 283.62 595.46C277.17 591.49 271.21 586.87 265.74 581.63Z" fill="#4942E4"/>
<path d="M273.5 566.28C276.75 566.9 279.69 568.25 282.27 570.33C279.02 569.71 276.08 568.35 273.5 566.28Z" fill="#4942E4"/>
<path d="M311.46 553.79C312.53 548.2 317.23 541.61 323.61 542.65C317.55 543.38 314.16 548.89 311.46 553.79Z" fill="#4942E4"/>
<path d="M325.4 506.08C324.82 504.27 322.89 502.82 320.97 503.3C320.84 503.33 320.63 503.42 320.4 503.53C320.66 497.22 319.74 490.3 315.35 486.48C305.91 478.27 292.36 481.14 289.48 488.53C286.19 496.98 286.03 507.44 286.14 516.38C286.15 517.55 286.19 518.75 286.58 519.85C288.08 524.09 294.13 526.71 298.22 527.56C303.48 528.65 308.76 527.28 312.89 523.85C316.16 521.13 318.28 517.3 319.18 513.14C320.12 513.22 321.44 513 321.74 512.89C322.93 512.44 324.03 511.46 324.72 510.4C325.54 509.13 325.85 507.51 325.39 506.07L325.4 506.08Z" fill="#F79678"/>
<path d="M293.01 503.37C293.01 504.74 292.47 505.85 291.8 505.85C291.13 505.85 290.59 504.74 290.59 503.37C290.59 502 291.13 500.89 291.8 500.89C292.47 500.89 293.01 502 293.01 503.37Z" fill="#1E1E1E"/>
<path d="M302.3 505.85C302.968 505.85 303.51 504.74 303.51 503.37C303.51 502 302.968 500.89 302.3 500.89C301.632 500.89 301.09 502 301.09 503.37C301.09 504.74 301.632 505.85 302.3 505.85Z" fill="#1E1E1E"/>
<path d="M292.49 510.88C292.91 511.7 293.55 512.41 294.32 512.96C295.09 513.51 296.05 513.87 297.03 513.86C298.01 513.84 298.98 513.5 299.73 512.93C300.13 512.67 300.44 512.31 300.78 512C301.07 511.63 301.34 511.26 301.59 510.88C301.22 511.15 300.87 511.45 300.53 511.73C300.15 511.96 299.81 512.25 299.42 512.44C298.67 512.87 297.84 513.11 297.02 513.12C296.19 513.14 295.37 512.88 294.61 512.47C293.85 512.05 293.14 511.51 292.48 510.88H292.49Z" fill="#1E1E1E"/>
<path d="M295.77 515.28C296.12 515.59 296.59 515.7 297.05 515.71C297.51 515.7 297.98 515.57 298.33 515.28C297.88 515.35 297.47 515.44 297.05 515.42C296.63 515.44 296.22 515.36 295.77 515.28Z" fill="#1E1E1E"/>
<path d="M300.08 494.76C300.65 494.26 301.29 494.09 301.96 494.06C302.63 494.04 303.31 494.12 303.96 494.34C304.61 494.54 305.22 494.91 305.72 495.35C306.25 495.78 306.62 496.34 306.92 496.89C307.08 497.17 306.97 497.52 306.69 497.68C306.47 497.8 306.19 497.76 306.02 497.6L305.97 497.55C305.58 497.19 305.2 496.85 304.77 496.6C304.36 496.33 303.9 496.18 303.45 496.06C302.99 495.95 302.51 495.9 302.02 495.92C301.54 495.94 301.02 495.96 300.49 495.83L300.34 495.79C300.01 495.71 299.81 495.38 299.89 495.06C299.92 494.94 299.99 494.83 300.08 494.75V494.76Z" fill="#1E1E1E"/>
<path d="M294.02 494.76C293.45 494.26 292.81 494.09 292.14 494.06C291.47 494.04 290.79 494.12 290.14 494.34C289.49 494.54 288.88 494.91 288.38 495.35C287.85 495.78 287.48 496.34 287.18 496.89C287.02 497.17 287.13 497.52 287.41 497.68C287.63 497.8 287.91 497.76 288.08 497.6L288.13 497.55C288.52 497.19 288.9 496.85 289.33 496.6C289.74 496.33 290.19 496.18 290.65 496.06C291.11 495.95 291.59 495.9 292.08 495.92C292.56 495.94 293.08 495.96 293.61 495.83L293.76 495.79C294.09 495.71 294.29 495.38 294.21 495.06C294.18 494.94 294.11 494.83 294.02 494.75V494.76Z" fill="#1E1E1E"/>
<path d="M294.6 499.35C294.39 500.29 294.23 501.21 294.05 502.13C293.87 503.05 293.7 503.96 293.44 504.83C293.38 505.05 293.31 505.26 293.23 505.47C293.17 505.64 293.01 505.97 293.02 506.27C292.99 506.89 293.38 507.5 293.89 507.74C294.41 508.03 295 507.98 295.47 507.82C295.95 507.65 296.36 507.39 296.72 507.07C295.85 507.4 294.83 507.65 294.22 507.19C293.91 506.96 293.75 506.64 293.79 506.3C293.81 506.13 293.86 506.01 293.97 505.75C294.06 505.52 294.15 505.28 294.22 505.05C294.49 504.1 294.62 503.15 294.68 502.19C294.74 501.24 294.72 500.28 294.59 499.33L294.6 499.35Z" fill="#1E1E1E"/>
<path d="M323.98 507.19C323.99 506.62 323.84 505.99 323.33 505.55C322.8 505.11 322.03 505.15 321.46 505.37C320.85 505.58 320.34 506 319.95 506.47C319.54 506.95 319.25 507.46 319.01 508.06C318.92 508.27 319.03 508.51 319.24 508.6C319.4 508.66 319.58 508.62 319.69 508.51L319.72 508.48C320.12 508.07 320.63 507.63 321.11 507.5C321.35 507.44 321.53 507.45 321.69 507.56C321.86 507.68 321.99 507.94 322.11 508.2C322.32 508.74 322.45 509.38 321.98 509.63C321.49 509.91 320.78 509.84 320.14 509.76C320.74 510.02 321.4 510.25 322.16 510.03C322.54 509.91 322.85 509.47 322.87 509.08C322.91 508.69 322.85 508.33 322.75 507.98C322.65 507.63 322.5 507.27 322.16 506.97C321.82 506.66 321.27 506.59 320.89 506.71C320.1 506.95 319.57 507.4 319.08 507.93L319.79 508.35C320.17 507.4 320.79 506.41 321.7 505.96C322.15 505.74 322.68 505.64 323.11 505.87C323.56 506.1 323.83 506.65 323.98 507.19Z" fill="#1E1E1E"/>
<path d="M326.36 497.02C325.63 494.71 324.52 492.06 322.13 491.65C323.04 489.65 323.02 487.24 322.07 485.23C321.24 483.51 319.76 482.13 318.16 481.08C315.93 479.6 313.38 478.61 310.73 478.23C306.68 477.64 302.55 478.43 298.54 479.22C296.45 479.63 293.84 479.97 291.76 480.37C289.67 478.73 286.37 479.6 284.69 481.65C282.99 483.69 282.58 486.53 282.65 489.18C282.79 494.42 284.47 499.46 286.38 504.36C286.51 502.33 286.75 500.31 287.04 498.31C287.77 496.13 289.05 494.12 290.65 492.47C295.71 497.59 303.81 499.43 310.59 497C310.8 498.69 311.22 500.21 311.9 501.77C312.7 503.62 314.04 505.49 316.03 505.86C316.89 506.02 317.96 505.75 318.26 504.92C318.53 504.17 320.42 503.44 320.42 503.52C320.64 503.42 320.85 503.34 320.99 503.3C322.91 502.81 324.84 504.27 325.4 506.07C325.87 507.51 325.56 509.15 324.73 510.4C324.04 511.45 322.95 512.44 321.75 512.89C321.45 513.01 320.13 513.23 319.18 513.15C318.71 515.34 317.9 517.44 316.75 519.32C318.39 519.5 320.07 519.4 321.53 518.63C323.6 517.54 324.79 515.33 325.8 513.22C326.71 511.34 327.56 509.43 327.89 507.39C328.44 503.91 327.42 500.39 326.37 497L326.36 497.02Z" fill="#1E1E1E"/>
<path d="M267.63 240.23C263.71 235.58 257.92 232.47 251.83 232.44C244.62 232.4 236.99 236 230.51 232.84C221.83 228.6 221.12 214.94 212.3 211C206.15 208.25 199.19 211.59 192.57 212.84C181.33 214.98 169.08 210.43 161.95 201.48C159.19 198.02 157.16 193.98 154.03 190.86C148.19 185.02 138.96 183.23 131.03 185.52C123.1 187.81 116.52 193.81 112.55 201.04C109.48 206.64 107.22 213.6 101.31 215.99C94.53 218.74 86.46 213.85 79.66 216.55C74.78 218.49 72.05 223.97 71.8 229.22C71.62 232.96 72.46 236.62 73.58 240.22H267.63V240.23Z" fill="#FDFEFE"/>
<path d="M936.35 317.3C935.05 314.03 931.84 311.4 928.65 310.37C923.97 308.87 918.83 309.22 914.47 306.77C909.59 304.02 905.65 297.83 900.24 298.43C895.89 298.91 892.75 303.76 888.47 304.73C879.6 306.74 873.71 291.9 864.67 291.9C859.28 291.9 854.79 297.31 849.4 297.51C842.42 297.76 837.81 289.7 833.55 283.36C827.23 273.97 816.28 266.14 806.92 271.2C800.7 274.56 797.52 282.37 794.13 289.23C790.74 296.09 785.6 303.22 778.72 303.23C771.49 303.24 764.21 295.27 757.91 299.34C754.95 301.26 753.52 305.41 753.54 309.31C753.55 312.05 754.16 314.71 754.93 317.31H936.37L936.35 317.3Z" fill="#FDFEFE"/>
<path d="M287.73 138.07H201.57C200.007 138.07 198.74 139.337 198.74 140.9V192.14C198.74 193.703 200.007 194.97 201.57 194.97H287.73C289.293 194.97 290.56 193.703 290.56 192.14V140.9C290.56 139.337 289.293 138.07 287.73 138.07Z" fill="url(#paint0_linear_69_200)"/>
<path d="M203.21 154.88C203.13 154.88 203.06 154.81 203.06 154.73V143.09C203.06 143.01 203.13 142.94 203.21 142.94H212.01C212.09 142.94 212.16 143.01 212.16 143.09C212.16 143.17 212.09 143.24 212.01 143.24H203.36V154.73C203.36 154.81 203.29 154.88 203.21 154.88Z" fill="#1E1E1E" stroke="#1E1E1E" stroke-width="3" stroke-miterlimit="10"/>
<path d="M286.09 154.88C286.01 154.88 285.94 154.81 285.94 154.73V143.24H277.29C277.21 143.24 277.14 143.17 277.14 143.09C277.14 143.01 277.21 142.94 277.29 142.94H286.09C286.17 142.94 286.24 143.01 286.24 143.09V154.73C286.24 154.81 286.17 154.88 286.09 154.88Z" fill="#1E1E1E" stroke="#1E1E1E" stroke-width="3" stroke-miterlimit="10"/>
<path d="M212.01 190.08H203.21C203.13 190.08 203.06 190.01 203.06 189.93V178.74C203.06 178.66 203.13 178.59 203.21 178.59C203.29 178.59 203.36 178.66 203.36 178.74V189.79H212.01C212.09 189.79 212.16 189.86 212.16 189.94C212.16 190.02 212.09 190.09 212.01 190.09V190.08Z" fill="#1E1E1E" stroke="#1E1E1E" stroke-width="3" stroke-miterlimit="10"/>
<path d="M286.09 190.08H277.29C277.21 190.08 277.14 190.01 277.14 189.93C277.14 189.85 277.21 189.78 277.29 189.78H285.94V178.73C285.94 178.65 286.01 178.58 286.09 178.58C286.17 178.58 286.24 178.65 286.24 178.73V189.92C286.24 190 286.17 190.07 286.09 190.07V190.08Z" fill="#1E1E1E" stroke="#1E1E1E" stroke-width="3" stroke-miterlimit="10"/>
<path d="M244.65 184.17C254.398 184.17 262.3 176.268 262.3 166.52C262.3 156.772 254.398 148.87 244.65 148.87C234.902 148.87 227 156.772 227 166.52C227 176.268 234.902 184.17 244.65 184.17Z" fill="#1E1E1E"/>
<path d="M237.78 173.86V159.17L251.52 165.18L237.78 173.86Z" fill="white"/>
<path d="M715.28 163.91C715.22 164.08 723.63 167.18 734.05 170.83C744.48 174.48 752.98 177.3 753.04 177.12C753.1 176.95 744.7 173.85 734.27 170.2C723.84 166.55 715.34 163.74 715.28 163.91Z" stroke="#4942E4" stroke-width="3" stroke-miterlimit="10"/>
<path d="M711.89 144.19C711.92 144.37 725.33 142.5 741.85 140.01C758.37 137.52 771.74 135.35 771.71 135.17C771.68 134.99 758.27 136.86 741.75 139.35C725.23 141.84 711.86 144.01 711.89 144.19Z" stroke="#4942E4" stroke-width="3" stroke-miterlimit="10"/>
<path d="M708.9 123.95C709.02 124.09 713.72 119.89 719.4 114.58C725.07 109.27 729.57 104.85 729.45 104.72C729.33 104.58 724.63 108.78 718.95 114.09C713.28 119.4 708.78 123.81 708.9 123.95Z" stroke="#4942E4" stroke-width="3" stroke-miterlimit="10"/>
<path d="M226.59 256.7C212.41 247.96 203.58 265.01 203.52 265.12C203.47 265.02 194.63 247.97 180.45 256.7C164.17 266.74 180.08 298.44 203.51 306.13C226.94 298.44 242.86 266.74 226.57 256.7H226.59Z" fill="#44E3A0"/>
<path d="M132.48 165.17C138.36 165.89 144.32 165.93 150.21 165.28C151.63 165.12 153.09 164.91 154.3 164.15C155.51 163.4 156.4 162.09 156.09 160.7C157.16 160.69 158.04 159.88 158.8 159.13C159.11 158.82 159.43 158.51 159.62 158.11C159.84 157.66 159.88 157.13 159.85 156.63C159.77 155.03 159.02 153.55 157.63 152.77C158.9 152.39 159.96 151.35 160.34 150.07C160.72 148.8 160.43 147.34 159.58 146.32C159.02 145.65 158.34 145.31 157.52 144.98C158.1 144.46 158.91 144.2 159.36 143.57C159.99 142.69 159.65 141.39 158.85 140.66C158.06 139.93 156.94 139.67 155.87 139.57C153.91 139.39 151.95 139.65 149.98 139.73C148.02 139.8 145.89 139.44 144.15 138.53C143.77 135.94 144.39 133.23 143.7 130.71C142.85 127.61 139.89 125.21 136.68 125.03C136.07 124.99 135.38 125.07 134.98 125.54C134.69 125.89 134.64 126.37 134.64 126.83C134.63 128.92 135.42 130.92 135.9 132.96C136.38 135 136.5 137.3 135.31 139.02C134.84 139.69 134.2 140.24 133.82 140.96C133.3 141.96 133.34 143.15 133.07 144.24C132.8 145.33 131.94 146.48 130.82 146.37L132.48 165.17Z" fill="white"/>
<path d="M131.52 140.92H124.5C123.953 140.92 123.51 141.363 123.51 141.91V166.37C123.51 166.917 123.953 167.36 124.5 167.36H131.52C132.067 167.36 132.51 166.917 132.51 166.37V141.91C132.51 141.363 132.067 140.92 131.52 140.92Z" fill="white"/>
<path d="M127.79 145.31C128.398 145.31 128.89 144.817 128.89 144.21C128.89 143.602 128.398 143.11 127.79 143.11C127.182 143.11 126.69 143.602 126.69 144.21C126.69 144.817 127.182 145.31 127.79 145.31Z" fill="white"/>
<path d="M852.06 204.73H784.22C779.73 204.73 776.09 208.37 776.09 212.86V256.59C776.09 261.08 779.73 264.72 784.22 264.72H804.41L810.79 275.77L818.14 288.5L825.49 275.77L831.87 264.72H852.06C856.55 264.72 860.19 261.08 860.19 256.59V212.86C860.19 208.37 856.55 204.73 852.06 204.73Z" fill="#4942E4"/>
<path d="M812.73 254.25C818.61 254.97 824.57 255.01 830.46 254.36C831.88 254.2 833.34 253.99 834.55 253.23C835.76 252.47 836.65 251.17 836.34 249.78C837.41 249.77 838.29 248.96 839.05 248.21C839.36 247.9 839.68 247.59 839.87 247.19C840.09 246.74 840.13 246.21 840.1 245.71C840.02 244.11 839.27 242.63 837.88 241.85C839.15 241.47 840.21 240.43 840.59 239.15C840.97 237.88 840.68 236.42 839.83 235.4C839.27 234.73 838.59 234.39 837.77 234.06C838.35 233.54 839.16 233.28 839.61 232.65C840.24 231.77 839.9 230.47 839.1 229.74C838.31 229.01 837.19 228.75 836.12 228.65C834.16 228.47 832.2 228.73 830.23 228.81C828.27 228.88 826.14 228.52 824.4 227.61C824.02 225.02 824.64 222.31 823.95 219.79C823.1 216.69 820.14 214.29 816.93 214.11C816.32 214.08 815.63 214.15 815.23 214.62C814.94 214.97 814.89 215.45 814.89 215.91C814.88 218 815.67 220 816.15 222.04C816.63 224.08 816.75 226.38 815.56 228.1C815.1 228.77 814.45 229.32 814.07 230.04C813.55 231.04 813.59 232.23 813.32 233.32C813.05 234.41 812.19 235.56 811.07 235.45L812.73 254.25Z" fill="white"/>
<path d="M811.77 230H804.75C804.203 230 803.76 230.443 803.76 230.99V255.45C803.76 255.997 804.203 256.44 804.75 256.44H811.77C812.317 256.44 812.76 255.997 812.76 255.45V230.99C812.76 230.443 812.317 230 811.77 230Z" fill="white"/>
<path d="M809.14 233.29C809.14 233.9 808.65 234.39 808.04 234.39C807.43 234.39 806.94 233.9 806.94 233.29C806.94 232.68 807.43 232.19 808.04 232.19C808.65 232.19 809.14 232.68 809.14 233.29Z" fill="white"/>
</g>
<defs>
<linearGradient id="paint0_linear_69_200" x1="249.7" y1="138.94" x2="274.49" y2="3.74008" gradientUnits="userSpaceOnUse">
<stop stop-color="#4C57A6"/>
<stop offset="1" stop-color="#5560AB"/>
</linearGradient>
<clipPath id="clip0_69_200">
<rect width="993.26" height="655.96" fill="white"/>
</clipPath>
</defs>
</svg>
