<svg width="873" height="569" viewBox="0 0 873 569" fill="none" xmlns="http://www.w3.org/2000/svg">
<g clip-path="url(#clip0_9_54)">
<path d="M400.447 193.117C434.129 188.299 466.063 174.991 493.616 154.819C534.771 124.687 620.881 73.4311 703.026 98.9681C816.328 134.185 816.841 236.081 787.319 291.427C757.812 346.774 548.513 508.849 277.175 483.06C34.3748 459.974 -12.9374 195.821 116.561 148.025C228.879 106.561 267.191 212.197 400.447 193.117Z" fill="#4942E4"/>
<g opacity="0.06">
<path d="M681.353 395.97C681.353 395.97 698.297 388.14 704.912 401.742C711.526 415.344 687.329 429.296 674.17 425.29C660.997 421.283 663.313 401.238 681.353 395.97Z" fill="black"/>
</g>
<g opacity="0.06">
<path d="M413.801 150.714C413.801 150.714 432.243 144.873 437.304 159.736C442.365 174.598 415.686 185.791 402.652 179.936C389.618 174.094 394.568 153.768 413.801 150.7V150.714Z" fill="black"/>
</g>
<path d="M347.284 4.79081V105.412C347.284 108.059 345.163 110.189 342.556 110.189H173.968C171.347 110.189 169.24 108.045 169.24 105.412V4.7768C169.226 2.14326 171.347 0 173.968 0H342.556C345.176 0 347.284 2.14326 347.284 4.79081Z" fill="#FFFEFE"/>
<path d="M243.619 61.7903C243.619 69.9571 240.554 77.4094 235.534 83.0267C229.794 89.4565 221.488 93.4909 212.239 93.4909C194.906 93.4909 180.859 79.3006 180.859 61.7903C180.859 57.4477 181.719 53.3153 183.286 49.5331L212.239 61.7903L210.755 30.1317C211.241 30.1037 211.74 30.0897 212.239 30.0897C229.572 30.0897 243.619 44.28 243.619 61.7903Z" fill="#8696FE"/>
<path d="M207.635 24.9066C198.262 25.3409 189.969 29.9356 184.506 36.9117C182.745 39.153 181.289 41.6464 180.18 44.322L209.119 56.5652L207.635 24.9066Z" fill="#44E3A0"/>
<path d="M319.149 39.9655H314.836V44.322H319.149V39.9655Z" fill="#4942E4"/>
<path d="M337.494 41.5904H322.047C322.024 41.5904 322.005 41.6092 322.005 41.6324V42.641C322.005 42.6642 322.024 42.6831 322.047 42.6831H337.494C337.517 42.6831 337.536 42.6642 337.536 42.641V41.6324C337.536 41.6092 337.517 41.5904 337.494 41.5904Z" fill="#C7B7DA"/>
<path d="M319.149 32.2049H314.836V36.5615H319.149V32.2049Z" fill="#4942E4"/>
<path d="M337.494 33.8299H322.047C322.024 33.8299 322.005 33.8487 322.005 33.8719V34.8805C322.005 34.9037 322.024 34.9225 322.047 34.9225H337.494C337.517 34.9225 337.536 34.9037 337.536 34.8805V33.8719C337.536 33.8487 337.517 33.8299 337.494 33.8299Z" fill="#C7B7DA"/>
<path d="M319.149 47.712H314.836V52.0686H319.149V47.712Z" fill="#44E3A0"/>
<path d="M337.494 49.351H322.047C322.024 49.351 322.005 49.3698 322.005 49.393V50.4016C322.005 50.4248 322.024 50.4436 322.047 50.4436H337.494C337.517 50.4436 337.536 50.4248 337.536 50.4016V49.393C337.536 49.3698 337.517 49.351 337.494 49.351Z" fill="#C7B7DA"/>
<path d="M336.995 65.7126H315.377C315.086 65.7126 314.836 65.4744 314.836 65.1663C314.836 64.8721 315.072 64.6199 315.377 64.6199H336.995C337.286 64.6199 337.536 64.8581 337.536 65.1663C337.536 65.4604 337.3 65.7126 336.995 65.7126Z" fill="#C7B7DA"/>
<path d="M336.995 70.1812H315.377C315.086 70.1812 314.836 69.9431 314.836 69.6349C314.836 69.3407 315.072 69.0886 315.377 69.0886H336.995C337.286 69.0886 337.536 69.3267 337.536 69.6349C337.536 69.929 337.3 70.1812 336.995 70.1812Z" fill="#C7B7DA"/>
<path d="M336.995 74.6638H315.377C315.086 74.6638 314.836 74.4257 314.836 74.1175C314.836 73.8233 315.072 73.5712 315.377 73.5712H336.995C337.286 73.5712 337.536 73.8093 337.536 74.1175C337.536 74.4117 337.3 74.6638 336.995 74.6638Z" fill="#C7B7DA"/>
<path d="M336.995 79.1325H315.377C315.086 79.1325 314.836 78.8943 314.836 78.5861C314.836 78.292 315.072 78.0398 315.377 78.0398H336.995C337.286 78.0398 337.536 78.2779 337.536 78.5861C337.536 78.8803 337.3 79.1325 336.995 79.1325Z" fill="#C7B7DA"/>
<path d="M336.995 83.6151H315.377C315.086 83.6151 314.836 83.3769 314.836 83.0688C314.836 82.7746 315.072 82.5224 315.377 82.5224H336.995C337.286 82.5224 337.536 82.7606 337.536 83.0688C337.536 83.3629 337.3 83.6151 336.995 83.6151Z" fill="#C7B7DA"/>
<path d="M336.995 88.0837H315.377C315.086 88.0837 314.836 87.8456 314.836 87.5374C314.836 87.2432 315.072 86.9911 315.377 86.9911H336.995C337.286 86.9911 337.536 87.2292 337.536 87.5374C337.536 87.8316 337.3 88.0837 336.995 88.0837Z" fill="#C7B7DA"/>
<path d="M336.995 92.5663H315.377C315.086 92.5663 314.836 92.3282 314.836 92.02C314.836 91.7258 315.072 91.4737 315.377 91.4737H336.995C337.286 91.4737 337.536 91.7118 337.536 92.02C337.536 92.3142 337.3 92.5663 336.995 92.5663Z" fill="#C7B7DA"/>
<path d="M347.284 4.79081V13.1817H169.225V4.7768C169.225 2.14326 171.347 0 173.968 0H342.555C345.176 0 347.284 2.14326 347.284 4.79081Z" fill="#1E1E1E"/>
<path d="M328.522 6.59787C328.522 7.81659 327.538 8.81117 326.332 8.81117C325.125 8.81117 324.141 7.81659 324.141 6.59787C324.141 5.37916 325.125 4.38457 326.332 4.38457C327.538 4.38457 328.522 5.37916 328.522 6.59787Z" fill="#44E3A0"/>
<path d="M335.636 6.59787C335.636 7.81659 334.651 8.81117 333.445 8.81117C332.239 8.81117 331.254 7.81659 331.254 6.59787C331.254 5.37916 332.239 4.38457 333.445 4.38457C334.651 4.38457 335.636 5.37916 335.636 6.59787Z" fill="#8696FE"/>
<path d="M342.444 6.59787C342.444 7.81659 341.46 8.81117 340.253 8.81117C339.047 8.81117 338.062 7.81659 338.062 6.59787C338.062 5.37916 339.047 4.38457 340.253 4.38457C341.46 4.38457 342.444 5.37916 342.444 6.59787Z" fill="#4942E4"/>
<path d="M243.619 61.7903C243.619 69.9571 240.554 77.4094 235.534 83.0267L212.239 61.7903L210.755 30.1317C211.241 30.1037 211.74 30.0897 212.239 30.0897C229.572 30.0897 243.619 44.28 243.619 61.7903Z" fill="#4942E4"/>
<path d="M284.15 53.7776H274.166V97.021H284.15V53.7776Z" fill="#8696FE"/>
<path d="M274.166 85.6183C277.702 84.5116 281.03 82.5364 284.15 80.4072V97.021H274.166V85.6183Z" fill="#4942E4"/>
<path d="M267.815 65.7966H257.832V97.021H267.815V65.7966Z" fill="#8696FE"/>
<path d="M265.971 86.3467C266.595 86.4447 267.205 86.5008 267.815 86.5148V97.021H257.832V86.6128C259.593 86.0245 262.186 85.7864 265.971 86.3467Z" fill="#4942E4"/>
<path d="M300.471 40.862H290.487V97.021H300.471V40.862Z" fill="#8696FE"/>
<path d="M300.485 71.6381V97.021H290.501V75.9526C294.051 73.5152 297.365 71.624 300.485 71.6381Z" fill="#4942E4"/>
<path d="M300.082 24.4864L291.069 26.4335L293.496 28.8289L279.699 43.0473L274.859 38.2424L257.734 55.8788C257.083 56.5512 257.097 57.6298 257.762 58.2882C258.428 58.9466 259.495 58.9326 260.147 58.2602L274.915 43.0613L279.754 47.8661L295.922 31.2103L298.349 33.6057L300.11 24.4584L300.082 24.4864Z" fill="#8696FE"/>
<path d="M266.581 314.485V144.033C266.581 141.427 264.487 139.312 261.908 139.312H176.519C173.94 139.312 171.846 141.427 171.846 144.033V314.485C171.846 319.752 176.075 324.038 181.303 324.038H257.138C262.352 324.038 266.595 319.766 266.595 314.485H266.581Z" fill="#FFFEFE"/>
<path d="M252.396 268.762H189.29C188.139 268.762 187.21 267.823 187.21 266.661C187.21 265.498 188.139 264.559 189.29 264.559H252.396C253.547 264.559 254.476 265.498 254.476 266.661C254.476 267.823 253.547 268.762 252.396 268.762Z" fill="#C7B7DA"/>
<path d="M252.396 282.098H189.29C188.139 282.098 187.21 281.159 187.21 279.996C187.21 278.834 188.139 277.895 189.29 277.895H252.396C253.547 277.895 254.476 278.834 254.476 279.996C254.476 281.159 253.547 282.098 252.396 282.098Z" fill="#C7B7DA"/>
<path d="M252.396 295.433H189.29C188.139 295.433 187.21 294.495 187.21 293.332C187.21 292.17 188.139 291.231 189.29 291.231H252.396C253.547 291.231 254.476 292.17 254.476 293.332C254.476 294.495 253.547 295.433 252.396 295.433Z" fill="#C7B7DA"/>
<path d="M252.396 308.769H189.29C188.139 308.769 187.21 307.831 187.21 306.668C187.21 305.505 188.139 304.567 189.29 304.567H252.396C253.547 304.567 254.476 305.505 254.476 306.668C254.476 307.831 253.547 308.769 252.396 308.769Z" fill="#C7B7DA"/>
<path d="M266.581 144.033V157.116H171.846V144.033C171.846 141.427 173.94 139.312 176.519 139.312H261.908C264.487 139.312 266.581 141.427 266.581 144.033Z" fill="#1E1E1E"/>
<path d="M243.646 147.352C243.646 149.076 242.274 150.462 240.568 150.462C238.862 150.462 237.49 149.076 237.49 147.352C237.49 145.629 238.862 144.243 240.568 144.243C242.274 144.243 243.646 145.629 243.646 147.352Z" fill="#44E3A0"/>
<path d="M253.63 147.352C253.63 149.076 252.257 150.462 250.552 150.462C248.846 150.462 247.473 149.076 247.473 147.352C247.473 145.629 248.846 144.243 250.552 144.243C252.257 144.243 253.63 145.629 253.63 147.352Z" fill="#4942E4"/>
<path d="M263.184 147.352C263.184 149.076 261.811 150.462 260.106 150.462C258.4 150.462 257.027 149.076 257.027 147.352C257.027 145.629 258.4 144.243 260.106 144.243C261.811 144.243 263.184 145.629 263.184 147.352Z" fill="#8696FE"/>
<path d="M201.257 230.071H190.607V256.084H201.257V230.071Z" fill="#4942E4"/>
<path d="M216.967 211.594H206.318V256.07H216.967V211.594Z" fill="#8696FE"/>
<path d="M234.37 197.964H223.72V256.084H234.37V197.964Z" fill="#44E3A0"/>
<path d="M251.425 181.967H240.776V256.07H251.425V181.967Z" fill="#4942E4"/>
<path d="M231.791 170.578L239.167 173.31L238.322 164.569L231.791 170.578Z" fill="#1E1E1E"/>
<path d="M187.668 217.436C187.349 217.436 187.044 217.24 186.919 216.917C186.766 216.497 186.974 216.035 187.39 215.881C187.709 215.755 219.782 203.343 235.424 169.99C235.618 169.584 236.089 169.415 236.491 169.612C236.893 169.808 237.06 170.284 236.866 170.69C220.933 204.66 188.278 217.282 187.959 217.408C187.862 217.436 187.779 217.464 187.682 217.464L187.668 217.436Z" fill="#1E1E1E"/>
<path d="M381.159 6.58386V33.1855C381.159 36.7015 383.988 39.5592 387.468 39.5592H435.28L449.715 44.7843C451.198 45.3166 452.613 43.8457 452.044 42.3749L446.581 28.1285V6.58386C446.581 3.0678 443.752 0.210121 440.272 0.210121H387.454C383.974 0.210121 381.145 3.0678 381.145 6.58386H381.159Z" fill="#8696FE"/>
<path d="M422.689 20.6481C422.689 23.1976 424.727 25.2568 427.251 25.2568C429.775 25.2568 431.813 23.1976 431.813 20.6481C431.813 18.0986 429.775 16.0394 427.251 16.0394C424.727 16.0394 422.689 18.0986 422.689 20.6481Z" fill="#4942E4"/>
<path d="M408.254 20.6481C408.254 23.1976 410.292 25.2568 412.816 25.2568C415.34 25.2568 417.378 23.1976 417.378 20.6481C417.378 18.0986 415.34 16.0394 412.816 16.0394C410.292 16.0394 408.254 18.0986 408.254 20.6481Z" fill="#4942E4"/>
<path d="M393.819 20.6481C393.819 23.1976 395.858 25.2568 398.381 25.2568C400.905 25.2568 402.943 23.1976 402.943 20.6481C402.943 18.0986 400.905 16.0394 398.381 16.0394C395.858 16.0394 393.819 18.0986 393.819 20.6481Z" fill="#4942E4"/>
<path d="M536.546 8.62907H513.777C512.315 8.62907 511.129 9.82696 511.129 11.3046V34.3061C511.129 35.7838 512.315 36.9817 513.777 36.9817H536.546C538.009 36.9817 539.194 35.7838 539.194 34.3061V11.3046C539.194 9.82696 538.009 8.62907 536.546 8.62907Z" fill="#44E3A0"/>
<path d="M533.093 16.978C533.052 16.7819 532.996 16.5857 532.955 16.3896C532.788 15.7032 532.455 15.1009 531.998 14.5545C531.665 14.1763 531.291 13.8401 530.861 13.588C530.264 13.2378 529.599 13.3919 529.155 13.9242C528.379 14.8767 527.588 15.8293 526.826 16.7959C526.354 17.3842 526.423 18.1967 527.02 18.715C527.436 19.0932 527.879 19.4434 528.323 19.8076C528.379 19.8497 528.448 19.8917 528.49 19.9197C527.45 22.7353 525.689 24.9206 523.165 26.4896C522.86 26.2374 522.541 25.9572 522.222 25.6911C522.056 25.551 521.889 25.4109 521.723 25.2848C521.21 24.8926 520.627 24.8506 520.1 25.2008C519.934 25.3129 519.795 25.481 519.671 25.635C518.963 26.5036 518.27 27.3721 517.563 28.2266C517.341 28.4927 517.202 28.8009 517.147 29.1511L517.188 29.5293C517.313 29.7395 517.396 30.0056 517.563 30.1737C517.979 30.594 518.436 30.9582 518.977 31.2103C519.615 31.5045 520.281 31.6726 520.974 31.6166C521.432 31.5745 521.889 31.4765 522.333 31.3504C523.47 31.0282 524.524 30.4819 525.494 29.8095C526.465 29.1511 527.353 28.3807 528.157 27.5262C529.252 26.3775 530.223 25.1308 531.11 23.8C531.804 22.7634 532.4 21.6707 532.802 20.466C532.996 19.8637 533.135 19.2473 533.176 18.6029C533.19 18.3508 533.204 18.0846 533.204 17.8325L533.121 16.95L533.093 16.978Z" fill="#FFFEFE"/>
<path d="M577.882 8.12477H554.128C552.819 8.12477 551.757 9.19723 551.757 10.5202V34.5163C551.757 35.8392 552.819 36.9117 554.128 36.9117H577.882C579.191 36.9117 580.253 35.8392 580.253 34.5163V10.5202C580.253 9.19723 579.191 8.12477 577.882 8.12477Z" fill="#8696FE"/>
<path d="M575.094 21.9789C575.094 25.565 573.098 27.4281 570.726 27.4281C569.326 27.4281 568.314 26.8818 567.787 25.7891C567.26 26.8257 566.372 27.4281 564.958 27.4281C562.947 27.4281 561.02 25.6491 561.02 22.7494C561.02 19.8497 562.892 18.0846 564.958 18.0846C565.943 18.0846 566.705 18.4068 567.246 19.0092V18.2527H570.824V23.6319C570.824 24.4163 571.142 24.6685 571.545 24.6685C572.072 24.6685 572.487 24.1362 572.487 22.0349C572.487 18.6309 569.978 16.2355 566.151 16.2355C562.323 16.2355 559.772 18.9391 559.772 22.5112C559.772 26.0833 562.282 28.8289 566.081 28.8289C567.315 28.8289 568.577 28.5908 569.839 28.0024L570.616 30.3138C569.506 30.8601 567.731 31.2103 566.081 31.2103C560.479 31.2103 556.888 27.4281 556.888 22.5112C556.888 17.5943 560.479 13.8541 566.151 13.8541C571.503 13.8541 575.094 17.4823 575.094 21.9929V21.9789ZM567.315 22.7494C567.315 21.6287 566.733 21.0404 565.97 21.0404C565.208 21.0404 564.653 21.6287 564.653 22.7494C564.653 23.87 565.208 24.4724 565.97 24.4724C566.733 24.4724 567.315 23.884 567.315 22.7494Z" fill="#FFFEFE"/>
<path d="M616.278 8.12477H592.524C591.215 8.12477 590.153 9.19723 590.153 10.5202V34.5163C590.153 35.8392 591.215 36.9117 592.524 36.9117H616.278C617.587 36.9117 618.649 35.8392 618.649 34.5163V10.5202C618.649 9.19723 617.587 8.12477 616.278 8.12477Z" fill="#4942E4"/>
<path d="M605.878 29.1511V31.1963L603.285 31.1683V29.2071C601.468 29.0811 599.707 28.5628 598.612 27.8764L600.026 24.7105C601.233 25.4389 602.827 25.9152 604.242 25.9292C605.462 25.9292 605.906 25.6911 605.906 25.2428C605.906 23.6179 598.834 24.8646 598.875 20.0598C598.889 17.9726 600.401 16.2355 603.41 15.8293V13.8121L606.003 13.8401V15.8153C607.334 15.9554 608.651 16.3196 609.691 16.9219L608.374 20.0738C607.112 19.4154 605.933 19.0932 604.824 19.0792C603.562 19.0792 603.16 19.4294 603.16 19.8777C603.16 21.4326 610.232 20.1999 610.19 24.9627C610.176 26.9518 608.734 28.6748 605.906 29.1511H605.878Z" fill="#FFFEFE"/>
<g opacity="0.06">
<path d="M696.522 542.188C696.522 546.237 736.028 549.515 784.754 549.515C833.481 549.515 872.986 546.237 872.986 542.188C872.986 538.14 833.481 534.862 784.754 534.862C736.028 534.862 696.522 538.14 696.522 542.188Z" fill="black"/>
</g>
<path d="M841.412 470.746H731.41C730.713 470.746 730.148 471.317 730.148 472.021V478.479C730.148 479.183 730.713 479.754 731.41 479.754H841.412C842.109 479.754 842.674 479.183 842.674 478.479V472.021C842.674 471.317 842.109 470.746 841.412 470.746Z" fill="#3D2027"/>
<path d="M837.724 370.98H734.863C733.155 370.98 731.771 372.378 731.771 374.104V386.879C731.771 388.604 733.155 390.003 734.863 390.003H837.724C839.432 390.003 840.816 388.604 840.816 386.879V374.104C840.816 372.378 839.432 370.98 837.724 370.98Z" fill="#8C5D55"/>
<path d="M787.32 321.503H797.317C797.317 321.503 797.803 320.494 798.662 318.659C799.078 317.791 799.564 316.74 800.132 315.521C801.56 312.467 803.419 308.377 805.582 303.544C805.596 303.502 805.623 303.46 805.637 303.418C819.115 273.146 843.298 214.368 833.412 202.671C822.18 189.391 808.771 209.283 799.023 246.923C798.357 249.514 797.706 252.176 797.068 254.922C793.573 270.093 790.661 287.673 788.651 306.808C788.346 309.68 788.068 312.579 787.805 315.507C787.625 317.482 787.458 319.486 787.306 321.503H787.32Z" fill="#8696FE"/>
<path d="M787.819 315.521L790.828 321.517H797.317C797.317 321.517 797.803 320.508 798.662 318.673L799.023 246.937C794.1 265.932 790.121 289.466 787.819 315.521Z" fill="#4942E4"/>
<path d="M790.467 321.503H792.104L823.594 217.282C823.719 216.861 823.483 216.427 823.081 216.301C822.665 216.175 822.235 216.413 822.11 216.833L790.481 321.503H790.467Z" fill="#FFFEFE"/>
<path d="M761.764 300.35C762.499 302.031 763.22 303.642 763.899 305.169C765.743 309.288 767.366 312.804 768.614 315.507C770.375 319.303 771.429 321.503 771.429 321.503H781.426C781.274 319.5 781.107 317.496 780.927 315.507C780.678 312.72 780.414 309.946 780.123 307.214C778.182 288.527 775.367 271.311 771.997 256.364C771.47 254.053 770.943 251.784 770.389 249.585C760.599 210.221 746.83 189.069 735.334 202.657C725.767 213.962 748.078 269.322 761.75 300.336L761.764 300.35Z" fill="#8696FE"/>
<path d="M780.927 315.521L777.918 321.517H771.429C771.429 321.517 770.943 320.508 770.084 318.673L769.723 246.937C774.646 265.932 778.625 289.466 780.927 315.521Z" fill="#4942E4"/>
<path d="M778.279 321.503H776.642L745.152 217.282C745.027 216.861 745.263 216.427 745.665 216.301C746.081 216.175 746.511 216.413 746.636 216.833L778.265 321.503H778.279Z" fill="#FFFEFE"/>
<path d="M772.011 256.378C773.412 276.312 775.353 294.943 776.74 307.13C777.752 316.039 778.473 321.503 778.473 321.503H787.32C788.36 316.502 789.302 311.543 790.19 306.654C793.462 288.457 795.723 271.031 797.068 254.936C802.24 193.243 794.128 151.303 779.249 162.467C768.572 170.48 769.182 216.063 772.011 256.392V256.378Z" fill="#8696FE"/>
<path d="M763.899 305.169C765.744 309.288 767.366 312.804 768.614 315.507C770.375 319.303 771.429 321.503 771.429 321.503H797.317C797.317 321.503 797.803 320.494 798.662 318.659C799.078 317.791 799.564 316.74 800.132 315.521C801.56 312.467 803.418 308.377 805.582 303.544C802.406 304.469 796.887 305.87 790.204 306.654C789.705 306.71 789.192 306.766 788.665 306.822C785.975 307.088 783.104 307.242 780.137 307.228C779.014 307.228 777.89 307.2 776.739 307.144C772.538 306.934 768.184 306.332 763.899 305.183V305.169Z" fill="#4942E4"/>
<path d="M783.659 181.729L784.713 321.517H786.28L785.226 181.729C785.226 181.294 784.865 180.958 784.435 180.944C784.006 180.944 783.659 181.308 783.659 181.743V181.729Z" fill="#FFFEFE"/>
<path d="M739.203 320.424L740.493 323.898L741.311 326.097L743.654 332.387L744.472 334.586L746.885 341.044L747.703 343.243L758.048 370.98H814.525L824.87 343.243L825.688 341.044L828.101 334.586L828.919 332.387L831.262 326.097L832.08 323.898L833.37 320.424C834.257 318.043 832.524 315.507 830 315.507H742.559C740.049 315.507 738.316 318.043 739.189 320.424H739.203Z" fill="#50F2AE"/>
<path d="M740.507 323.898L741.311 326.097H831.262L832.08 323.898H740.507Z" fill="#44E3A0"/>
<path d="M743.668 332.387L744.486 334.586H828.101L828.919 332.387H743.668Z" fill="#44E3A0"/>
<path d="M746.899 341.044L747.717 343.243H824.87L825.688 341.044H746.899Z" fill="#44E3A0"/>
<path d="M801.422 390.003L804.555 400.201L848.151 542.188H856.679L829.03 403.101L826.423 390.003H801.422Z" fill="#6E4945"/>
<path d="M826.423 390.003H801.422L804.555 400.201L829.03 403.101L826.423 390.003Z" fill="#3D2027"/>
<path d="M715.644 542.188H724.172L769.071 395.998L770.902 390.003H745.915L745.277 393.183L715.644 542.188Z" fill="#6E4945"/>
<path d="M745.277 393.183L769.071 395.998L770.902 390.003H745.914L745.277 393.183Z" fill="#3D2027"/>
<path d="M733.573 460.17H839.221C841.121 460.17 842.66 458.615 842.66 456.696V454.637C842.66 452.718 841.121 451.163 839.221 451.163H733.573C731.674 451.163 730.135 452.718 730.135 454.637V456.696C730.135 458.615 731.674 460.17 733.573 460.17Z" fill="#8C5D55"/>
<path d="M134.48 120.516C149.848 104.99 149.848 79.8186 134.48 64.2932C119.112 48.7678 94.1949 48.7678 78.8266 64.2932C63.4584 79.8186 63.4584 104.99 78.8266 120.516C94.1949 136.041 119.112 136.041 134.48 120.516Z" fill="#F2D6BA"/>
<path d="M134.481 115.334C149.849 99.8084 149.849 74.6367 134.481 59.1113C119.113 43.5858 94.196 43.5858 78.8277 59.1113C63.4595 74.6367 63.4595 99.8084 78.8277 115.334C94.196 130.859 119.113 130.859 134.481 115.334Z" fill="#50F2AE"/>
<path d="M138.255 92.3598C141.066 74.7311 129.198 58.1384 111.748 55.2989C94.298 52.4595 77.8733 64.4485 75.0626 82.0772C72.2519 99.7059 84.1196 116.299 101.57 119.138C119.02 121.978 135.445 109.988 138.255 92.3598Z" fill="#FFFEFE"/>
<path d="M74.6655 87.2272C74.6655 88.0817 74.6932 88.9362 74.7626 89.7767C76.0521 73.1349 89.8769 60.0092 106.655 60.0092C123.434 60.0092 137.258 73.1489 138.548 89.7767C138.617 88.9362 138.645 88.0817 138.645 87.2272C138.645 69.3947 124.293 54.8962 106.641 54.8962C89.0033 54.8962 74.6378 69.3947 74.6378 87.2272H74.6655Z" fill="#F2D6BA"/>
<path d="M106.655 90.5891C106.905 90.5891 107.141 90.4771 107.293 90.267L122.99 68.9184C123.253 68.5542 123.184 68.0499 122.823 67.7838C122.463 67.5176 121.964 67.5876 121.7 67.9519L106.378 88.7821L88.9756 81.0635C88.5735 80.8814 88.1021 81.0635 87.9218 81.4838C87.7415 81.89 87.9218 82.3663 88.3378 82.5484L106.322 90.5191C106.433 90.5611 106.53 90.5891 106.641 90.5891H106.655Z" fill="#1E1E1E"/>
<g opacity="0.06">
<path d="M6.1983 544.261C6.1983 549.374 40.268 553.521 82.297 553.521C124.326 553.521 158.396 549.374 158.396 544.261C158.396 539.148 124.326 535.002 82.297 535.002C40.268 535.002 6.1983 539.148 6.1983 544.261Z" fill="black"/>
</g>
<path d="M11.3289 281.285L29.0917 543.687H135.502L153.265 281.285H11.3289Z" fill="#6E4945"/>
<path d="M12.5075 298.767L151.532 306.864L152.53 292.141H12.0638L12.5075 298.767Z" fill="#3D2027"/>
<path d="M158.562 275.864H6.03188C4.25518 275.864 2.81488 277.319 2.81488 279.114V288.892C2.81488 290.686 4.25518 292.141 6.03188 292.141H158.562C160.339 292.141 161.779 290.686 161.779 288.892V279.114C161.779 277.319 160.339 275.864 158.562 275.864Z" fill="#8C5D55"/>
<path d="M27.2336 322.035L30.714 384.148H133.88L137.36 322.035H27.2336Z" fill="#3D2027"/>
<path d="M77.1526 355.655C77.1526 358.526 79.4544 360.852 82.297 360.852C85.1396 360.852 87.4414 358.526 87.4414 355.655C87.4414 352.783 85.1396 350.458 82.297 350.458C79.4544 350.458 77.1526 352.783 77.1526 355.655Z" fill="#6E4945"/>
<path d="M32.0868 398.702L35.2622 455.337H129.332L132.507 398.702H32.0868Z" fill="#3D2027"/>
<path d="M77.1526 429.072C77.1526 431.944 79.4544 434.269 82.297 434.269C85.1396 434.269 87.4414 431.944 87.4414 429.072C87.4414 426.2 85.1396 423.875 82.297 423.875C79.4544 423.875 77.1526 426.2 77.1526 429.072Z" fill="#6E4945"/>
<path d="M36.2745 469.64L39.1864 521.554H125.394L128.32 469.64H36.2745Z" fill="#3D2027"/>
<path d="M77.1526 495.597C77.1526 498.469 79.4544 500.794 82.297 500.794C85.1396 500.794 87.4414 498.469 87.4414 495.597C87.4414 492.725 85.1396 490.4 82.297 490.4C79.4544 490.4 77.1526 492.725 77.1526 495.597Z" fill="#6E4945"/>
<path d="M36.7876 183.508C38.3545 192.193 40.1571 198.917 40.1571 198.917C40.1571 198.917 44.4696 208.638 48.3244 211.51C51.0145 213.513 53.4689 212.169 54.0651 201.83C54.1622 200.149 54.2176 198.23 54.2038 196.059C54.2038 196.059 54.8139 191.1 55.1051 184.278C55.743 169.443 54.8832 145.826 43.0136 145.391C31.8096 144.985 33.9173 167.552 36.7876 183.494V183.508Z" fill="#8696FE"/>
<path d="M55.0912 184.278C53.3717 187.766 50.5014 191.576 46.3554 191.254C42.0568 190.918 38.7843 186.884 36.7737 183.508C38.3406 192.193 40.1432 198.917 40.1432 198.917C40.1432 198.917 44.4557 208.638 48.3105 211.51C50.6678 210.011 52.6091 206.509 54.0512 201.83L55.0912 184.278Z" fill="#4942E4"/>
<path d="M47.7836 209.171C48.1442 209.171 48.4492 208.891 48.4631 208.526C49.1287 198.216 45.7037 164.807 45.5511 163.378C45.5095 163 45.1768 162.72 44.8024 162.762C44.428 162.804 44.1506 163.14 44.1922 163.518C44.2338 163.868 47.7559 198.244 47.1042 208.428C47.0765 208.807 47.3676 209.143 47.742 209.171H47.7836Z" fill="#FFFEFE"/>
<path d="M44.9831 229.147H59.3071C59.3071 229.147 72.3553 228.166 68.2786 217.043C64.2019 205.907 69.4434 203.273 75.7387 195.947C82.0341 188.621 91.4632 173.1 80.9802 168.323C70.4973 163.546 60.0143 175.061 55.7989 187.36C54.4954 191.156 54.0656 194.7 53.608 198.132C53.3584 199.981 53.1088 201.788 52.6928 203.582C51.9718 206.747 50.7654 209.885 48.3249 213.079C48.2556 213.163 48.2001 213.247 48.1308 213.331C41.4888 221.806 44.9831 229.161 44.9831 229.161V229.147Z" fill="#8696FE"/>
<path d="M44.9826 229.147H57.49C59.8196 217.926 55.7845 208.709 52.6784 203.568C51.9574 206.733 50.751 209.871 48.3105 213.065C48.2412 213.149 48.1857 213.233 48.1164 213.317C41.4744 221.792 44.9687 229.147 44.9687 229.147H44.9826Z" fill="#4942E4"/>
<path d="M55.2437 228.852C55.6181 228.852 55.9231 228.558 55.9231 228.18C56.6026 203.287 73.0897 181.729 73.2561 181.505C73.4918 181.196 73.4364 180.762 73.1452 180.538C72.854 180.3 72.4103 180.356 72.1884 180.65C72.022 180.874 55.2714 202.783 54.5642 228.138C54.5642 228.516 54.8554 228.838 55.2298 228.852H55.2437Z" fill="#FFFEFE"/>
<path d="M11.7726 195.933C22.6022 204.842 28.2043 205.809 26.8038 214.326C26.3462 217.141 25.9579 219.873 25.9579 222.311C25.9579 227.241 27.5941 230.926 33.4458 231.514C42.1816 232.396 49.5169 229.147 49.5169 229.147C49.5169 229.147 52.1238 222.857 52.512 215.432C52.8864 208.526 51.3473 200.654 44.0535 195.933C28.8976 186.141 31.6986 147.437 11.7726 151.079C-8.15341 154.721 0.94294 187.024 11.7726 195.933Z" fill="#8696FE"/>
<path d="M25.9579 222.31C25.9579 227.241 27.5941 230.926 33.4457 231.514C42.1816 232.396 49.5169 229.146 49.5169 229.146C49.5169 229.146 52.1238 222.857 52.512 215.432C49.1286 217.562 38.6318 223.347 25.944 222.31H25.9579Z" fill="#4942E4"/>
<path d="M41.0445 227.564C41.3912 227.564 41.6824 227.311 41.724 226.947C41.7517 226.751 43.8871 207.392 31.3797 195.639C19.2743 184.264 14.5043 165.619 14.4488 165.437C14.3517 165.059 13.9773 164.835 13.6168 164.933C13.2563 165.031 13.0206 165.409 13.1176 165.773C13.1592 165.969 18.0263 184.993 30.4367 196.647C42.445 207.924 40.3789 226.583 40.3512 226.779C40.3096 227.157 40.5731 227.508 40.9475 227.55C40.9752 227.55 41.0029 227.55 41.0307 227.55L41.0445 227.564Z" fill="#FFFEFE"/>
<path d="M27.3168 276.102L23.8225 245.914L23.6561 244.514L23.1708 240.367L23.0182 238.966L22.5468 234.932L22.3804 233.517L21.3959 225.042H71.3287L70.3442 233.517L70.1778 234.932L69.7064 238.966L69.54 240.367L69.0685 244.514L68.9021 245.914L65.3939 276.102H27.3168Z" fill="#50F2AE"/>
<path d="M22.3804 233.517L22.5468 234.932H70.1778L70.3442 233.517H22.3804Z" fill="#44E3A0"/>
<path d="M23.0182 238.966L23.1708 240.367H69.54L69.7064 238.966H23.0182Z" fill="#44E3A0"/>
<path d="M23.6561 244.514L23.8225 245.914H68.9021L69.0685 244.514H23.6561Z" fill="#44E3A0"/>
<path d="M101.155 227.802L101.516 232.046L101.71 234.217L101.89 236.277L102.14 239.176L102.251 240.535L102.778 246.615L103.36 253.213L103.374 253.521L103.734 257.709L103.915 259.754L104.026 261.085L104.608 267.823L105.329 276.186H128.333L128.5 274.267L129.193 266.142L129.623 261.239L129.748 259.754L129.928 257.709L130.316 253.213L130.33 253.073L130.746 248.184L131.412 240.535L131.453 239.989L131.772 236.277L131.869 235.128L131.953 234.217L132.507 227.802H101.155Z" fill="#8696FE"/>
<path d="M101.71 234.217L101.89 236.277H131.772L131.869 235.128L131.953 234.217H101.71Z" fill="#44E3A0"/>
<path d="M103.734 257.709L103.915 259.754H129.748L129.928 257.709H103.734Z" fill="#44E3A0"/>
<path d="M102.251 240.535L102.778 246.615L103.36 253.213H130.316L130.33 253.073L130.746 248.184L131.398 240.535H102.251Z" fill="#FFFEFE"/>
<path d="M134.116 221.624H99.5468V227.816H134.116V221.624Z" fill="#8696FE"/>
<path d="M102.154 221.624H131.523V218.444C131.523 217.296 130.608 216.371 129.47 216.371H104.206C103.069 216.371 102.154 217.296 102.154 218.444V221.624Z" fill="#44E3A0"/>
<path d="M784.99 75.2662H836.199L843.687 23.5338H792.492L784.99 75.2662Z" fill="#8C5D55"/>
<path d="M843.686 23.5338L850.786 75.2662H836.199L843.686 23.5338Z" fill="#3D2027"/>
<path d="M833.079 71.582L839.513 27.218H795.598L789.178 71.582H833.079Z" fill="#DFDBC8"/>
<path d="M832.455 70.8396L838.667 27.9604H796.222L790.01 70.8396H832.455Z" fill="#FFFEFE"/>
<path d="M800.035 33.1995L795.348 65.5865H828.669L833.356 33.1995H800.035Z" fill="#8696FE"/>
<path d="M825.661 52.1264C827.938 46.5727 825.327 40.2057 819.83 37.9053C814.332 35.6049 808.03 38.2422 805.753 43.7959C803.475 49.3496 806.086 55.7166 811.583 58.0171C817.081 60.3175 823.383 57.6801 825.661 52.1264Z" fill="#C7B7DA"/>
<path d="M816.744 48.8046C816.744 48.8046 809.991 40.806 798.87 41.3523L795.362 65.6005L816.758 48.8187L816.744 48.8046Z" fill="#50F2AE"/>
<path d="M831.817 43.8597C831.817 43.8597 822.277 41.8986 812.362 49.407C802.448 56.9154 795.348 65.6005 795.348 65.6005H828.669L831.817 43.8597Z" fill="#44E3A0"/>
<g opacity="0.06">
<path d="M656.005 96.8248H869.741L872.542 86.9771H652.802L656.005 96.8248Z" fill="black"/>
</g>
<path d="M652.622 86.9631L872.598 86.9631V75.2522L652.622 75.2522V86.9631Z" fill="#6E4945"/>
<path d="M861.63 86.9771L856.929 96.9089H845.864L842.716 86.9771H861.63Z" fill="#3D2027"/>
<path d="M667.001 86.9771L671.702 96.9089H682.767L685.915 86.9771H667.001Z" fill="#3D2027"/>
<path d="M678.122 62.6868H676.499V60.2354L738.094 60.3194C740.132 60.3194 741.99 61.1599 743.321 62.5187C744.653 63.8635 745.485 65.7406 745.485 67.7998C745.485 71.9322 742.171 75.2662 738.08 75.2662L676.485 75.1821V73.0529H678.122V62.7008V62.6868Z" fill="#8696FE"/>
<path d="M677.692 62.6868V73.0389L734.197 73.1089C736.957 73.1089 739.189 70.7976 739.203 67.9399C739.203 66.511 738.648 65.2083 737.747 64.2697C736.846 63.3312 735.598 62.7568 734.211 62.7428L677.692 62.6728V62.6868Z" fill="#FFFEFE"/>
<path d="M677.692 65.3063V66.8893L732.741 66.9593C733.171 66.9593 733.518 66.6091 733.518 66.1748C733.518 65.7406 733.171 65.3764 732.741 65.3764L677.692 65.3063Z" fill="#8696FE"/>
<path d="M677.692 69.2006V70.7836L732.741 70.8536C733.171 70.8536 733.518 70.5034 733.518 70.0691C733.518 69.6349 733.171 69.2707 732.741 69.2707L677.692 69.2006Z" fill="#8696FE"/>
<path d="M683.627 47.754H682.004V45.3026L743.599 45.3866C745.637 45.3866 747.495 46.2271 748.827 47.5859C750.158 48.9447 750.99 50.8078 750.99 52.867C750.99 56.9995 747.676 60.3334 743.585 60.3334L681.99 60.2494V58.1201H683.627V47.768V47.754Z" fill="#50F2AE"/>
<path d="M683.197 47.74V58.0921L739.702 58.1621C742.462 58.1621 744.694 55.8508 744.708 52.9931C744.708 51.5643 744.154 50.2615 743.252 49.323C742.351 48.3844 741.103 47.8101 739.716 47.7961L683.197 47.726V47.74Z" fill="#FFFEFE"/>
<path d="M683.197 50.3736V51.9565L738.246 52.0265C738.676 52.0265 739.023 51.6763 739.023 51.2421C739.023 50.8078 738.676 50.4436 738.246 50.4436L683.197 50.3736Z" fill="#8696FE"/>
<path d="M683.197 54.2679V55.8508L738.246 55.9208C738.676 55.9208 739.023 55.5706 739.023 55.1364C739.023 54.7021 738.676 54.3379 738.246 54.3379L683.197 54.2679Z" fill="#8696FE"/>
<path d="M672.88 32.7933H671.258V30.3418L732.852 30.4259C734.891 30.4259 736.749 31.2664 738.08 32.6252C739.411 33.9699 740.243 35.847 740.243 37.9063C740.243 42.0387 736.929 45.3726 732.839 45.3726L671.244 45.2886V43.1593H672.88V32.8073V32.7933Z" fill="#4942E4"/>
<path d="M672.464 32.7933V43.1453L728.97 43.2154C731.729 43.2154 733.962 40.904 733.976 38.0463C733.976 36.6175 733.421 35.3147 732.52 34.3762C731.618 33.4376 730.37 32.8633 728.984 32.8493L672.464 32.7792V32.7933Z" fill="#FFFEFE"/>
<path d="M672.464 35.4128V36.9957L727.514 37.0658C727.944 37.0658 728.29 36.7156 728.29 36.2813C728.29 35.847 727.944 35.4828 727.514 35.4828L672.464 35.4128Z" fill="#8696FE"/>
<path d="M672.45 39.3071V40.89L727.5 40.96C727.93 40.96 728.277 40.6098 728.277 40.1756C728.277 39.7413 727.93 39.3771 727.5 39.3771L672.45 39.3071Z" fill="#8696FE"/>
<path d="M165.967 356.817H251.841C256.306 356.817 259.925 360.474 259.925 364.984V423.525C259.925 429.954 254.767 435.165 248.402 435.165H169.406C163.041 435.165 157.883 429.954 157.883 423.525V364.984C157.883 360.474 161.502 356.817 165.967 356.817Z" fill="#FFFEFE"/>
<path d="M165.967 356.817H251.841C256.306 356.817 259.925 360.474 259.925 364.984V366.175H157.883V364.984C157.883 360.474 161.502 356.817 165.967 356.817Z" fill="#8696FE"/>
<path d="M164.774 361.496C164.774 362.169 164.233 362.715 163.568 362.715C162.902 362.715 162.362 362.169 162.362 361.496C162.362 360.824 162.902 360.277 163.568 360.277C164.233 360.277 164.774 360.824 164.774 361.496Z" fill="#010101"/>
<path d="M169.655 362.715C170.321 362.715 170.862 362.169 170.862 361.496C170.862 360.823 170.321 360.277 169.655 360.277C168.989 360.277 168.449 360.823 168.449 361.496C168.449 362.169 168.989 362.715 169.655 362.715Z" fill="#FFFEFE"/>
<path d="M176.256 362.715C176.922 362.715 177.462 362.169 177.462 361.496C177.462 360.823 176.922 360.277 176.256 360.277C175.589 360.277 175.049 360.823 175.049 361.496C175.049 362.169 175.589 362.715 176.256 362.715Z" fill="#C7B7DA"/>
<path d="M168.227 422.922H162.264V428.946H168.227V422.922Z" fill="#8696FE"/>
<path d="M164.511 426.957V424.897" stroke="#FFFEFE" stroke-width="0.64" stroke-miterlimit="10"/>
<path d="M165.967 426.957V424.897" stroke="#FFFEFE" stroke-width="0.64" stroke-miterlimit="10"/>
<path d="M252.16 424.463H170.099V427.783H252.16V424.463Z" fill="#E5DBED"/>
<path d="M204.196 424.463H170.099V427.783H204.196V424.463Z" fill="#8696FE"/>
<path d="M257.735 375.546V402.554" stroke="#4942E4" stroke-linecap="round" stroke-linejoin="round"/>
<path d="M257.735 370.013V372.703" stroke="#4942E4" stroke-linecap="round" stroke-linejoin="round"/>
<path d="M173.15 433.4H205.209" stroke="#4942E4" stroke-linecap="round" stroke-linejoin="round"/>
<path d="M215.969 411.09C223.802 407.854 227.555 398.817 224.352 390.904C221.149 382.991 212.203 379.199 204.37 382.435C196.537 385.67 192.784 394.708 195.987 402.621C199.19 410.534 208.136 414.326 215.969 411.09Z" fill="#8696FE"/>
<path d="M205.486 402.736V390.801L216.538 395.676L205.486 402.736Z" fill="#FFFEFE"/>
<path d="M199.246 390.241C201.077 386.067 205.666 383.321 210.159 383.699" stroke="#4942E4" stroke-linecap="round" stroke-linejoin="round"/>
<g opacity="0.06">
<path d="M438.968 569.014C577.153 569.014 689.173 557.825 689.173 544.023C689.173 530.221 577.153 519.033 438.968 519.033C300.784 519.033 188.763 530.221 188.763 544.023C188.763 557.825 300.784 569.014 438.968 569.014Z" fill="black"/>
</g>
<path d="M298.71 506.902C301.663 509.885 304.866 512.729 308.347 515.419C325.735 528.908 349.78 538.574 381.714 541.81C545.018 558.326 598.986 480.93 612.173 361.86C618.053 308.797 604.297 273.777 587.241 251.265C585.453 248.912 583.636 246.699 581.806 244.612C580.766 243.435 579.712 242.286 578.617 241.166C556.597 218.444 524.801 207.742 493.56 212.939C469.003 217.015 446.692 230.267 428.596 256.757C399.643 299.104 427.029 335.511 344.302 337.948C280.975 339.811 240.845 448.585 298.724 506.916L298.71 506.902Z" fill="#50F2AE"/>
<path d="M548.721 249.781C548.721 249.781 568.037 291.525 545.739 368.15C523.442 444.775 493.907 438.738 474.827 438.738C441.492 438.738 373.99 407.023 360.803 382.032C347.616 357.042 372.507 355.557 419.112 351.859C465.73 348.16 500.507 233.251 548.721 249.781Z" fill="#44E3A0"/>
<path d="M506.844 470.886C507.205 470.886 507.579 470.746 507.856 470.452C508.383 469.892 508.369 469.009 507.801 468.463C491.134 452.452 475.215 443.024 464.787 437.925C453.459 432.392 446.151 430.669 445.846 430.599C445.097 430.431 444.348 430.893 444.182 431.649C444.016 432.406 444.473 433.162 445.222 433.33C445.555 433.414 474.577 440.419 505.874 470.494C506.137 470.746 506.484 470.886 506.83 470.886H506.844Z" fill="#44E3A0"/>
<path d="M501.339 452.129C501.783 452.129 502.227 451.919 502.49 451.513C502.92 450.869 502.754 450 502.116 449.566C501.464 449.118 485.947 438.724 461.931 436.076C461.168 435.992 460.489 436.552 460.406 437.323C460.322 438.093 460.877 438.78 461.64 438.864C484.977 441.441 500.424 451.779 500.577 451.891C500.812 452.059 501.09 452.129 501.353 452.129H501.339Z" fill="#44E3A0"/>
<path d="M551.702 336.197C552.395 336.197 552.991 335.679 553.075 334.965C555.085 318.729 562.005 306.318 567.44 298.767C573.361 290.559 578.88 286.146 578.935 286.104C579.532 285.628 579.643 284.745 579.171 284.129C578.7 283.512 577.826 283.414 577.216 283.891C576.98 284.073 571.392 288.541 565.249 297.03C559.592 304.861 552.409 317.735 550.301 334.614C550.204 335.385 550.745 336.085 551.508 336.183C551.563 336.183 551.619 336.183 551.688 336.183L551.702 336.197Z" fill="#44E3A0"/>
<path d="M298.71 506.902C301.663 509.885 304.866 512.729 308.347 515.419C328.439 527.606 352.969 535.632 379.981 538.77C388.356 539.751 396.814 540.227 405.273 540.227C428.596 540.227 451.975 536.557 474.009 529.343C531.332 510.586 572.696 470.452 590.472 416.352C600.22 386.683 605.004 357.84 604.699 330.608C604.463 308.797 600.955 287.967 594.313 268.692C592.095 262.262 589.682 256.463 587.241 251.265C585.453 248.912 583.636 246.699 581.806 244.612C580.766 243.435 579.712 242.286 578.617 241.166C582.971 248.702 587.63 258.27 591.609 269.826C601.857 299.622 609.497 349.071 587.699 415.414C570.227 468.603 529.53 508.064 473.121 526.527C413.191 546.139 343.872 538.182 300.637 506.747C300.041 506.313 299.237 506.397 298.737 506.916L298.71 506.902Z" fill="#44E3A0"/>
<path d="M538.182 201.564C538.182 201.564 560.729 178.283 527.893 161.879C495.044 145.475 456.357 170.536 450.02 188.817C443.669 207.098 538.196 201.564 538.196 201.564H538.182Z" fill="#8696FE"/>
<path d="M498.954 185.595C499.148 185.595 499.356 185.525 499.523 185.385C508.48 177.638 523.498 178.353 523.65 178.353H523.692C524.15 178.353 524.538 177.988 524.552 177.526C524.579 177.036 524.205 176.63 523.734 176.602C523.096 176.56 507.87 175.845 498.386 184.054C498.025 184.362 497.984 184.923 498.289 185.287C498.455 185.483 498.705 185.595 498.954 185.595Z" fill="#4942E4"/>
<path d="M520.974 186.702C521.279 186.702 521.584 186.533 521.737 186.239C521.959 185.805 521.806 185.287 521.376 185.049C520.932 184.81 510.547 179.291 503.183 181.028C502.712 181.14 502.421 181.603 502.532 182.079C502.643 182.555 503.1 182.849 503.572 182.737C510.311 181.154 520.461 186.548 520.558 186.604C520.683 186.674 520.822 186.702 520.96 186.702H520.974Z" fill="#4942E4"/>
<path d="M293.759 492.907L282.195 514.438C282.195 514.438 267.982 517.814 251.065 519.131C225.37 521.12 217.758 517.03 215.941 522.829C214.527 527.354 234.065 537.566 243.105 539.176C252.146 540.787 271.892 548.968 284.719 550.411C297.531 551.84 303.189 535.492 306.1 529.679C308.999 523.851 318.136 504.142 318.136 504.142L293.773 492.907H293.759Z" fill="#F79A86"/>
<path d="M226.022 528.516C225.967 530.141 226.258 531.682 227.104 532.929C227.242 533.125 227.381 533.307 227.547 533.489C232.096 538.56 250.316 541.026 250.316 541.026C248.86 539.611 248.167 537.622 247.959 535.394C247.39 529.539 250.15 522.03 251.342 519.103C251.675 518.304 251.883 517.856 251.883 517.856C248.735 517.114 245.74 516.693 243.036 516.497C240.374 516.301 237.989 516.301 236.02 516.385C232.304 516.553 230.03 517.015 230.03 517.015C230.03 517.015 229.392 518.052 228.629 519.649C227.52 521.946 226.147 525.392 226.036 528.516H226.022Z" fill="#4942E4"/>
<path d="M233.773 524.958L240.083 525.617C240.083 525.617 240.915 522.507 241.858 519.649C242.246 518.486 242.662 517.352 243.036 516.511C240.374 516.315 237.989 516.315 236.02 516.399C235.645 517.24 235.202 518.43 234.813 519.747C234.314 521.414 233.884 523.291 233.787 524.958H233.773Z" fill="#8696FE"/>
<path d="M218.174 526.009C218.174 526.009 277.023 544.836 284.94 546.223C292.844 547.623 297.157 546.055 297.157 546.055C297.157 546.055 296.907 549.318 296.241 552.386C295.465 556 291.749 558.13 288.254 557.037C272.516 552.12 220.476 535.702 216.926 532.789C212.738 529.357 213.653 525.701 218.174 526.009Z" fill="#4942E4"/>
<path d="M347.991 487.962L348.753 507.308C348.753 507.308 338.243 517.562 324.376 527.424C303.299 542.412 294.688 542.833 296.061 548.744C297.129 553.353 319.107 552.05 327.677 548.758C336.26 545.48 357.378 542.3 369.123 536.921C380.868 531.528 377.443 514.564 376.999 508.064C376.542 501.564 375.585 486.912 375.585 486.912L347.991 487.962Z" fill="#F79A86"/>
<path d="M307.598 548.422C308.375 549.851 309.401 551.027 310.773 551.658C310.981 551.756 311.203 551.84 311.439 551.91C317.915 553.927 334.818 546.629 334.818 546.629C332.863 546.167 331.254 544.822 329.937 543.015C326.484 538.28 325.056 530.407 324.612 527.27C324.487 526.415 324.446 525.911 324.446 525.911C321.353 526.905 318.58 528.096 316.154 529.315C313.769 530.519 311.716 531.752 310.066 532.845C306.96 534.904 305.241 536.473 305.241 536.473C305.241 536.473 305.213 537.692 305.366 539.457C305.574 542.006 306.142 545.676 307.626 548.422H307.598Z" fill="#4942E4"/>
<path d="M312.451 541.362L318.206 538.672C318.206 538.672 317.346 535.562 316.708 532.621C316.445 531.416 316.237 530.239 316.126 529.315C313.741 530.519 311.689 531.752 310.039 532.845C310.149 533.755 310.357 535.016 310.69 536.347C311.106 538.042 311.689 539.877 312.451 541.362Z" fill="#8696FE"/>
<path d="M299.569 550.327C299.569 550.327 359.68 536.095 367.182 533.209C374.684 530.323 377.596 526.751 377.596 526.751C377.596 526.751 379.038 529.693 380.022 532.663C381.173 536.165 379.065 539.919 375.516 540.787C359.5 544.696 306.461 557.471 301.941 556.799C296.602 556.014 295.534 552.4 299.583 550.313L299.569 550.327Z" fill="#4942E4"/>
<path d="M327.538 334.292C342.791 322.441 397.577 327.316 440.494 333.452C441.714 353.091 435.723 336.786 439.343 356.103C385.763 358.877 370.704 363.149 370.704 363.149C370.704 363.149 378.719 407.205 378.33 425.626C377.942 444.047 384.404 497.348 384.404 497.348L345.772 504.702C345.772 504.702 305.698 351.256 327.538 334.292Z" fill="#FFFEFE"/>
<path d="M343.817 496.129C343.983 496.185 344.164 496.199 344.344 496.157L382.49 488.285C383.059 488.173 383.419 487.612 383.309 487.038C383.198 486.464 382.643 486.099 382.074 486.211L343.928 494.084C343.359 494.196 342.999 494.756 343.11 495.331C343.193 495.709 343.457 496.003 343.803 496.115L343.817 496.129Z" fill="#D8D8D8"/>
<path d="M375.155 488.635C375.321 488.691 375.516 488.705 375.696 488.663C376.264 488.537 376.611 487.976 376.5 487.416C376.458 487.22 372.382 467.749 372.146 436.272C371.91 404.571 362.287 357.35 362.19 356.888C362.079 356.313 361.524 355.949 360.956 356.075C360.387 356.187 360.027 356.747 360.152 357.322C360.249 357.798 369.83 404.81 370.052 436.3C370.288 468.001 374.406 487.668 374.448 487.864C374.531 488.243 374.795 488.523 375.141 488.635H375.155Z" fill="#D8D8D8"/>
<path d="M389.34 131.341C391.379 131.761 394.152 129.464 396.759 128.581C400.184 127.419 404.954 124.617 407.242 122.306C410.667 118.86 420.207 108.129 420.041 104.067C419.86 100.005 410.93 108.62 409.058 110.343C407.186 112.066 405.287 112.542 405.287 112.542C405.287 112.542 424.284 91.1935 423.785 87.9856C423.285 84.7778 411.277 95.8442 408.324 98.5899C408.324 98.5899 421.746 81.6959 420.803 79.7628C418.904 75.8825 403.456 94.2053 403.456 94.2053C403.456 94.2053 414.036 79.4126 411.582 77.7316C408.975 75.9386 397.688 91.8239 397.688 91.8239C397.688 91.8239 403.193 81.1636 401.737 78.7402C400.281 76.3028 387.011 97.7914 385.361 101.335C383.711 104.88 378.497 114.083 377.152 119.028C376.237 122.39 382.92 129.996 389.354 131.327L389.34 131.341Z" fill="#F79A86"/>
<path d="M392.058 96.0124C392.183 95.6341 392.557 95.396 392.96 95.466C402.319 97.175 407.159 105.328 407.353 105.678C407.575 106.056 407.45 106.561 407.075 106.785C406.701 107.009 406.202 106.883 405.98 106.505C405.938 106.42 401.293 98.6459 392.668 97.063C392.238 96.9789 391.947 96.5587 392.03 96.1244C392.03 96.0964 392.044 96.0544 392.058 96.0264V96.0124Z" fill="#F3796B"/>
<path d="M386.248 115.442C386.345 115.134 386.609 114.909 386.942 114.881C396.426 114.111 398.894 107.009 398.922 106.925C399.061 106.505 399.518 106.28 399.934 106.42C400.35 106.561 400.572 107.009 400.447 107.429C400.336 107.779 397.605 115.638 387.094 116.492C386.65 116.534 386.276 116.198 386.234 115.75C386.234 115.638 386.234 115.54 386.262 115.442H386.248Z" fill="#F3796B"/>
<path d="M436.625 198.258H436.694V198.244H436.029L435.072 198.272C434.406 198.272 433.727 198.272 433.033 198.272C431.647 198.258 430.219 198.23 428.79 198.146C425.92 197.992 423.022 197.782 420.138 197.418C418.696 197.236 417.253 197.054 415.811 196.83C414.369 196.605 412.941 196.353 411.527 196.087C410.098 195.821 408.684 195.499 407.27 195.177C405.855 194.854 404.455 194.504 403.068 194.126C391.933 191.114 381.437 186.435 372.118 180.062C371.536 179.669 370.954 179.263 370.385 178.843C369.803 178.437 369.248 178.016 368.68 177.582L368.25 177.26C368.43 177.386 368.596 177.554 368.79 177.722C369.151 178.059 369.539 178.451 369.886 178.871C370.233 179.305 370.551 179.753 370.815 180.216C371.078 180.664 371.286 181.112 371.453 181.519C371.786 182.331 371.91 182.989 371.966 183.382C372.021 183.788 372.007 183.97 371.994 183.984C371.966 184.012 371.98 183.452 372.146 182.667C372.299 181.883 372.576 180.874 372.923 179.782C373.283 178.689 373.713 177.498 374.226 176.265C375.224 173.8 376.486 171.194 377.831 168.547C380.577 163.252 383.78 157.845 387.15 152.479C388.827 149.79 390.575 147.1 392.336 144.439C393.209 143.094 394.097 141.763 394.998 140.446L397.591 136.608L374.032 115.82L373.034 116.885L372.118 117.879L370.316 119.868C369.137 121.199 367.986 122.544 366.835 123.903C364.547 126.62 362.329 129.38 360.138 132.224C355.784 137.911 351.624 143.836 347.755 150.364C345.814 153.628 343.97 157.06 342.222 160.8C341.363 162.677 340.531 164.653 339.74 166.754C338.964 168.869 338.229 171.124 337.633 173.674C337.036 176.223 336.537 179.067 336.44 182.541C336.399 184.264 336.482 186.183 336.787 188.285C337.092 190.372 337.66 192.725 338.645 195.135C339.13 196.339 339.74 197.572 340.434 198.763C341.141 199.953 341.945 201.13 342.833 202.223C343.72 203.301 344.691 204.338 345.703 205.234C346.202 205.697 346.729 206.103 347.228 206.509L347.824 206.957C348.615 207.56 349.419 208.162 350.223 208.751C351.028 209.339 351.846 209.913 352.664 210.488C354.3 211.622 355.964 212.715 357.656 213.779C359.347 214.816 361.053 215.839 362.786 216.791C364.52 217.758 366.267 218.668 368.028 219.551C369.803 220.419 371.578 221.26 373.38 222.03C380.577 225.182 387.995 227.592 395.497 229.343C399.241 230.211 403.013 230.912 406.784 231.444C410.556 231.962 414.342 232.368 418.141 232.55C420.041 232.649 421.94 232.705 423.84 232.733C425.74 232.761 427.639 232.733 429.553 232.649C431.467 232.579 433.38 232.466 435.321 232.284C436.292 232.186 437.277 232.088 438.275 231.962C438.774 231.906 439.287 231.836 439.814 231.766L441.686 231.472L436.653 198.258H436.625Z" fill="#8696FE"/>
<path d="M346.784 188.929C346.84 189.433 347.27 189.839 347.797 189.853C355.756 190.064 364.506 187.766 364.866 187.668C365.421 187.528 365.754 186.94 365.615 186.379C365.476 185.819 364.894 185.483 364.339 185.623C364.256 185.651 355.506 187.934 347.838 187.738C347.27 187.724 346.784 188.186 346.771 188.761C346.771 188.817 346.771 188.859 346.771 188.915L346.784 188.929Z" fill="#4942E4"/>
<path d="M355.479 193.762C355.506 193.958 355.576 194.14 355.701 194.294C356.061 194.742 356.713 194.812 357.17 194.448C357.42 194.252 363.175 189.517 364.755 187.528C365.116 187.08 365.046 186.421 364.603 186.043C364.159 185.679 363.507 185.749 363.133 186.197C361.677 188.004 355.909 192.767 355.839 192.809C355.548 193.047 355.423 193.398 355.465 193.748L355.479 193.762Z" fill="#4942E4"/>
<path d="M371.591 122.488C371.619 122.712 371.744 122.936 371.952 123.062C379.87 127.853 392.821 139.27 392.946 139.382C393.265 139.662 393.764 139.634 394.055 139.312C394.346 138.99 394.318 138.485 394 138.205C393.875 138.093 380.813 126.592 372.784 121.717C372.41 121.493 371.924 121.619 371.702 121.984C371.605 122.138 371.564 122.32 371.591 122.488Z" fill="#4942E4"/>
<path d="M432.59 199.295C429.858 207.672 434.392 228.04 429.997 263.859C429.678 266.492 429.303 269.21 428.874 272.026C428.471 274.659 428.028 277.391 427.528 280.206C427.057 282.826 426.544 285.53 425.989 288.289C425.49 290.713 424.963 293.206 424.381 295.742C423.785 298.361 423.161 301.023 422.481 303.754C422.287 304.525 422.079 305.365 421.857 306.234C421.802 306.458 421.746 306.668 421.691 306.892C421.635 307.088 421.594 307.284 421.538 307.494C421.497 307.649 421.469 307.803 421.427 307.943L421.344 308.279C421.289 308.475 421.247 308.685 421.192 308.881C421.192 308.923 421.178 308.965 421.164 308.993C421.108 309.232 421.039 309.484 420.97 309.736C420.97 309.778 420.956 309.806 420.942 309.848C420.886 310.058 420.831 310.282 420.776 310.492C420.512 311.501 420.235 312.565 419.957 313.658C419.888 313.924 419.819 314.204 419.736 314.485C419.639 314.849 419.541 315.227 419.444 315.605C419.25 316.348 419.042 317.09 418.848 317.861C418.751 318.239 418.64 318.631 418.543 319.009C418.321 319.836 418.099 320.662 417.864 321.517C417.822 321.671 417.78 321.825 417.739 321.979C417.198 323.996 416.616 326.069 416.033 328.199C415.77 329.151 415.492 330.132 415.229 331.098C414.896 332.275 414.563 333.466 414.231 334.656C413.731 336.407 413.232 338.158 412.719 339.91L412.067 342.137C411.873 342.809 411.665 343.482 411.471 344.154C411.235 344.952 411 345.765 410.764 346.563C410.612 347.096 410.445 347.628 410.279 348.16C410.182 348.497 410.085 348.819 409.988 349.155C409.793 349.813 409.585 350.472 409.391 351.13C409.197 351.789 408.989 352.433 408.795 353.077C408.656 353.54 408.518 353.988 408.379 354.436C408.254 354.842 408.129 355.235 408.005 355.627C407.963 355.739 407.935 355.837 407.908 355.949C407.838 356.173 407.769 356.411 407.686 356.635C407.533 357.098 407.394 357.574 407.242 358.022C407.076 358.554 406.895 359.101 406.729 359.633C405.356 363.892 404.011 367.856 402.749 371.288C412.123 382.172 428.042 391.684 446.761 397.385L457.147 390.563L465.841 401.7C484.131 404.403 503.724 403.339 521.778 396.699C527.741 384.386 537.572 339.209 540.359 325.705C540.914 323.016 541.413 320.312 541.871 317.608C544.089 304.595 545.268 291.385 546.058 277.503C546.1 276.746 546.142 275.99 546.183 275.234C546.183 275.15 546.183 275.051 546.197 274.967C547.043 263.271 562.171 228.81 560.646 216.413C557.623 191.843 542.12 198.314 528.143 194.518C523.553 193.271 519.698 191.703 516.537 190.092C515.22 189.419 514.027 188.747 512.945 188.088C512.488 187.822 512.072 187.556 511.67 187.276C507.33 184.432 504.958 182.037 504.958 182.037L473.246 178.689C470.112 182.415 466.41 184.586 462.513 185.987C462.083 186.141 461.654 186.281 461.21 186.421C460.558 186.632 459.907 186.814 459.255 186.982C448.051 189.923 436.195 188.313 432.604 199.295H432.59Z" fill="#8696FE"/>
<path d="M512.183 371.764C512.529 371.764 512.862 371.54 513.001 371.19C530.348 324.136 539.333 242.889 539.416 242.076C539.472 241.6 539.125 241.166 538.654 241.11C538.182 241.053 537.752 241.404 537.697 241.88C537.614 242.692 528.656 323.73 511.379 370.574C511.212 371.022 511.434 371.526 511.892 371.708C511.989 371.75 512.1 371.764 512.197 371.764H512.183Z" fill="#4942E4"/>
<path d="M481.51 198.454C481.178 199.477 482.384 200.794 484.214 201.396C486.045 201.999 487.792 201.676 488.125 200.654C488.457 199.631 487.251 198.314 485.421 197.712C483.59 197.11 481.843 197.432 481.51 198.454Z" fill="#4942E4"/>
<path d="M467.339 194.812C467.006 195.835 468.212 197.152 470.043 197.754C471.873 198.356 473.62 198.034 473.953 197.012C474.286 195.989 473.08 194.672 471.249 194.07C469.419 193.468 467.672 193.79 467.339 194.812Z" fill="#4942E4"/>
<path d="M463.332 202.461C463.72 202.461 464.066 202.195 464.177 201.802C464.302 201.34 464.011 200.85 463.553 200.738C451.323 197.572 450.561 190.134 450.533 189.825C450.491 189.349 450.075 188.985 449.604 189.027C449.132 189.069 448.772 189.489 448.813 189.966C448.841 190.33 449.632 198.945 463.137 202.447C463.207 202.461 463.276 202.475 463.359 202.475L463.332 202.461Z" fill="#4942E4"/>
<path d="M444.543 279.926C460.849 279.926 474.979 275.696 484.436 271.858C496.223 267.081 503.544 261.842 503.613 261.786C504.002 261.506 504.099 260.959 503.821 260.567C503.544 260.175 503.003 260.077 502.615 260.357C502.546 260.413 495.363 265.554 483.757 270.247C473.066 274.575 456.301 279.422 437.221 277.867C436.736 277.825 436.32 278.189 436.292 278.666C436.25 279.142 436.611 279.576 437.082 279.604C439.62 279.814 442.116 279.898 444.556 279.898L444.543 279.926Z" fill="#4942E4"/>
<path d="M493.907 310.927C493.907 310.927 454.942 300.897 430.662 300.602L423.244 333.059C423.244 333.059 461.723 339.601 486.072 343.888L493.907 310.927Z" fill="#4942E4"/>
<path d="M515.76 210.067C523.262 210.067 529.003 207.952 532.913 205.767C539.139 202.293 542.176 198.02 542.301 197.838C542.578 197.446 542.481 196.9 542.093 196.619C541.704 196.339 541.164 196.437 540.886 196.83C540.886 196.83 537.919 201.004 532.012 204.268C526.562 207.28 517.397 210.165 504.639 206.789C504.182 206.663 503.697 206.943 503.586 207.42C503.461 207.882 503.738 208.372 504.21 208.484C508.439 209.605 512.308 210.053 515.774 210.053L515.76 210.067Z" fill="#4942E4"/>
<path d="M415.992 328.199C416.574 326.069 417.156 323.996 417.697 321.979C417.143 323.996 416.574 326.069 415.992 328.199Z" fill="#1E1E1E"/>
<path d="M418.82 317.861C419.028 317.09 419.223 316.348 419.417 315.605C419.223 316.348 419.015 317.09 418.82 317.861Z" fill="#1E1E1E"/>
<path d="M427.39 275.892C427.39 275.892 427.515 275.934 427.584 275.934C428.152 276.004 428.679 275.598 428.749 275.023C430.648 260.371 432.742 242.959 432.936 238.042C432.964 237.467 432.52 236.977 431.938 236.949C431.37 236.921 430.884 237.369 430.856 237.958C430.662 242.805 428.568 260.133 426.683 274.757C426.613 275.262 426.918 275.738 427.39 275.892Z" fill="#4942E4"/>
<path d="M465.315 112.304C465.315 112.304 455.261 120.289 461.862 132.462C461.862 132.462 465.481 118.243 465.315 112.304Z" fill="#1E1E1E"/>
<path d="M505.569 167.23C505.569 167.23 512.086 173.632 513.431 168.911C514.776 164.19 512.502 161.837 512.502 161.837C512.502 161.837 519.546 168.673 519.657 163.518C519.768 158.377 516.093 153.768 516.093 153.768C516.093 153.768 522.624 148.935 520.489 141.203C518.353 133.47 518.09 127.811 520.225 121.479C522.361 115.148 521.39 108.606 518.298 105.776C513.777 101.63 507.205 102.274 507.205 102.274C507.205 102.274 503.711 90.7032 490.621 91.0114C477.531 91.3196 469.904 80.9955 463.304 83.6851C456.703 86.3747 449.132 108.41 466.895 114.937C466.895 114.937 502.088 138.779 505.569 167.23Z" fill="#1E1E1E"/>
<path d="M472.331 173.52L471.471 181.883C472.359 182.779 473.26 183.564 474.189 184.264C487.653 194.49 504.265 185.343 504.265 185.343L507.26 156.374L476.505 171.489L472.345 173.534L472.331 173.52Z" fill="#F79A86"/>
<path d="M472.414 172.791L471.471 181.883C472.359 182.779 473.26 183.564 474.189 184.264C486.918 180.664 497.166 168.645 497.166 168.645L476.505 171.489L472.414 172.805V172.791Z" fill="#1E1E1E"/>
<path d="M465.828 135.389C465.828 135.389 461.709 129.282 458.478 134.619C455.248 139.956 456.107 151.513 463.456 150.406L465.841 135.389H465.828Z" fill="#F3796B"/>
<path d="M458.783 154.525C458.783 154.525 456.967 171.797 474.771 173.632C492.451 175.467 505.957 162.706 506.65 162.131H506.678L507.246 158.503L510.2 139.76L511.781 129.744C511.781 129.744 515.913 111.842 499.19 106.729C486.974 102.988 475.063 103.857 468.49 109.796C468.282 109.993 468.074 110.189 467.88 110.385C465.786 112.5 464.316 115.19 463.65 118.482L461.224 136.51L460.628 140.937L458.797 154.511L458.783 154.525Z" fill="#F79A86"/>
<path d="M510.186 139.774C510.186 139.774 506.179 141.035 504.418 145.952C501.769 145.672 499.925 143.178 500.41 140.53C500.688 138.99 501.048 137.155 501.464 135.081C502.74 128.876 504.695 126.914 501.131 123.02C497.568 119.126 500.923 116.815 497.679 114.069C494.115 111.057 485.324 116.394 478.848 115.036C471.166 113.425 471.818 108.157 465.12 114.195C465.12 114.195 466.895 105.104 475.631 102.652C484.367 100.187 508.91 102.358 512.668 114.167C516.426 125.976 510.186 139.774 510.186 139.774Z" fill="#1E1E1E"/>
<path d="M496.112 126.732C494.933 128.778 492.354 129.492 490.302 128.329C489.109 127.657 487.695 126.971 486.169 126.466C484.02 125.752 482.883 123.37 483.715 121.241C483.715 121.241 492.59 121.353 496.112 126.746V126.732Z" fill="#1E1E1E"/>
<path d="M463.207 123.006C463.9 125.121 466.146 126.284 468.254 125.626C469.488 125.234 470.93 124.883 472.414 124.715C474.536 124.477 476.033 122.502 475.687 120.373C475.687 120.373 467.478 118.734 463.207 123.006Z" fill="#1E1E1E"/>
<path d="M484.173 141.217C484.048 142.478 486.502 143.766 489.664 144.103C492.825 144.439 495.502 143.682 495.626 142.436C495.751 141.175 493.297 139.886 490.135 139.55C486.974 139.214 484.298 139.97 484.173 141.217Z" fill="#F3796B"/>
<path d="M460.6 140.965C461.044 141.063 461.501 141.133 461.973 141.175C465.134 141.511 467.81 140.755 467.935 139.494C468.06 138.233 465.606 136.944 462.444 136.608C462.014 136.566 461.598 136.538 461.196 136.538L460.6 140.965Z" fill="#F3796B"/>
<path d="M483.84 134.185C483.66 135.908 484.298 137.393 485.254 137.491C486.211 137.589 487.126 136.272 487.307 134.549C487.487 132.826 486.849 131.341 485.892 131.243C484.935 131.145 484.02 132.462 483.84 134.185Z" fill="#1E1E1E"/>
<path d="M466.66 132.364C466.479 134.087 467.117 135.572 468.074 135.67C469.031 135.768 469.946 134.451 470.126 132.728C470.306 131.005 469.669 129.52 468.712 129.422C467.755 129.324 466.84 130.641 466.66 132.364Z" fill="#1E1E1E"/>
<path d="M472.248 150.224C478.501 150.883 484.173 146.008 484.256 145.938C484.547 145.686 484.589 145.223 484.325 144.929C484.076 144.635 483.618 144.593 483.327 144.859C482.952 145.181 474.161 152.718 467.006 146.33C466.715 146.064 466.271 146.092 466.008 146.386C465.744 146.68 465.772 147.128 466.063 147.395C468.06 149.188 470.182 150 472.248 150.224Z" fill="#1E1E1E"/>
<path d="M501.797 154.539C501.852 154.735 503.558 160.254 506.636 162.131H506.65L507.219 158.503C507.219 158.503 504.459 157.719 501.783 154.525L501.797 154.539Z" fill="#1E1E1E"/>
<path d="M506.165 142.87C506.165 142.87 513.958 134.311 518.215 142.127C521.723 148.571 512.294 163.406 504.681 157.172L506.165 142.856V142.87Z" fill="#F79A86"/>
<path d="M505.915 154.497C506.276 154.539 506.609 154.301 506.678 153.936C508.162 146.988 514.235 145.167 514.499 145.083C514.873 144.971 515.095 144.579 514.984 144.201C514.873 143.822 514.485 143.598 514.11 143.71C513.819 143.794 506.969 145.826 505.291 153.628C505.208 154.02 505.458 154.399 505.832 154.483C505.86 154.483 505.888 154.483 505.915 154.483V154.497Z" fill="#1E1E1E"/>
<path d="M512.918 150.883C513.126 150.911 513.334 150.841 513.486 150.672C513.764 150.392 513.764 149.944 513.486 149.664C513.223 149.398 510.907 147.128 508.744 147.451C508.356 147.507 508.092 147.871 508.148 148.263C508.203 148.655 508.564 148.921 508.952 148.865C510.2 148.683 511.919 150.112 512.488 150.672C512.613 150.799 512.765 150.855 512.918 150.883Z" fill="#1E1E1E"/>
<path d="M475.95 142.141C476.338 142.183 476.685 141.903 476.726 141.511C476.768 141.119 476.491 140.769 476.102 140.727C473.509 140.446 472.442 138.948 472.109 138.303C475.52 132.756 478.917 127.167 478.959 127.097C479.167 126.76 479.056 126.326 478.723 126.116C478.39 125.906 477.961 126.018 477.753 126.354C477.711 126.41 474.189 132.224 470.708 137.869C470.598 138.051 470.57 138.275 470.639 138.485C470.681 138.611 471.79 141.707 475.95 142.141Z" fill="#1E1E1E"/>
<g opacity="0.5">
<path d="M475.617 136.482C475.478 138.892 479.333 141.077 484.256 141.385C489.165 141.693 493.269 139.984 493.408 137.575C493.546 135.165 489.692 132.98 484.769 132.672C479.86 132.378 475.756 134.073 475.617 136.482Z" fill="#FFFEFE"/>
</g>
<g opacity="0.5">
<path d="M452.862 135.516C452.724 137.925 456.579 140.11 461.501 140.418C466.41 140.727 470.514 139.018 470.653 136.608C470.792 134.199 466.937 132.013 462.014 131.705C457.106 131.411 453.001 133.106 452.862 135.516Z" fill="#FFFEFE"/>
</g>
<path d="M470.611 136.58C470.736 136.58 470.861 136.538 470.958 136.454C472.83 134.801 475.298 136.426 475.395 136.496C475.631 136.65 475.964 136.594 476.116 136.356C476.269 136.118 476.213 135.796 475.978 135.628C474.868 134.871 472.248 133.919 470.279 135.67C470.057 135.866 470.043 136.188 470.223 136.412C470.32 136.538 470.473 136.594 470.611 136.594V136.58Z" fill="#1E1E1E"/>
<path d="M512.211 139.004C512.363 139.004 512.516 138.934 512.627 138.793C512.807 138.569 512.765 138.233 512.529 138.051C504.681 131.901 493.63 136.342 493.172 136.524C492.909 136.636 492.784 136.944 492.881 137.211C492.992 137.477 493.297 137.603 493.56 137.505C493.671 137.463 504.515 133.106 511.892 138.892C511.989 138.962 512.1 139.004 512.211 139.004Z" fill="#1E1E1E"/>
<path d="M526.839 382.116C526.839 382.116 524.385 454.413 438.011 425.626C391.878 410.245 371.411 398.436 371.411 398.436C371.411 398.436 356.865 439.228 349.045 455.87C341.224 472.511 319.495 513.247 319.495 513.247L282.223 503.974C282.223 503.974 325.624 351.368 352.428 344.91C379.232 338.453 411.388 348.721 468.101 361.72C468.101 361.72 517.632 369.383 526.826 382.116H526.839Z" fill="#FFFEFE"/>
<path d="M318.442 499.547C318.885 499.701 319.398 499.519 319.648 499.099C331.684 479.431 343.637 449.636 353.232 425.696C357.267 415.624 360.762 406.911 363.674 400.411C367.612 391.6 369.22 389.849 369.83 389.583C372.507 388.42 381.298 392.44 392.419 397.511C408.531 404.866 432.867 415.988 461.182 421.928C475.7 424.967 488.291 422.978 498.566 416.002C516.87 403.591 521.39 380.071 521.57 379.077C521.681 378.502 521.307 377.956 520.738 377.858C520.17 377.746 519.629 378.124 519.518 378.698C519.476 378.936 514.956 402.372 497.387 414.279C487.584 420.919 475.548 422.796 461.598 419.882C433.519 413.999 409.294 402.933 393.265 395.606C380.327 389.695 372.52 386.137 368.998 387.664C365.795 389.05 360.72 401.392 351.291 424.911C341.723 448.767 329.812 478.479 317.859 497.992C317.554 498.483 317.707 499.141 318.192 499.435C318.261 499.477 318.331 499.519 318.414 499.533L318.442 499.547Z" fill="#D8D8D8"/>
<path d="M286.729 492.291C286.729 492.291 286.771 492.291 286.785 492.305L324.46 502.363C325.014 502.517 325.583 502.181 325.735 501.62C325.888 501.06 325.555 500.472 325 500.332L287.325 490.274C286.771 490.12 286.202 490.456 286.05 491.016C285.911 491.563 286.216 492.109 286.729 492.277V492.291Z" fill="#D8D8D8"/>
<path d="M328.815 339.335L327.476 353.672C327.455 353.896 327.618 354.094 327.839 354.115L442.09 365.005C442.311 365.026 442.507 364.862 442.528 364.639L443.867 350.302C443.888 350.078 443.725 349.88 443.504 349.859L329.253 338.969C329.032 338.948 328.836 339.112 328.815 339.335Z" fill="#1E1E1E"/>
<path d="M315.405 352.923C311.079 352.517 307.556 349.211 306.835 344.882L292.914 261.421C292.068 256.322 296.228 251.798 301.33 252.274L352.844 257.177C356.325 257.513 359.153 260.133 359.777 263.607L376.902 358.779L315.405 352.923Z" fill="#1E1E1E"/>
<path d="M344.857 335.735L344.247 331.252L347.741 331.519L346.687 327.386L351.319 327.75L352.373 331.883L355.229 332.107L354.175 327.975L358.807 328.339L359.86 332.471L363.909 332.779L364.52 337.262L361.025 336.996L361.968 340.792L366.017 341.1L366.627 345.583L363.133 345.317L364.187 349.449L359.555 349.085L358.502 344.953L355.645 344.728L356.699 348.861L352.068 348.497L351.014 344.364L346.965 344.056L346.355 339.573L349.849 339.84L348.906 336.043L344.857 335.735ZM354.48 340.204L357.337 340.428L356.394 336.632L353.537 336.407L354.48 340.204Z" fill="#4A429A"/>
<path d="M299.264 275.164C300.471 280.613 305.366 285.376 310.205 285.81C315.044 286.244 317.984 282.168 316.778 276.718C315.571 271.269 310.676 266.506 305.837 266.072C300.998 265.638 298.058 269.714 299.264 275.164Z" fill="#50F2AE"/>
<path d="M309.054 274.183C309.29 275.276 309.831 276.186 310.247 276.228C310.663 276.27 310.815 275.416 310.565 274.323C310.33 273.23 309.789 272.32 309.373 272.278C308.957 272.236 308.804 273.09 309.054 274.183Z" fill="#1E1E1E"/>
<path d="M304.478 273.777C304.714 274.869 305.255 275.78 305.671 275.822C306.087 275.864 306.239 275.009 305.99 273.917C305.754 272.824 305.213 271.914 304.797 271.872C304.381 271.83 304.228 272.684 304.478 273.777Z" fill="#1E1E1E"/>
<path d="M309.012 280.739C312.784 281.075 312.701 276.901 312.701 276.859C312.701 276.634 312.507 276.396 312.299 276.326C312.077 276.256 311.91 276.382 311.924 276.62C311.924 276.774 311.966 280.164 308.832 279.884C305.684 279.604 304.201 276.074 304.145 275.934C304.048 275.696 303.813 275.528 303.618 275.57C303.424 275.598 303.341 275.822 303.438 276.06C303.452 276.102 305.255 280.417 309.026 280.753L309.012 280.739Z" fill="#1E1E1E"/>
<path d="M359.777 263.621L376.764 358.008L382.657 358.568L365.671 264.181C365.047 260.707 362.218 258.073 358.737 257.751L352.844 257.191C356.325 257.527 359.153 260.147 359.777 263.621Z" fill="#1E1E1E"/>
<path d="M376.237 357.378C376.237 357.378 376.334 357.378 376.389 357.364C376.861 357.28 377.18 356.817 377.083 356.341L360.29 262.164C360.207 261.688 359.75 261.365 359.278 261.449C358.807 261.534 358.488 261.996 358.585 262.472L375.377 356.649C375.446 357.07 375.821 357.378 376.237 357.378Z" fill="#5A4C54"/>
<path d="M341.044 307.046C341.737 312.271 338.201 316.11 333.14 315.633C328.079 315.157 323.42 310.52 322.726 305.295C322.033 300.07 325.569 296.232 330.63 296.708C335.691 297.184 340.35 301.821 341.044 307.032V307.046Z" fill="#FFFEFE"/>
<path d="M459.99 306.962C460.35 306.962 460.697 306.724 460.808 306.36C470.875 276.004 485.421 200.388 485.559 199.617C485.656 199.141 485.337 198.679 484.866 198.595C484.395 198.497 483.937 198.819 483.854 199.295C483.715 200.051 469.197 275.556 459.158 305.813C459.005 306.276 459.255 306.766 459.698 306.92C459.796 306.948 459.879 306.962 459.976 306.962H459.99Z" fill="#FFFEFE"/>
<path d="M438.469 304.076C438.899 304.076 439.273 303.754 439.329 303.32C445.458 258.13 471.041 197.306 471.305 196.689C471.499 196.241 471.291 195.723 470.847 195.541C470.403 195.345 469.89 195.555 469.71 196.003C469.446 196.619 443.766 257.653 437.609 303.082C437.54 303.558 437.873 304.006 438.358 304.076C438.4 304.076 438.441 304.076 438.483 304.076H438.469Z" fill="#FFFEFE"/>
<path d="M500.285 421.956C502.13 421.956 504.112 421.311 506.137 420.037C513.514 415.372 522.444 401.223 525.758 380.155C525.827 379.679 525.508 379.231 525.037 379.147C524.565 379.062 524.122 379.399 524.038 379.875C520.808 400.411 512.252 414.097 505.208 418.552C502.809 420.065 500.535 420.555 498.635 419.966C497.11 419.49 495.917 418.44 495.03 416.731C488.887 405.034 499.564 369.803 499.675 369.453C499.814 368.991 499.564 368.5 499.107 368.36C498.649 368.22 498.164 368.472 498.025 368.935C497.568 370.405 487.029 405.23 493.505 417.557C494.614 419.672 496.181 421.045 498.15 421.647C498.843 421.858 499.564 421.97 500.299 421.97L500.285 421.956Z" fill="#FFFEFE"/>
<path d="M613.269 150.126C611.341 150.014 609.386 147.254 607.251 145.826C604.45 143.948 600.817 140.25 599.305 137.631C597.045 133.694 591.013 121.703 592.136 118.103C593.26 114.489 599.25 124.421 600.525 126.424C601.801 128.441 603.396 129.324 603.396 129.324C603.396 129.324 591.401 105.482 592.608 102.722C593.814 99.9627 601.995 112.836 603.992 116.03C603.992 116.03 595.936 97.5533 597.253 96.0404C599.888 93.0146 609.428 113.27 609.428 113.27C609.428 113.27 603.437 97.3852 606.044 96.4606C608.818 95.48 615.182 112.528 615.182 112.528C615.182 112.528 612.77 101.588 614.669 99.7526C616.569 97.9175 623.377 120.485 624.015 124.085C624.653 127.685 627.149 137.239 627.177 142.015C627.204 145.265 619.37 150.49 613.255 150.112L613.269 150.126Z" fill="#F79A86"/>
<path d="M619.245 117.655C619.231 117.277 618.94 116.969 618.566 116.941C609.733 116.198 603.437 122.362 603.174 122.614C602.883 122.908 602.883 123.384 603.174 123.679C603.465 123.973 603.937 123.973 604.228 123.679C604.228 123.679 610.329 117.739 618.455 118.426C618.857 118.454 619.217 118.159 619.259 117.739C619.259 117.711 619.259 117.669 619.259 117.641L619.245 117.655Z" fill="#F3796B"/>
<path d="M619.855 136.566C619.855 136.272 619.661 135.992 619.356 135.894C611.008 132.896 610.482 125.892 610.468 125.822C610.44 125.416 610.093 125.093 609.677 125.121C609.275 125.149 608.97 125.5 608.984 125.906C608.998 126.242 609.58 133.989 618.857 137.323C619.245 137.463 619.661 137.253 619.8 136.86C619.828 136.762 619.841 136.664 619.841 136.58L619.855 136.566Z" fill="#F3796B"/>
<path d="M547.112 201.564L547.057 201.536H547.112L547.292 201.592L547.708 201.704L548.624 201.957C549.261 202.125 549.927 202.307 550.607 202.475C551.965 202.811 553.352 203.133 554.766 203.427C557.595 204.002 560.479 204.52 563.377 204.898C564.833 205.08 566.289 205.262 567.745 205.417C569.201 205.557 570.657 205.683 572.127 205.767C573.583 205.865 575.053 205.907 576.509 205.949C577.965 205.991 579.421 206.005 580.877 205.977C592.525 205.837 604.006 203.89 614.808 199.967C615.487 199.729 616.153 199.477 616.832 199.211C617.512 198.959 618.164 198.679 618.829 198.412L619.328 198.202C619.12 198.286 618.912 198.398 618.677 198.511C618.233 198.749 617.748 199.029 617.304 199.365C616.846 199.701 616.416 200.065 616.042 200.458C615.668 200.836 615.335 201.228 615.058 201.578C614.517 202.293 614.212 202.909 614.059 203.273C613.893 203.652 613.865 203.848 613.865 203.862C613.879 203.904 614.018 203.343 614.073 202.531C614.128 201.718 614.142 200.668 614.101 199.491C614.059 198.314 613.948 197.04 613.782 195.709C613.477 193.033 612.964 190.148 612.367 187.206C611.133 181.308 609.483 175.173 607.667 169.037C606.765 165.969 605.795 162.888 604.796 159.806C604.311 158.265 603.798 156.738 603.285 155.211L601.801 150.785L630.352 136.286L631.032 137.589L631.656 138.807L632.862 141.217C633.638 142.828 634.401 144.439 635.164 146.064C636.647 149.314 638.062 152.592 639.421 155.94C642.111 162.635 644.551 169.514 646.548 176.924C647.546 180.622 648.42 184.46 649.099 188.593C649.432 190.666 649.71 192.809 649.89 195.078C650.084 197.348 650.167 199.757 650.07 202.419C649.959 205.08 649.682 208.008 648.836 211.44C648.406 213.149 647.81 215.012 646.936 217.015C646.077 218.991 644.884 221.162 643.276 223.277C642.471 224.342 641.556 225.392 640.558 226.387C639.546 227.381 638.45 228.334 637.285 229.175C636.121 230.015 634.9 230.771 633.68 231.402C633.07 231.724 632.446 232.004 631.85 232.27L631.143 232.565C630.2 232.957 629.271 233.349 628.328 233.727C627.385 234.105 626.442 234.47 625.485 234.82C623.585 235.534 621.672 236.179 619.744 236.795C617.817 237.383 615.876 237.958 613.934 238.462C611.993 238.98 610.038 239.429 608.083 239.849C606.128 240.255 604.159 240.633 602.203 240.941C594.355 242.23 586.479 242.72 578.714 242.538C574.831 242.454 570.976 242.188 567.163 241.74C563.35 241.292 559.564 240.731 555.82 239.961C553.948 239.583 552.09 239.162 550.232 238.7C548.374 238.238 546.53 237.748 544.699 237.173C542.855 236.613 541.025 236.025 539.181 235.352C538.252 235.016 537.336 234.666 536.393 234.288C535.922 234.091 535.451 233.909 534.951 233.699L533.204 232.943L547.098 201.536L547.112 201.564Z" fill="#8696FE"/>
<path d="M642.499 206.958C642.305 207.434 641.792 207.714 641.293 207.588C633.555 205.711 625.693 201.2 625.36 201.018C624.861 200.724 624.681 200.093 624.972 199.589C625.263 199.085 625.887 198.903 626.386 199.197C626.47 199.239 634.332 203.736 641.778 205.557C642.333 205.697 642.679 206.257 642.541 206.831C642.541 206.887 642.513 206.929 642.499 206.972V206.958Z" fill="#4942E4"/>
<path d="M632.862 209.367C632.793 209.549 632.668 209.703 632.501 209.829C632.03 210.165 631.378 210.067 631.045 209.591C630.865 209.339 626.511 203.245 625.485 200.92C625.249 200.388 625.485 199.771 626.012 199.533C626.539 199.295 627.149 199.533 627.385 200.065C628.328 202.195 632.682 208.302 632.737 208.358C632.959 208.666 632.987 209.045 632.862 209.367Z" fill="#4942E4"/>
<path d="M633.319 144.075C633.236 144.299 633.056 144.467 632.806 144.537C623.821 147.212 608.166 155.085 608.013 155.169C607.625 155.365 607.154 155.211 606.946 154.805C606.751 154.413 606.904 153.936 607.292 153.74C607.445 153.656 623.225 145.728 632.349 143.01C632.765 142.884 633.209 143.122 633.333 143.556C633.389 143.738 633.375 143.92 633.306 144.075H633.319Z" fill="#4942E4"/>
<path d="M548.277 533.923C548.499 534.904 548.762 535.871 549.067 536.809C551.106 543.127 554.849 548.17 559.938 550.257C579.213 558.158 597.336 555.426 634.221 554.558C671.091 553.689 698.478 543.827 695.066 513.149C694.789 510.726 694.331 508.47 693.707 506.355C692.889 503.582 691.78 501.074 690.463 498.805C688.924 496.129 687.093 493.776 685.096 491.731C674.752 481.112 659.166 477.638 645.203 482.471C631.42 487.248 607.056 489.559 581.695 490.064C554.447 490.624 544.256 516.343 548.277 533.895V533.923Z" fill="#50F2AE"/>
<path d="M548.277 533.923C548.499 534.904 548.762 535.871 549.067 536.809C555.598 542.566 567.912 546.209 585.758 547.637C591.36 548.1 597.53 548.31 604.158 548.31C619.509 548.31 637.396 547.105 656.934 544.738C673.463 542.735 684.639 536.851 690.172 527.256C694.29 520.111 694.498 512.309 693.708 506.369C692.889 503.596 691.78 501.088 690.463 498.819C691.891 503.259 695.039 515.867 688.896 526.527C683.613 535.702 672.797 541.334 656.754 543.281C598.792 550.313 559.342 546.895 548.277 533.923Z" fill="#44E3A0"/>
<path d="M658.473 495.975C669.802 496.9 678.177 507.336 676.319 518.669C676.277 518.893 676.25 519.103 676.194 519.327C673.754 531.668 657.322 531.304 611.702 531.738C575.968 532.074 557.595 519.159 567.107 503.203C574.665 490.512 634.345 494.014 658.473 495.975Z" fill="#44E3A0"/>
<path d="M572.293 505.319C588.919 526.233 656.726 527.41 665.628 511.748C669.968 504.128 668.762 494.35 666.405 486.337C666.155 485.497 665.892 484.671 665.628 483.872C663.188 476.658 660.123 471.391 660.123 471.391C660.123 471.391 660.4 478.843 635.386 476.168C632.529 475.859 629.27 475.733 625.79 475.775C625.138 475.775 624.487 475.789 623.821 475.817C596.851 476.63 557.942 487.262 572.307 505.333L572.293 505.319Z" fill="#1E1E1E"/>
<path d="M626.774 492.851C630.685 497.264 637.493 498.931 646.437 497.656C646.645 497.628 646.839 497.6 647.033 497.572C658.307 495.821 663.798 490.4 666.391 486.337C666.141 485.497 665.878 484.671 665.614 483.872C663.701 487.612 658.653 493.986 646.16 495.751C637.881 496.928 631.655 495.471 628.189 491.563C625.069 488.032 624.237 482.583 625.762 475.761C625.111 475.761 624.459 475.775 623.793 475.803C622.254 483.06 623.28 488.929 626.761 492.851H626.774Z" fill="#FBAB47"/>
<path d="M581.695 490.092C581.695 490.092 565.776 488.901 563.89 480.79C562.005 472.679 598.529 479.796 602.55 463.07C606.585 446.358 590.431 433.022 585.189 437.911C578.977 443.71 592.58 446.176 593.315 454.777C593.925 461.921 589.543 468.505 575.94 469.486C562.337 470.466 556.264 472.595 556.319 478.983C556.389 485.931 567.399 493.103 574.096 493.552C580.793 494 581.695 490.092 581.695 490.092Z" fill="#1E1E1E"/>
<path d="M651.54 465.227C651.54 465.227 656.268 459.021 663.95 454.889C665.073 454.287 666.405 455.197 666.266 456.472L664.81 470.704C664.81 470.704 653.772 471.657 651.526 465.241L651.54 465.227Z" fill="#1E1E1E"/>
<path d="M662.12 468.981C662.744 465.759 662.896 462.369 663.631 458.559C663.631 458.559 655.325 463.56 654.84 466.306C654.84 466.306 659.416 469.808 662.12 468.981Z" fill="#5A4C54"/>
<path d="M637.133 465.801C637.133 465.801 630.643 461.851 622.143 460.772C620.756 460.59 619.73 462.075 620.354 463.35L626.164 475.061C626.164 475.061 637.354 472.609 637.119 465.801H637.133Z" fill="#1E1E1E"/>
<path d="M628.633 473.184C626.885 470.41 625.526 467.3 623.474 464.036C623.474 464.036 633 465.647 634.456 468.029C634.456 468.029 631.447 472.974 628.633 473.198V473.184Z" fill="#5A4C54"/>
<path d="M657.71 465.479C657.71 465.479 667.542 466.992 666.807 478.633C666.072 490.274 654.854 491.507 654.854 491.507C654.854 491.507 652.857 495.247 645.924 496.76C641.487 497.726 634.886 497.418 633.208 494.126C633.208 494.126 623.585 490.568 623.696 481.897C623.821 472.287 635.275 460.492 657.71 465.479Z" fill="#1E1E1E"/>
<path d="M667.694 492.991C667.694 492.991 663.687 509.507 660.317 512.925C656.962 516.329 653.315 518.206 648.628 518.781C641.071 519.705 642.457 524.804 644.718 526.555C647.324 528.586 651.956 527.424 658.917 527.424C664.921 527.424 670.578 526.219 672.617 522.227C674.641 518.234 674.516 506.439 672.353 499.799C671.022 495.709 669.15 493.566 667.708 493.005L667.694 492.991Z" fill="#1E1E1E"/>
<path d="M616.902 494.084C616.902 494.084 620.909 510.6 624.279 514.018C627.634 517.422 631.309 519.117 635.968 519.873C641.667 520.784 641.14 526.219 639.878 527.648C637.673 530.127 632.64 528.516 625.679 528.516C619.675 528.516 612.575 526.093 610.537 522.1C608.512 518.108 610.079 507.532 612.243 500.892C613.574 496.802 615.446 494.658 616.888 494.098L616.902 494.084Z" fill="#1E1E1E"/>
<path d="M583.331 490.792C583.331 490.792 572.751 488.229 569.34 496.283C563.974 508.947 568.258 516.189 582.555 518.206C596.851 520.223 613.088 522.955 600.817 512.673C588.531 502.405 583.331 490.792 583.331 490.792Z" fill="#1E1E1E"/>
<path d="M640.266 484.278C640.266 484.278 644.537 483.816 645.674 484.348C647.588 485.231 644.51 488.831 642.554 489.139C640.599 489.447 638.699 487.136 638.727 485.623C638.755 484.124 640.266 484.278 640.266 484.278Z" fill="#5A4C54"/>
<path d="M638.076 480.958C638.284 480.832 638.505 481.098 638.353 481.281C637.507 482.303 635.94 483.648 633.819 483.2C632.071 482.821 631.406 481.589 631.17 480.51C631.115 480.272 631.447 480.132 631.558 480.356C632.016 481.154 632.89 481.967 634.595 482.079C635.885 482.163 637.202 481.519 638.076 480.972V480.958Z" fill="#5A4C54"/>
<path d="M654.618 480.076C654.798 479.908 655.062 480.132 654.951 480.342C654.299 481.505 653.01 483.116 650.847 483.074C649.058 483.032 648.184 481.939 647.754 480.916C647.657 480.692 647.948 480.496 648.115 480.692C648.697 481.393 649.709 482.037 651.415 481.827C652.691 481.673 653.883 480.79 654.632 480.09L654.618 480.076Z" fill="#5A4C54"/>
</g>
<defs>
<clipPath id="clip0_9_54">
<rect width="873" height="569" fill="white"/>
</clipPath>
</defs>
</svg>
