<svg width="484" height="281" viewBox="0 0 484 281" fill="none" xmlns="http://www.w3.org/2000/svg">
<path d="M6.21106 226.055H4.70813V214.523H0.665161V213.205H10.2365V214.523H6.21106V226.055ZM13.4181 212.379V216.466C13.4181 216.7 13.4122 216.938 13.4005 217.178C13.3888 217.412 13.3683 217.629 13.339 217.828H13.4357C13.6349 217.488 13.8868 217.204 14.1915 216.976C14.5021 216.741 14.8536 216.565 15.2462 216.448C15.6388 216.325 16.0548 216.264 16.4943 216.264C17.2677 216.264 17.9122 216.387 18.4279 216.633C18.9493 216.879 19.339 217.26 19.5968 217.775C19.8605 218.291 19.9923 218.959 19.9923 219.779V226.055H18.5509V219.876C18.5509 219.073 18.3663 218.473 17.9972 218.074C17.6339 217.676 17.0743 217.477 16.3185 217.477C15.6036 217.477 15.0323 217.614 14.6046 217.89C14.1827 218.159 13.8781 218.558 13.6906 219.085C13.5089 219.612 13.4181 220.257 13.4181 221.019V226.055H11.9591V212.379H13.4181ZM26.7072 216.246C27.5275 216.246 28.2306 216.428 28.8165 216.791C29.4025 217.154 29.8507 217.664 30.1613 218.32C30.4718 218.971 30.6271 219.732 30.6271 220.605V221.511H23.9738C23.9913 222.642 24.2726 223.503 24.8175 224.095C25.3624 224.687 26.13 224.982 27.1202 224.982C27.7296 224.982 28.2687 224.927 28.7374 224.815C29.2062 224.704 29.6925 224.54 30.1964 224.323V225.606C29.7101 225.823 29.2267 225.981 28.7462 226.081C28.2716 226.181 27.7091 226.23 27.0587 226.23C26.1329 226.23 25.3243 226.043 24.6329 225.668C23.9474 225.287 23.4142 224.73 23.0333 223.998C22.6525 223.266 22.462 222.369 22.462 221.309C22.462 220.271 22.6349 219.375 22.9806 218.619C23.3322 217.857 23.8243 217.271 24.4572 216.861C25.0958 216.451 25.8458 216.246 26.7072 216.246ZM26.6896 217.441C25.9103 217.441 25.2892 217.696 24.8263 218.206C24.3634 218.716 24.088 219.428 24.0001 220.342H29.0978C29.0919 219.768 29.0011 219.264 28.8253 218.83C28.6554 218.391 28.3947 218.051 28.0431 217.811C27.6915 217.564 27.2404 217.441 26.6896 217.441ZM47.1732 216.264C48.3217 216.264 49.1742 216.521 49.7308 217.037C50.2875 217.553 50.5658 218.376 50.5658 219.507V226.055H49.5023L49.2211 224.631H49.1508C48.8812 224.982 48.6 225.278 48.307 225.519C48.014 225.753 47.6742 225.932 47.2875 226.055C46.9066 226.172 46.4379 226.23 45.8812 226.23C45.2953 226.23 44.7738 226.128 44.3168 225.923C43.8656 225.718 43.5082 225.407 43.2445 224.991C42.9867 224.575 42.8578 224.048 42.8578 223.409C42.8578 222.448 43.2386 221.71 44.0004 221.194C44.7621 220.679 45.9222 220.397 47.4808 220.351L49.142 220.28V219.691C49.142 218.859 48.9633 218.276 48.6058 217.942C48.2484 217.608 47.7445 217.441 47.0941 217.441C46.5902 217.441 46.1097 217.515 45.6527 217.661C45.1957 217.808 44.7621 217.98 44.3519 218.18L43.9037 217.072C44.3373 216.85 44.8353 216.659 45.3978 216.501C45.9603 216.343 46.5521 216.264 47.1732 216.264ZM49.1244 221.309L47.6566 221.37C46.4554 221.417 45.6088 221.613 45.1166 221.959C44.6244 222.305 44.3783 222.794 44.3783 223.427C44.3783 223.978 44.5453 224.385 44.8793 224.648C45.2133 224.912 45.6556 225.044 46.2064 225.044C47.0619 225.044 47.7621 224.807 48.307 224.332C48.8519 223.857 49.1244 223.146 49.1244 222.196V221.309ZM55.0306 212.379V215.798C55.0306 216.19 55.0189 216.571 54.9955 216.94C54.9779 217.31 54.9633 217.597 54.9515 217.802H55.0306C55.2943 217.368 55.6752 217.002 56.1732 216.703C56.6713 216.404 57.307 216.255 58.0804 216.255C59.2875 216.255 60.2484 216.674 60.9633 217.512C61.684 218.344 62.0443 219.583 62.0443 221.229C62.0443 222.313 61.8802 223.228 61.5521 223.972C61.224 224.716 60.7611 225.278 60.1635 225.659C59.5658 226.04 58.8597 226.23 58.0453 226.23C57.2836 226.23 56.6566 226.09 56.1644 225.809C55.6781 225.521 55.3031 225.173 55.0394 224.763H54.9252L54.6263 226.055H53.5717V212.379H55.0306ZM57.8431 217.477C57.1459 217.477 56.5922 217.614 56.182 217.89C55.7719 218.159 55.476 218.569 55.2943 219.12C55.1185 219.665 55.0306 220.356 55.0306 221.194V221.273C55.0306 222.486 55.2328 223.415 55.6371 224.06C56.0414 224.698 56.7767 225.018 57.8431 225.018C58.7396 225.018 59.4105 224.689 59.8558 224.033C60.307 223.377 60.5326 222.439 60.5326 221.221C60.5326 219.979 60.3099 219.044 59.8646 218.417C59.4252 217.79 58.7513 217.477 57.8431 217.477ZM66.0521 216.422V226.055H64.5931V216.422H66.0521ZM65.3402 212.818C65.5804 212.818 65.7855 212.897 65.9554 213.056C66.1312 213.208 66.2191 213.448 66.2191 213.776C66.2191 214.099 66.1312 214.339 65.9554 214.497C65.7855 214.655 65.5804 214.734 65.3402 214.734C65.0883 214.734 64.8773 214.655 64.7074 214.497C64.5433 214.339 64.4613 214.099 64.4613 213.776C64.4613 213.448 64.5433 213.208 64.7074 213.056C64.8773 212.897 65.0883 212.818 65.3402 212.818ZM70.6136 226.055H69.1459V212.379H70.6136V226.055ZM75.1576 216.422V226.055H73.6986V216.422H75.1576ZM74.4457 212.818C74.6859 212.818 74.891 212.897 75.0609 213.056C75.2367 213.208 75.3246 213.448 75.3246 213.776C75.3246 214.099 75.2367 214.339 75.0609 214.497C74.891 214.655 74.6859 214.734 74.4457 214.734C74.1937 214.734 73.9828 214.655 73.8129 214.497C73.6488 214.339 73.5668 214.099 73.5668 213.776C73.5668 213.448 73.6488 213.208 73.8129 213.056C73.9828 212.897 74.1937 212.818 74.4457 212.818ZM81.3627 225.035C81.6029 225.035 81.849 225.015 82.101 224.974C82.3529 224.933 82.558 224.883 82.7162 224.824V225.958C82.5463 226.034 82.309 226.099 82.0043 226.151C81.7054 226.204 81.4125 226.23 81.1254 226.23C80.6156 226.23 80.1527 226.143 79.7367 225.967C79.3207 225.785 78.9867 225.48 78.7347 225.053C78.4886 224.625 78.3656 224.033 78.3656 223.277V217.564H76.9945V216.853L78.3744 216.281L78.9545 214.189H79.8334V216.422H82.6547V217.564H79.8334V223.233C79.8334 223.837 79.9711 224.288 80.2465 224.587C80.5277 224.886 80.8998 225.035 81.3627 225.035ZM83.1469 216.422H84.7113L86.8383 222.012C86.9613 222.34 87.0756 222.656 87.181 222.961C87.2865 223.26 87.3802 223.547 87.4623 223.822C87.5443 224.098 87.6088 224.364 87.6556 224.622H87.7172C87.7992 224.329 87.9164 223.945 88.0687 223.471C88.2211 222.99 88.3851 222.501 88.5609 222.003L90.5736 216.422H92.1469L87.9545 227.47C87.7318 228.062 87.4711 228.577 87.1722 229.017C86.8793 229.456 86.5219 229.793 86.1 230.027C85.6781 230.268 85.1683 230.388 84.5707 230.388C84.2953 230.388 84.0521 230.37 83.8412 230.335C83.6302 230.306 83.4486 230.271 83.2963 230.229V229.061C83.4252 229.09 83.5804 229.116 83.7621 229.14C83.9496 229.163 84.1429 229.175 84.3422 229.175C84.7054 229.175 85.0189 229.104 85.2826 228.964C85.5521 228.829 85.7836 228.63 85.9769 228.366C86.1703 228.103 86.3373 227.789 86.4779 227.426L87.0052 226.072L83.1469 216.422ZM107.26 225.035C107.501 225.035 107.747 225.015 107.999 224.974C108.251 224.933 108.456 224.883 108.614 224.824V225.958C108.444 226.034 108.207 226.099 107.902 226.151C107.603 226.204 107.31 226.23 107.023 226.23C106.513 226.23 106.05 226.143 105.634 225.967C105.218 225.785 104.884 225.48 104.632 225.053C104.386 224.625 104.263 224.033 104.263 223.277V217.564H102.892V216.853L104.272 216.281L104.852 214.189H105.731V216.422H108.552V217.564H105.731V223.233C105.731 223.837 105.869 224.288 106.144 224.587C106.425 224.886 106.797 225.035 107.26 225.035ZM118.871 221.221C118.871 222.012 118.768 222.718 118.563 223.339C118.358 223.96 118.062 224.484 117.675 224.912C117.289 225.34 116.82 225.668 116.269 225.896C115.724 226.119 115.106 226.23 114.415 226.23C113.77 226.23 113.178 226.119 112.639 225.896C112.106 225.668 111.643 225.34 111.251 224.912C110.864 224.484 110.562 223.96 110.345 223.339C110.134 222.718 110.029 222.012 110.029 221.221C110.029 220.166 110.208 219.27 110.565 218.531C110.922 217.787 111.432 217.222 112.094 216.835C112.762 216.442 113.556 216.246 114.476 216.246C115.355 216.246 116.123 216.442 116.779 216.835C117.441 217.228 117.954 217.796 118.317 218.54C118.686 219.278 118.871 220.172 118.871 221.221ZM111.541 221.221C111.541 221.994 111.643 222.665 111.848 223.233C112.053 223.802 112.37 224.241 112.797 224.552C113.225 224.862 113.776 225.018 114.45 225.018C115.118 225.018 115.666 224.862 116.093 224.552C116.527 224.241 116.846 223.802 117.051 223.233C117.256 222.665 117.359 221.994 117.359 221.221C117.359 220.453 117.256 219.791 117.051 219.234C116.846 218.672 116.53 218.238 116.102 217.934C115.674 217.629 115.121 217.477 114.441 217.477C113.439 217.477 112.704 217.808 112.235 218.47C111.772 219.132 111.541 220.049 111.541 221.221ZM135.716 226.23C134.849 226.23 134.084 226.052 133.422 225.694C132.76 225.337 132.244 224.792 131.875 224.06C131.506 223.327 131.321 222.404 131.321 221.291C131.321 220.125 131.515 219.173 131.901 218.435C132.294 217.69 132.833 217.14 133.518 216.782C134.204 216.425 134.983 216.246 135.856 216.246C136.337 216.246 136.8 216.296 137.245 216.396C137.696 216.489 138.065 216.609 138.352 216.756L137.913 217.978C137.62 217.86 137.28 217.755 136.893 217.661C136.513 217.567 136.155 217.521 135.821 217.521C135.153 217.521 134.597 217.664 134.151 217.951C133.712 218.238 133.381 218.66 133.158 219.217C132.941 219.773 132.833 220.459 132.833 221.273C132.833 222.053 132.938 222.718 133.149 223.269C133.366 223.819 133.685 224.241 134.107 224.534C134.535 224.821 135.068 224.965 135.707 224.965C136.217 224.965 136.677 224.912 137.087 224.807C137.497 224.695 137.869 224.566 138.203 224.42V225.721C137.881 225.885 137.52 226.011 137.122 226.099C136.729 226.187 136.261 226.23 135.716 226.23ZM148.794 221.221C148.794 222.012 148.691 222.718 148.486 223.339C148.281 223.96 147.985 224.484 147.599 224.912C147.212 225.34 146.743 225.668 146.192 225.896C145.647 226.119 145.029 226.23 144.338 226.23C143.693 226.23 143.101 226.119 142.562 225.896C142.029 225.668 141.566 225.34 141.174 224.912C140.787 224.484 140.485 223.96 140.268 223.339C140.057 222.718 139.952 222.012 139.952 221.221C139.952 220.166 140.131 219.27 140.488 218.531C140.846 217.787 141.355 217.222 142.017 216.835C142.685 216.442 143.479 216.246 144.399 216.246C145.278 216.246 146.046 216.442 146.702 216.835C147.364 217.228 147.877 217.796 148.24 218.54C148.609 219.278 148.794 220.172 148.794 221.221ZM141.464 221.221C141.464 221.994 141.566 222.665 141.771 223.233C141.976 223.802 142.293 224.241 142.721 224.552C143.148 224.862 143.699 225.018 144.373 225.018C145.041 225.018 145.589 224.862 146.016 224.552C146.45 224.241 146.769 223.802 146.974 223.233C147.18 222.665 147.282 221.994 147.282 221.221C147.282 220.453 147.18 219.791 146.974 219.234C146.769 218.672 146.453 218.238 146.025 217.934C145.598 217.629 145.044 217.477 144.364 217.477C143.362 217.477 142.627 217.808 142.158 218.47C141.695 219.132 141.464 220.049 141.464 221.221ZM155.878 216.246C157.02 216.246 157.885 216.527 158.471 217.09C159.057 217.646 159.349 218.543 159.349 219.779V226.055H157.908V219.876C157.908 219.073 157.724 218.473 157.354 218.074C156.991 217.676 156.432 217.477 155.676 217.477C154.609 217.477 153.859 217.778 153.426 218.382C152.992 218.985 152.775 219.861 152.775 221.01V226.055H151.316V216.422H152.494L152.714 217.811H152.793C152.998 217.471 153.259 217.187 153.575 216.958C153.891 216.724 154.246 216.548 154.639 216.431C155.031 216.308 155.444 216.246 155.878 216.246ZM165.783 226.23C164.564 226.23 163.598 225.814 162.883 224.982C162.174 224.15 161.819 222.914 161.819 221.273C161.819 219.615 162.182 218.364 162.909 217.521C163.636 216.671 164.602 216.246 165.809 216.246C166.319 216.246 166.765 216.313 167.145 216.448C167.526 216.583 167.854 216.765 168.13 216.993C168.405 217.216 168.637 217.471 168.824 217.758H168.93C168.906 217.576 168.883 217.327 168.859 217.011C168.836 216.694 168.824 216.437 168.824 216.237V212.379H170.283V226.055H169.105L168.886 224.684H168.824C168.642 224.971 168.411 225.231 168.13 225.466C167.854 225.7 167.523 225.888 167.137 226.028C166.756 226.163 166.305 226.23 165.783 226.23ZM166.012 225.018C167.043 225.018 167.772 224.725 168.2 224.139C168.628 223.553 168.842 222.683 168.842 221.528V221.265C168.842 220.04 168.637 219.1 168.226 218.443C167.822 217.787 167.084 217.459 166.012 217.459C165.115 217.459 164.444 217.805 163.999 218.496C163.554 219.182 163.331 220.119 163.331 221.309C163.331 222.492 163.551 223.406 163.99 224.051C164.435 224.695 165.109 225.018 166.012 225.018ZM181.331 216.422V226.055H180.136L179.925 224.701H179.846C179.646 225.035 179.389 225.316 179.072 225.545C178.756 225.773 178.398 225.943 178 226.055C177.607 226.172 177.188 226.23 176.743 226.23C175.981 226.23 175.343 226.107 174.827 225.861C174.311 225.615 173.922 225.234 173.658 224.719C173.4 224.203 173.271 223.541 173.271 222.732V216.422H174.748V222.627C174.748 223.43 174.93 224.03 175.293 224.429C175.656 224.821 176.21 225.018 176.954 225.018C177.669 225.018 178.237 224.883 178.659 224.613C179.087 224.344 179.394 223.948 179.582 223.427C179.769 222.899 179.863 222.255 179.863 221.493V216.422H181.331ZM188.274 226.23C187.407 226.23 186.642 226.052 185.98 225.694C185.318 225.337 184.803 224.792 184.433 224.06C184.064 223.327 183.88 222.404 183.88 221.291C183.88 220.125 184.073 219.173 184.46 218.435C184.852 217.69 185.391 217.14 186.077 216.782C186.763 216.425 187.542 216.246 188.415 216.246C188.895 216.246 189.358 216.296 189.804 216.396C190.255 216.489 190.624 216.609 190.911 216.756L190.472 217.978C190.179 217.86 189.839 217.755 189.452 217.661C189.071 217.567 188.714 217.521 188.38 217.521C187.712 217.521 187.155 217.664 186.71 217.951C186.27 218.238 185.939 218.66 185.717 219.217C185.5 219.773 185.391 220.459 185.391 221.273C185.391 222.053 185.497 222.718 185.708 223.269C185.925 223.819 186.244 224.241 186.666 224.534C187.094 224.821 187.627 224.965 188.266 224.965C188.775 224.965 189.235 224.912 189.645 224.807C190.056 224.695 190.428 224.566 190.762 224.42V225.721C190.439 225.885 190.079 226.011 189.681 226.099C189.288 226.187 188.819 226.23 188.274 226.23ZM196.158 225.035C196.398 225.035 196.644 225.015 196.896 224.974C197.148 224.933 197.353 224.883 197.512 224.824V225.958C197.342 226.034 197.104 226.099 196.8 226.151C196.501 226.204 196.208 226.23 195.921 226.23C195.411 226.23 194.948 226.143 194.532 225.967C194.116 225.785 193.782 225.48 193.53 225.053C193.284 224.625 193.161 224.033 193.161 223.277V217.564H191.79V216.853L193.17 216.281L193.75 214.189H194.629V216.422H197.45V217.564H194.629V223.233C194.629 223.837 194.766 224.288 195.042 224.587C195.323 224.886 195.695 225.035 196.158 225.035ZM213.038 225.035C213.278 225.035 213.525 225.015 213.776 224.974C214.028 224.933 214.234 224.883 214.392 224.824V225.958C214.222 226.034 213.984 226.099 213.68 226.151C213.381 226.204 213.088 226.23 212.801 226.23C212.291 226.23 211.828 226.143 211.412 225.967C210.996 225.785 210.662 225.48 210.41 225.053C210.164 224.625 210.041 224.033 210.041 223.277V217.564H208.67V216.853L210.05 216.281L210.63 214.189H211.509V216.422H214.33V217.564H211.509V223.233C211.509 223.837 211.647 224.288 211.922 224.587C212.203 224.886 212.575 225.035 213.038 225.035ZM220.052 216.246C220.872 216.246 221.575 216.428 222.161 216.791C222.747 217.154 223.195 217.664 223.506 218.32C223.817 218.971 223.972 219.732 223.972 220.605V221.511H217.318C217.336 222.642 217.617 223.503 218.162 224.095C218.707 224.687 219.475 224.982 220.465 224.982C221.074 224.982 221.613 224.927 222.082 224.815C222.551 224.704 223.037 224.54 223.541 224.323V225.606C223.055 225.823 222.571 225.981 222.091 226.081C221.616 226.181 221.054 226.23 220.403 226.23C219.478 226.23 218.669 226.043 217.978 225.668C217.292 225.287 216.759 224.73 216.378 223.998C215.997 223.266 215.807 222.369 215.807 221.309C215.807 220.271 215.98 219.375 216.325 218.619C216.677 217.857 217.169 217.271 217.802 216.861C218.441 216.451 219.191 216.246 220.052 216.246ZM220.034 217.441C219.255 217.441 218.634 217.696 218.171 218.206C217.708 218.716 217.433 219.428 217.345 220.342H222.443C222.437 219.768 222.346 219.264 222.17 218.83C222 218.391 221.739 218.051 221.388 217.811C221.036 217.564 220.585 217.441 220.034 217.441ZM232.682 223.418C232.682 224.033 232.526 224.552 232.216 224.974C231.911 225.39 231.472 225.703 230.898 225.914C230.329 226.125 229.65 226.23 228.859 226.23C228.185 226.23 227.602 226.178 227.109 226.072C226.617 225.967 226.187 225.817 225.818 225.624V224.279C226.21 224.473 226.679 224.648 227.224 224.807C227.769 224.965 228.325 225.044 228.894 225.044C229.726 225.044 230.329 224.909 230.704 224.64C231.079 224.37 231.267 224.004 231.267 223.541C231.267 223.277 231.191 223.046 231.038 222.847C230.892 222.642 230.643 222.445 230.291 222.258C229.94 222.064 229.453 221.854 228.832 221.625C228.217 221.391 227.684 221.159 227.233 220.931C226.787 220.696 226.442 220.412 226.195 220.078C225.955 219.744 225.835 219.311 225.835 218.777C225.835 217.963 226.163 217.339 226.819 216.905C227.482 216.466 228.349 216.246 229.421 216.246C230.001 216.246 230.543 216.305 231.047 216.422C231.557 216.533 232.031 216.686 232.471 216.879L231.979 218.048C231.58 217.878 231.155 217.734 230.704 217.617C230.253 217.5 229.793 217.441 229.324 217.441C228.651 217.441 228.132 217.553 227.769 217.775C227.411 217.998 227.233 218.303 227.233 218.689C227.233 218.988 227.315 219.234 227.479 219.428C227.649 219.621 227.918 219.803 228.287 219.973C228.656 220.143 229.143 220.342 229.746 220.57C230.35 220.793 230.871 221.024 231.311 221.265C231.75 221.499 232.087 221.786 232.321 222.126C232.562 222.46 232.682 222.891 232.682 223.418ZM238.14 225.035C238.38 225.035 238.626 225.015 238.878 224.974C239.13 224.933 239.335 224.883 239.493 224.824V225.958C239.323 226.034 239.086 226.099 238.781 226.151C238.483 226.204 238.19 226.23 237.902 226.23C237.393 226.23 236.93 226.143 236.514 225.967C236.098 225.785 235.764 225.48 235.512 225.053C235.266 224.625 235.143 224.033 235.143 223.277V217.564H233.772V216.853L235.151 216.281L235.732 214.189H236.61V216.422H239.432V217.564H236.61V223.233C236.61 223.837 236.748 224.288 237.024 224.587C237.305 224.886 237.677 225.035 238.14 225.035ZM247.676 223.418C247.676 224.033 247.521 224.552 247.21 224.974C246.905 225.39 246.466 225.703 245.892 225.914C245.323 226.125 244.644 226.23 243.853 226.23C243.179 226.23 242.596 226.178 242.104 226.072C241.611 225.967 241.181 225.817 240.812 225.624V224.279C241.204 224.473 241.673 224.648 242.218 224.807C242.763 224.965 243.319 225.044 243.888 225.044C244.72 225.044 245.323 224.909 245.698 224.64C246.073 224.37 246.261 224.004 246.261 223.541C246.261 223.277 246.185 223.046 246.032 222.847C245.886 222.642 245.637 222.445 245.285 222.258C244.934 222.064 244.447 221.854 243.826 221.625C243.211 221.391 242.678 221.159 242.227 220.931C241.781 220.696 241.436 220.412 241.19 220.078C240.949 219.744 240.829 219.311 240.829 218.777C240.829 217.963 241.157 217.339 241.814 216.905C242.476 216.466 243.343 216.246 244.415 216.246C244.995 216.246 245.537 216.305 246.041 216.422C246.551 216.533 247.026 216.686 247.465 216.879L246.973 218.048C246.574 217.878 246.15 217.734 245.698 217.617C245.247 217.5 244.787 217.441 244.318 217.441C243.645 217.441 243.126 217.553 242.763 217.775C242.405 217.998 242.227 218.303 242.227 218.689C242.227 218.988 242.309 219.234 242.473 219.428C242.643 219.621 242.912 219.803 243.281 219.973C243.651 220.143 244.137 220.342 244.74 220.57C245.344 220.793 245.865 221.024 246.305 221.265C246.744 221.499 247.081 221.786 247.316 222.126C247.556 222.46 247.676 222.891 247.676 223.418ZM264.09 216.264C265.239 216.264 266.091 216.521 266.648 217.037C267.204 217.553 267.483 218.376 267.483 219.507V226.055H266.419L266.138 224.631H266.068C265.798 224.982 265.517 225.278 265.224 225.519C264.931 225.753 264.591 225.932 264.204 226.055C263.824 226.172 263.355 226.23 262.798 226.23C262.212 226.23 261.691 226.128 261.234 225.923C260.783 225.718 260.425 225.407 260.161 224.991C259.904 224.575 259.775 224.048 259.775 223.409C259.775 222.448 260.156 221.71 260.917 221.194C261.679 220.679 262.839 220.397 264.398 220.351L266.059 220.28V219.691C266.059 218.859 265.88 218.276 265.523 217.942C265.165 217.608 264.661 217.441 264.011 217.441C263.507 217.441 263.027 217.515 262.57 217.661C262.113 217.808 261.679 217.98 261.269 218.18L260.821 217.072C261.254 216.85 261.752 216.659 262.315 216.501C262.877 216.343 263.469 216.264 264.09 216.264ZM266.041 221.309L264.574 221.37C263.372 221.417 262.526 221.613 262.034 221.959C261.541 222.305 261.295 222.794 261.295 223.427C261.295 223.978 261.462 224.385 261.796 224.648C262.13 224.912 262.573 225.044 263.123 225.044C263.979 225.044 264.679 224.807 265.224 224.332C265.769 223.857 266.041 223.146 266.041 222.196V221.309ZM275.05 216.246C276.193 216.246 277.057 216.527 277.643 217.09C278.229 217.646 278.522 218.543 278.522 219.779V226.055H277.08V219.876C277.08 219.073 276.896 218.473 276.527 218.074C276.163 217.676 275.604 217.477 274.848 217.477C273.782 217.477 273.032 217.778 272.598 218.382C272.164 218.985 271.948 219.861 271.948 221.01V226.055H270.489V216.422H271.666L271.886 217.811H271.965C272.17 217.471 272.431 217.187 272.747 216.958C273.064 216.724 273.418 216.548 273.811 216.431C274.203 216.308 274.617 216.246 275.05 216.246ZM284.955 226.23C283.737 226.23 282.77 225.814 282.055 224.982C281.346 224.15 280.992 222.914 280.992 221.273C280.992 219.615 281.355 218.364 282.081 217.521C282.808 216.671 283.775 216.246 284.982 216.246C285.492 216.246 285.937 216.313 286.318 216.448C286.699 216.583 287.027 216.765 287.302 216.993C287.578 217.216 287.809 217.471 287.996 217.758H288.102C288.078 217.576 288.055 217.327 288.032 217.011C288.008 216.694 287.996 216.437 287.996 216.237V212.379H289.455V226.055H288.278L288.058 224.684H287.996C287.815 224.971 287.583 225.231 287.302 225.466C287.027 225.7 286.696 225.888 286.309 226.028C285.928 226.163 285.477 226.23 284.955 226.23ZM285.184 225.018C286.215 225.018 286.945 224.725 287.372 224.139C287.8 223.553 288.014 222.683 288.014 221.528V221.265C288.014 220.04 287.809 219.1 287.399 218.443C286.995 217.787 286.256 217.459 285.184 217.459C284.287 217.459 283.617 217.805 283.171 218.496C282.726 219.182 282.503 220.119 282.503 221.309C282.503 222.492 282.723 223.406 283.162 224.051C283.608 224.695 284.282 225.018 285.184 225.018ZM309.245 223.418C309.245 224.033 309.089 224.552 308.779 224.974C308.474 225.39 308.035 225.703 307.461 225.914C306.892 226.125 306.213 226.23 305.422 226.23C304.748 226.23 304.165 226.178 303.672 226.072C303.18 225.967 302.75 225.817 302.38 225.624V224.279C302.773 224.473 303.242 224.648 303.787 224.807C304.332 224.965 304.888 225.044 305.457 225.044C306.289 225.044 306.892 224.909 307.267 224.64C307.642 224.37 307.83 224.004 307.83 223.541C307.83 223.277 307.754 223.046 307.601 222.847C307.455 222.642 307.206 222.445 306.854 222.258C306.503 222.064 306.016 221.854 305.395 221.625C304.78 221.391 304.247 221.159 303.796 220.931C303.35 220.696 303.005 220.412 302.758 220.078C302.518 219.744 302.398 219.311 302.398 218.777C302.398 217.963 302.726 217.339 303.382 216.905C304.045 216.466 304.912 216.246 305.984 216.246C306.564 216.246 307.106 216.305 307.61 216.422C308.12 216.533 308.594 216.686 309.034 216.879L308.542 218.048C308.143 217.878 307.718 217.734 307.267 217.617C306.816 217.5 306.356 217.441 305.887 217.441C305.214 217.441 304.695 217.553 304.332 217.775C303.974 217.998 303.796 218.303 303.796 218.689C303.796 218.988 303.878 219.234 304.042 219.428C304.212 219.621 304.481 219.803 304.85 219.973C305.219 220.143 305.706 220.342 306.309 220.57C306.913 220.793 307.434 221.024 307.874 221.265C308.313 221.499 308.65 221.786 308.884 222.126C309.125 222.46 309.245 222.891 309.245 223.418ZM319.546 216.422V226.055H318.35L318.139 224.701H318.06C317.861 225.035 317.603 225.316 317.287 225.545C316.97 225.773 316.613 225.943 316.214 226.055C315.822 226.172 315.403 226.23 314.958 226.23C314.196 226.23 313.557 226.107 313.042 225.861C312.526 225.615 312.136 225.234 311.873 224.719C311.615 224.203 311.486 223.541 311.486 222.732V216.422H312.963V222.627C312.963 223.43 313.144 224.03 313.507 224.429C313.871 224.821 314.424 225.018 315.169 225.018C315.883 225.018 316.452 224.883 316.874 224.613C317.301 224.344 317.609 223.948 317.797 223.427C317.984 222.899 318.078 222.255 318.078 221.493V216.422H319.546ZM327.007 216.246C327.201 216.246 327.403 216.258 327.614 216.281C327.825 216.299 328.012 216.325 328.176 216.36L327.992 217.714C327.834 217.673 327.658 217.641 327.464 217.617C327.271 217.594 327.089 217.582 326.92 217.582C326.533 217.582 326.167 217.661 325.821 217.819C325.481 217.972 325.182 218.194 324.924 218.487C324.667 218.774 324.464 219.123 324.318 219.533C324.172 219.938 324.098 220.389 324.098 220.887V226.055H322.63V216.422H323.843L324.002 218.197H324.063C324.262 217.84 324.503 217.515 324.784 217.222C325.065 216.923 325.39 216.686 325.759 216.51C326.134 216.334 326.55 216.246 327.007 216.246ZM332.114 226.055L328.458 216.422H330.022L332.14 222.249C332.287 222.647 332.436 223.087 332.589 223.567C332.741 224.048 332.846 224.435 332.905 224.728H332.966C333.037 224.435 333.154 224.048 333.318 223.567C333.482 223.081 333.631 222.642 333.766 222.249L335.884 216.422H337.449L333.784 226.055H332.114ZM342.705 216.246C343.525 216.246 344.228 216.428 344.814 216.791C345.4 217.154 345.848 217.664 346.159 218.32C346.469 218.971 346.625 219.732 346.625 220.605V221.511H339.971C339.989 222.642 340.27 223.503 340.815 224.095C341.36 224.687 342.128 224.982 343.118 224.982C343.727 224.982 344.266 224.927 344.735 224.815C345.204 224.704 345.69 224.54 346.194 224.323V225.606C345.708 225.823 345.224 225.981 344.744 226.081C344.269 226.181 343.707 226.23 343.056 226.23C342.13 226.23 341.322 226.043 340.63 225.668C339.945 225.287 339.412 224.73 339.031 223.998C338.65 223.266 338.46 222.369 338.46 221.309C338.46 220.271 338.632 219.375 338.978 218.619C339.33 217.857 339.822 217.271 340.455 216.861C341.093 216.451 341.843 216.246 342.705 216.246ZM342.687 217.441C341.908 217.441 341.287 217.696 340.824 218.206C340.361 218.716 340.086 219.428 339.998 220.342H345.095C345.089 219.768 344.999 219.264 344.823 218.83C344.653 218.391 344.392 218.051 344.041 217.811C343.689 217.564 343.238 217.441 342.687 217.441ZM347.583 216.422H349.147L351.274 222.012C351.397 222.34 351.511 222.656 351.617 222.961C351.722 223.26 351.816 223.547 351.898 223.822C351.98 224.098 352.045 224.364 352.091 224.622H352.153C352.235 224.329 352.352 223.945 352.505 223.471C352.657 222.99 352.821 222.501 352.997 222.003L355.009 216.422H356.583L352.39 227.47C352.168 228.062 351.907 228.577 351.608 229.017C351.315 229.456 350.958 229.793 350.536 230.027C350.114 230.268 349.604 230.388 349.006 230.388C348.731 230.388 348.488 230.37 348.277 230.335C348.066 230.306 347.884 230.271 347.732 230.229V229.061C347.861 229.09 348.016 229.116 348.198 229.14C348.385 229.163 348.579 229.175 348.778 229.175C349.141 229.175 349.455 229.104 349.718 228.964C349.988 228.829 350.219 228.63 350.413 228.366C350.606 228.103 350.773 227.789 350.914 227.426L351.441 226.072L347.583 216.422ZM364.352 223.418C364.352 224.033 364.197 224.552 363.886 224.974C363.582 225.39 363.142 225.703 362.568 225.914C362 226.125 361.32 226.23 360.529 226.23C359.855 226.23 359.272 226.178 358.78 226.072C358.288 225.967 357.857 225.817 357.488 225.624V224.279C357.88 224.473 358.349 224.648 358.894 224.807C359.439 224.965 359.996 225.044 360.564 225.044C361.396 225.044 362 224.909 362.375 224.64C362.75 224.37 362.937 224.004 362.937 223.541C362.937 223.277 362.861 223.046 362.709 222.847C362.562 222.642 362.313 222.445 361.962 222.258C361.61 222.064 361.124 221.854 360.503 221.625C359.887 221.391 359.354 221.159 358.903 220.931C358.458 220.696 358.112 220.412 357.866 220.078C357.626 219.744 357.505 219.311 357.505 218.777C357.505 217.963 357.834 217.339 358.49 216.905C359.152 216.466 360.019 216.246 361.091 216.246C361.672 216.246 362.214 216.305 362.717 216.422C363.227 216.533 363.702 216.686 364.141 216.879L363.649 218.048C363.251 217.878 362.826 217.734 362.375 217.617C361.923 217.5 361.464 217.441 360.995 217.441C360.321 217.441 359.802 217.553 359.439 217.775C359.082 217.998 358.903 218.303 358.903 218.689C358.903 218.988 358.985 219.234 359.149 219.428C359.319 219.621 359.589 219.803 359.958 219.973C360.327 220.143 360.813 220.342 361.417 220.57C362.02 220.793 362.542 221.024 362.981 221.265C363.421 221.499 363.757 221.786 363.992 222.126C364.232 222.46 364.352 222.891 364.352 223.418ZM385.469 221.221C385.469 222.012 385.366 222.718 385.161 223.339C384.956 223.96 384.66 224.484 384.273 224.912C383.887 225.34 383.418 225.668 382.867 225.896C382.322 226.119 381.704 226.23 381.013 226.23C380.368 226.23 379.776 226.119 379.237 225.896C378.704 225.668 378.241 225.34 377.849 224.912C377.462 224.484 377.16 223.96 376.943 223.339C376.732 222.718 376.627 222.012 376.627 221.221C376.627 220.166 376.806 219.27 377.163 218.531C377.52 217.787 378.03 217.222 378.692 216.835C379.36 216.442 380.154 216.246 381.074 216.246C381.953 216.246 382.721 216.442 383.377 216.835C384.039 217.228 384.552 217.796 384.915 218.54C385.284 219.278 385.469 220.172 385.469 221.221ZM378.139 221.221C378.139 221.994 378.241 222.665 378.446 223.233C378.651 223.802 378.968 224.241 379.395 224.552C379.823 224.862 380.374 225.018 381.048 225.018C381.716 225.018 382.264 224.862 382.691 224.552C383.125 224.241 383.444 223.802 383.649 223.233C383.854 222.665 383.957 221.994 383.957 221.221C383.957 220.453 383.854 219.791 383.649 219.234C383.444 218.672 383.128 218.238 382.7 217.934C382.272 217.629 381.719 217.477 381.039 217.477C380.037 217.477 379.302 217.808 378.833 218.47C378.37 219.132 378.139 220.049 378.139 221.221ZM392.553 216.246C393.695 216.246 394.559 216.527 395.145 217.09C395.731 217.646 396.024 218.543 396.024 219.779V226.055H394.583V219.876C394.583 219.073 394.398 218.473 394.029 218.074C393.666 217.676 393.106 217.477 392.35 217.477C391.284 217.477 390.534 217.778 390.1 218.382C389.667 218.985 389.45 219.861 389.45 221.01V226.055H387.991V216.422H389.169L389.389 217.811H389.468C389.673 217.471 389.933 217.187 390.25 216.958C390.566 216.724 390.921 216.548 391.313 216.431C391.706 216.308 392.119 216.246 392.553 216.246ZM400.498 226.055H399.03V212.379H400.498V226.055ZM405.042 216.422V226.055H403.583V216.422H405.042ZM404.33 212.818C404.57 212.818 404.775 212.897 404.945 213.056C405.121 213.208 405.209 213.448 405.209 213.776C405.209 214.099 405.121 214.339 404.945 214.497C404.775 214.655 404.57 214.734 404.33 214.734C404.078 214.734 403.867 214.655 403.697 214.497C403.533 214.339 403.451 214.099 403.451 213.776C403.451 213.448 403.533 213.208 403.697 213.056C403.867 212.897 404.078 212.818 404.33 212.818ZM412.697 216.246C413.84 216.246 414.704 216.527 415.29 217.09C415.876 217.646 416.169 218.543 416.169 219.779V226.055H414.727V219.876C414.727 219.073 414.543 218.473 414.174 218.074C413.81 217.676 413.251 217.477 412.495 217.477C411.429 217.477 410.679 217.778 410.245 218.382C409.811 218.985 409.595 219.861 409.595 221.01V226.055H408.136V216.422H409.313L409.533 217.811H409.612C409.817 217.471 410.078 217.187 410.394 216.958C410.711 216.724 411.065 216.548 411.458 216.431C411.85 216.308 412.264 216.246 412.697 216.246ZM422.884 216.246C423.704 216.246 424.407 216.428 424.993 216.791C425.579 217.154 426.027 217.664 426.338 218.32C426.648 218.971 426.804 219.732 426.804 220.605V221.511H420.15C420.168 222.642 420.449 223.503 420.994 224.095C421.539 224.687 422.307 224.982 423.297 224.982C423.906 224.982 424.445 224.927 424.914 224.815C425.383 224.704 425.869 224.54 426.373 224.323V225.606C425.887 225.823 425.403 225.981 424.923 226.081C424.448 226.181 423.886 226.23 423.235 226.23C422.309 226.23 421.501 226.043 420.809 225.668C420.124 225.287 419.591 224.73 419.21 223.998C418.829 223.266 418.639 222.369 418.639 221.309C418.639 220.271 418.811 219.375 419.157 218.619C419.509 217.857 420.001 217.271 420.634 216.861C421.272 216.451 422.022 216.246 422.884 216.246ZM422.866 217.441C422.087 217.441 421.466 217.696 421.003 218.206C420.54 218.716 420.265 219.428 420.177 220.342H425.274C425.268 219.768 425.178 219.264 425.002 218.83C424.832 218.391 424.571 218.051 424.22 217.811C423.868 217.564 423.417 217.441 422.866 217.441ZM441.205 212.379V216.466C441.205 216.7 441.199 216.938 441.188 217.178C441.176 217.412 441.155 217.629 441.126 217.828H441.223C441.422 217.488 441.674 217.204 441.979 216.976C442.289 216.741 442.641 216.565 443.033 216.448C443.426 216.325 443.842 216.264 444.281 216.264C445.055 216.264 445.699 216.387 446.215 216.633C446.736 216.879 447.126 217.26 447.384 217.775C447.648 218.291 447.779 218.959 447.779 219.779V226.055H446.338V219.876C446.338 219.073 446.153 218.473 445.784 218.074C445.421 217.676 444.861 217.477 444.106 217.477C443.391 217.477 442.819 217.614 442.392 217.89C441.97 218.159 441.665 218.558 441.478 219.085C441.296 219.612 441.205 220.257 441.205 221.019V226.055H439.746V212.379H441.205ZM454.494 216.246C455.315 216.246 456.018 216.428 456.604 216.791C457.19 217.154 457.638 217.664 457.948 218.32C458.259 218.971 458.414 219.732 458.414 220.605V221.511H451.761C451.778 222.642 452.06 223.503 452.605 224.095C453.15 224.687 453.917 224.982 454.907 224.982C455.517 224.982 456.056 224.927 456.525 224.815C456.993 224.704 457.48 224.54 457.984 224.323V225.606C457.497 225.823 457.014 225.981 456.533 226.081C456.059 226.181 455.496 226.23 454.846 226.23C453.92 226.23 453.111 226.043 452.42 225.668C451.734 225.287 451.201 224.73 450.82 223.998C450.44 223.266 450.249 222.369 450.249 221.309C450.249 220.271 450.422 219.375 450.768 218.619C451.119 217.857 451.611 217.271 452.244 216.861C452.883 216.451 453.633 216.246 454.494 216.246ZM454.477 217.441C453.697 217.441 453.076 217.696 452.613 218.206C452.151 218.716 451.875 219.428 451.787 220.342H456.885C456.879 219.768 456.788 219.264 456.612 218.83C456.443 218.391 456.182 218.051 455.83 217.811C455.479 217.564 455.027 217.441 454.477 217.441ZM462.36 226.055H460.893V212.379H462.36V226.055ZM469.972 216.246C471.173 216.246 472.131 216.659 472.846 217.485C473.561 218.312 473.918 219.554 473.918 221.212C473.918 222.308 473.754 223.228 473.426 223.972C473.098 224.716 472.635 225.278 472.037 225.659C471.445 226.04 470.745 226.23 469.937 226.23C469.427 226.23 468.979 226.163 468.592 226.028C468.205 225.894 467.874 225.712 467.599 225.483C467.323 225.255 467.095 225.006 466.913 224.736H466.808C466.825 224.965 466.846 225.24 466.869 225.562C466.899 225.885 466.913 226.166 466.913 226.406V230.361H465.445V216.422H466.65L466.843 217.846H466.913C467.101 217.553 467.329 217.286 467.599 217.046C467.868 216.8 468.196 216.606 468.583 216.466C468.976 216.319 469.439 216.246 469.972 216.246ZM469.717 217.477C469.049 217.477 468.51 217.605 468.1 217.863C467.695 218.121 467.4 218.508 467.212 219.023C467.025 219.533 466.925 220.175 466.913 220.948V221.229C466.913 222.044 467.001 222.732 467.177 223.295C467.359 223.857 467.654 224.285 468.065 224.578C468.481 224.871 469.037 225.018 469.734 225.018C470.332 225.018 470.83 224.856 471.229 224.534C471.627 224.212 471.923 223.764 472.116 223.189C472.316 222.609 472.415 221.944 472.415 221.194C472.415 220.058 472.193 219.155 471.747 218.487C471.308 217.813 470.631 217.477 469.717 217.477ZM482.698 223.418C482.698 224.033 482.543 224.552 482.233 224.974C481.928 225.39 481.488 225.703 480.914 225.914C480.346 226.125 479.666 226.23 478.875 226.23C478.201 226.23 477.618 226.178 477.126 226.072C476.634 225.967 476.203 225.817 475.834 225.624V224.279C476.227 224.473 476.695 224.648 477.24 224.807C477.785 224.965 478.342 225.044 478.91 225.044C479.742 225.044 480.346 224.909 480.721 224.64C481.096 224.37 481.283 224.004 481.283 223.541C481.283 223.277 481.207 223.046 481.055 222.847C480.908 222.642 480.659 222.445 480.308 222.258C479.956 222.064 479.47 221.854 478.849 221.625C478.234 221.391 477.7 221.159 477.249 220.931C476.804 220.696 476.458 220.412 476.212 220.078C475.972 219.744 475.852 219.311 475.852 218.777C475.852 217.963 476.18 217.339 476.836 216.905C477.498 216.466 478.365 216.246 479.438 216.246C480.018 216.246 480.56 216.305 481.064 216.422C481.573 216.533 482.048 216.686 482.487 216.879L481.995 218.048C481.597 217.878 481.172 217.734 480.721 217.617C480.27 217.5 479.81 217.441 479.341 217.441C478.667 217.441 478.149 217.553 477.785 217.775C477.428 217.998 477.249 218.303 477.249 218.689C477.249 218.988 477.331 219.234 477.495 219.428C477.665 219.621 477.935 219.803 478.304 219.973C478.673 220.143 479.159 220.342 479.763 220.57C480.366 220.793 480.888 221.024 481.327 221.265C481.767 221.499 482.104 221.786 482.338 222.126C482.578 222.46 482.698 222.891 482.698 223.418ZM6.422 241.246C6.61536 241.246 6.8175 241.258 7.02844 241.281C7.23938 241.299 7.42688 241.325 7.59094 241.36L7.40637 242.714C7.24817 242.673 7.07239 242.641 6.87903 242.617C6.68567 242.594 6.50403 242.582 6.33411 242.582C5.94739 242.582 5.58118 242.661 5.23547 242.819C4.89563 242.972 4.5968 243.194 4.33899 243.487C4.08118 243.774 3.87903 244.123 3.73254 244.533C3.58606 244.938 3.51282 245.389 3.51282 245.887V251.055H2.04504V241.422H3.25793L3.41614 243.197H3.47766C3.67688 242.84 3.91711 242.515 4.19836 242.222C4.47961 241.923 4.80481 241.686 5.17395 241.51C5.54895 241.334 5.96497 241.246 6.422 241.246ZM13.1193 241.246C13.9396 241.246 14.6427 241.428 15.2286 241.791C15.8146 242.154 16.2628 242.664 16.5734 243.32C16.8839 243.971 17.0392 244.732 17.0392 245.605V246.511H10.3859C10.4034 247.642 10.6847 248.503 11.2296 249.095C11.7745 249.687 12.5421 249.982 13.5323 249.982C14.1417 249.982 14.6808 249.927 15.1495 249.815C15.6183 249.704 16.1046 249.54 16.6085 249.323V250.606C16.1222 250.823 15.6388 250.981 15.1583 251.081C14.6837 251.181 14.1212 251.23 13.4708 251.23C12.545 251.23 11.7365 251.043 11.045 250.668C10.3595 250.287 9.82629 249.73 9.44543 248.998C9.06458 248.266 8.87415 247.369 8.87415 246.309C8.87415 245.271 9.047 244.375 9.3927 243.619C9.74426 242.857 10.2365 242.271 10.8693 241.861C11.5079 241.451 12.2579 241.246 13.1193 241.246ZM13.1017 242.441C12.3224 242.441 11.7013 242.696 11.2384 243.206C10.7755 243.716 10.5001 244.428 10.4122 245.342H15.5099C15.504 244.768 15.4132 244.264 15.2374 243.83C15.0675 243.391 14.8068 243.051 14.4552 242.811C14.1036 242.564 13.6525 242.441 13.1017 242.441ZM22.9454 251.23C21.7267 251.23 20.7599 250.814 20.045 249.982C19.3361 249.15 18.9816 247.914 18.9816 246.273C18.9816 244.615 19.3448 243.364 20.0714 242.521C20.798 241.671 21.7648 241.246 22.9718 241.246C23.4816 241.246 23.9269 241.313 24.3077 241.448C24.6886 241.583 25.0167 241.765 25.2921 241.993C25.5675 242.216 25.799 242.471 25.9865 242.758H26.0919C26.0685 242.576 26.045 242.327 26.0216 242.011C25.9982 241.694 25.9865 241.437 25.9865 241.237V237.379H27.4454V251.055H26.2677L26.048 249.684H25.9865C25.8048 249.971 25.5734 250.231 25.2921 250.466C25.0167 250.7 24.6857 250.888 24.299 251.028C23.9181 251.163 23.4669 251.23 22.9454 251.23ZM23.174 250.018C24.2052 250.018 24.9347 249.725 25.3624 249.139C25.7902 248.553 26.004 247.683 26.004 246.528V246.265C26.004 245.04 25.799 244.1 25.3888 243.443C24.9845 242.787 24.2462 242.459 23.174 242.459C22.2775 242.459 21.6066 242.805 21.1613 243.496C20.7159 244.182 20.4933 245.119 20.4933 246.309C20.4933 247.492 20.713 248.406 21.1525 249.051C21.5978 249.695 22.2716 250.018 23.174 250.018ZM38.4933 241.422V251.055H37.298L37.087 249.701H37.0079C36.8087 250.035 36.5509 250.316 36.2345 250.545C35.9181 250.773 35.5607 250.943 35.1622 251.055C34.7697 251.172 34.3507 251.23 33.9054 251.23C33.1437 251.23 32.505 251.107 31.9894 250.861C31.4738 250.615 31.0841 250.234 30.8204 249.719C30.5626 249.203 30.4337 248.541 30.4337 247.732V241.422H31.9103V247.627C31.9103 248.43 32.0919 249.03 32.4552 249.429C32.8185 249.821 33.3722 250.018 34.1163 250.018C34.8312 250.018 35.3995 249.883 35.8214 249.613C36.2491 249.344 36.5568 248.948 36.7443 248.427C36.9318 247.899 37.0255 247.255 37.0255 246.493V241.422H38.4933ZM45.4366 251.23C44.5695 251.23 43.8048 251.052 43.1427 250.694C42.4806 250.337 41.965 249.792 41.5958 249.06C41.2267 248.327 41.0421 247.404 41.0421 246.291C41.0421 245.125 41.2355 244.173 41.6222 243.435C42.0148 242.69 42.5538 242.14 43.2394 241.782C43.9249 241.425 44.7042 241.246 45.5773 241.246C46.0577 241.246 46.5206 241.296 46.9659 241.396C47.4171 241.489 47.7863 241.609 48.0734 241.756L47.6339 242.978C47.3409 242.86 47.0011 242.755 46.6144 242.661C46.2335 242.567 45.8761 242.521 45.5421 242.521C44.8741 242.521 44.3175 242.664 43.8722 242.951C43.4327 243.238 43.1017 243.66 42.879 244.217C42.6622 244.773 42.5538 245.459 42.5538 246.273C42.5538 247.053 42.6593 247.718 42.8702 248.269C43.087 248.819 43.4064 249.241 43.8282 249.534C44.256 249.821 44.7892 249.965 45.4279 249.965C45.9376 249.965 46.3976 249.912 46.8077 249.807C47.2179 249.695 47.59 249.566 47.924 249.42V250.721C47.6017 250.885 47.2413 251.011 46.8429 251.099C46.4503 251.187 45.9816 251.23 45.4366 251.23ZM53.9181 241.246C54.7384 241.246 55.4415 241.428 56.0275 241.791C56.6134 242.154 57.0616 242.664 57.3722 243.32C57.6827 243.971 57.838 244.732 57.838 245.605V246.511H51.1847C51.2023 247.642 51.4835 248.503 52.0284 249.095C52.5734 249.687 53.3409 249.982 54.3312 249.982C54.9406 249.982 55.4796 249.927 55.9484 249.815C56.4171 249.704 56.9034 249.54 57.4073 249.323V250.606C56.921 250.823 56.4376 250.981 55.9572 251.081C55.4825 251.181 54.92 251.23 54.2697 251.23C53.3439 251.23 52.5353 251.043 51.8439 250.668C51.1583 250.287 50.6251 249.73 50.2443 248.998C49.8634 248.266 49.673 247.369 49.673 246.309C49.673 245.271 49.8458 244.375 50.1915 243.619C50.5431 242.857 51.0353 242.271 51.6681 241.861C52.3068 241.451 53.0568 241.246 53.9181 241.246ZM53.9005 242.441C53.1212 242.441 52.5001 242.696 52.0372 243.206C51.5743 243.716 51.299 244.428 51.2111 245.342H56.3087C56.3029 244.768 56.212 244.264 56.0363 243.83C55.8663 243.391 55.6056 243.051 55.254 242.811C54.9025 242.564 54.4513 242.441 53.9005 242.441ZM68.5958 241.264C69.7443 241.264 70.5968 241.521 71.1534 242.037C71.7101 242.553 71.9884 243.376 71.9884 244.507V251.055H70.9249L70.6437 249.631H70.5734C70.3038 249.982 70.0226 250.278 69.7296 250.519C69.4366 250.753 69.0968 250.932 68.7101 251.055C68.3292 251.172 67.8605 251.23 67.3038 251.23C66.7179 251.23 66.1964 251.128 65.7394 250.923C65.2882 250.718 64.9308 250.407 64.6671 249.991C64.4093 249.575 64.2804 249.048 64.2804 248.409C64.2804 247.448 64.6613 246.71 65.423 246.194C66.1847 245.679 67.3448 245.397 68.9034 245.351L70.5646 245.28V244.691C70.5646 243.859 70.3859 243.276 70.0284 242.942C69.671 242.608 69.1671 242.441 68.5167 242.441C68.0128 242.441 67.5323 242.515 67.0753 242.661C66.6183 242.808 66.1847 242.98 65.7745 243.18L65.3263 242.072C65.7599 241.85 66.2579 241.659 66.8204 241.501C67.3829 241.343 67.9747 241.264 68.5958 241.264ZM70.547 246.309L69.0792 246.37C67.8781 246.417 67.0314 246.613 66.5392 246.959C66.047 247.305 65.8009 247.794 65.8009 248.427C65.8009 248.978 65.9679 249.385 66.3019 249.648C66.6359 249.912 67.0782 250.044 67.629 250.044C68.4845 250.044 69.1847 249.807 69.7296 249.332C70.2745 248.857 70.547 248.146 70.547 247.196V246.309ZM78.422 251.23C77.2032 251.23 76.2365 250.814 75.5216 249.982C74.8126 249.15 74.4581 247.914 74.4581 246.273C74.4581 244.615 74.8214 243.364 75.548 242.521C76.2745 241.671 77.2413 241.246 78.4484 241.246C78.9581 241.246 79.4034 241.313 79.7843 241.448C80.1652 241.583 80.4933 241.765 80.7687 241.993C81.0441 242.216 81.2755 242.471 81.463 242.758H81.5685C81.545 242.576 81.5216 242.327 81.4982 242.011C81.4747 241.694 81.463 241.437 81.463 241.237V237.379H82.922V251.055H81.7443L81.5245 249.684H81.463C81.2814 249.971 81.0499 250.231 80.7687 250.466C80.4933 250.7 80.1622 250.888 79.7755 251.028C79.3947 251.163 78.9435 251.23 78.422 251.23ZM78.6505 250.018C79.6818 250.018 80.4113 249.725 80.839 249.139C81.2667 248.553 81.4806 247.683 81.4806 246.528V246.265C81.4806 245.04 81.2755 244.1 80.8654 243.443C80.4611 242.787 79.7228 242.459 78.6505 242.459C77.754 242.459 77.0831 242.805 76.6378 243.496C76.1925 244.182 75.9698 245.119 75.9698 246.309C75.9698 247.492 76.1896 248.406 76.629 249.051C77.0743 249.695 77.7482 250.018 78.6505 250.018ZM96.4747 241.246C97.5353 241.246 98.3351 241.524 98.8741 242.081C99.4132 242.632 99.6827 243.52 99.6827 244.744V251.055H98.2413V244.814C98.2413 244.035 98.0714 243.452 97.7316 243.065C97.3976 242.673 96.8995 242.477 96.2374 242.477C95.3058 242.477 94.629 242.746 94.2072 243.285C93.7853 243.824 93.5743 244.618 93.5743 245.667V251.055H92.1241V244.814C92.1241 244.293 92.048 243.859 91.8956 243.514C91.7491 243.168 91.5265 242.91 91.2277 242.74C90.9347 242.564 90.5626 242.477 90.1115 242.477C89.4728 242.477 88.9601 242.608 88.5734 242.872C88.1866 243.136 87.9054 243.528 87.7296 244.05C87.5597 244.565 87.4747 245.201 87.4747 245.957V251.055H86.0157V241.422H87.1935L87.4132 242.784H87.4923C87.6857 242.45 87.9288 242.169 88.2218 241.94C88.5148 241.712 88.8429 241.539 89.2062 241.422C89.5695 241.305 89.9562 241.246 90.3663 241.246C91.0988 241.246 91.7111 241.384 92.2032 241.659C92.7013 241.929 93.0616 242.342 93.2843 242.898H93.3634C93.6798 242.342 94.1134 241.929 94.6642 241.659C95.215 241.384 95.8185 241.246 96.4747 241.246ZM104.139 241.422V251.055H102.68V241.422H104.139ZM103.427 237.818C103.667 237.818 103.872 237.897 104.042 238.056C104.218 238.208 104.306 238.448 104.306 238.776C104.306 239.099 104.218 239.339 104.042 239.497C103.872 239.655 103.667 239.734 103.427 239.734C103.175 239.734 102.964 239.655 102.794 239.497C102.63 239.339 102.548 239.099 102.548 238.776C102.548 238.448 102.63 238.208 102.794 238.056C102.964 237.897 103.175 237.818 103.427 237.818ZM111.794 241.246C112.937 241.246 113.801 241.527 114.387 242.09C114.973 242.646 115.266 243.543 115.266 244.779V251.055H113.824V244.876C113.824 244.073 113.64 243.473 113.271 243.074C112.907 242.676 112.348 242.477 111.592 242.477C110.526 242.477 109.776 242.778 109.342 243.382C108.908 243.985 108.692 244.861 108.692 246.01V251.055H107.233V241.422H108.41L108.63 242.811H108.709C108.914 242.471 109.175 242.187 109.491 241.958C109.808 241.724 110.162 241.548 110.555 241.431C110.947 241.308 111.36 241.246 111.794 241.246ZM119.731 241.422V251.055H118.272V241.422H119.731ZM119.019 237.818C119.259 237.818 119.464 237.897 119.634 238.056C119.81 238.208 119.898 238.448 119.898 238.776C119.898 239.099 119.81 239.339 119.634 239.497C119.464 239.655 119.259 239.734 119.019 239.734C118.767 239.734 118.556 239.655 118.386 239.497C118.222 239.339 118.14 239.099 118.14 238.776C118.14 238.448 118.222 238.208 118.386 238.056C118.556 237.897 118.767 237.818 119.019 237.818ZM129.056 248.418C129.056 249.033 128.901 249.552 128.59 249.974C128.285 250.39 127.846 250.703 127.272 250.914C126.703 251.125 126.024 251.23 125.233 251.23C124.559 251.23 123.976 251.178 123.484 251.072C122.991 250.967 122.561 250.817 122.192 250.624V249.279C122.584 249.473 123.053 249.648 123.598 249.807C124.143 249.965 124.699 250.044 125.268 250.044C126.1 250.044 126.703 249.909 127.078 249.64C127.453 249.37 127.641 249.004 127.641 248.541C127.641 248.277 127.565 248.046 127.412 247.847C127.266 247.642 127.017 247.445 126.665 247.258C126.314 247.064 125.827 246.854 125.206 246.625C124.591 246.391 124.058 246.159 123.607 245.931C123.161 245.696 122.816 245.412 122.569 245.078C122.329 244.744 122.209 244.311 122.209 243.777C122.209 242.963 122.537 242.339 123.193 241.905C123.856 241.466 124.723 241.246 125.795 241.246C126.375 241.246 126.917 241.305 127.421 241.422C127.931 241.533 128.405 241.686 128.845 241.879L128.353 243.048C127.954 242.878 127.529 242.734 127.078 242.617C126.627 242.5 126.167 242.441 125.698 242.441C125.025 242.441 124.506 242.553 124.143 242.775C123.785 242.998 123.607 243.303 123.607 243.689C123.607 243.988 123.689 244.234 123.853 244.428C124.023 244.621 124.292 244.803 124.661 244.973C125.03 245.143 125.517 245.342 126.12 245.57C126.724 245.793 127.245 246.024 127.685 246.265C128.124 246.499 128.461 246.786 128.695 247.126C128.936 247.46 129.056 247.891 129.056 248.418ZM134.514 250.035C134.754 250.035 135 250.015 135.252 249.974C135.504 249.933 135.709 249.883 135.867 249.824V250.958C135.697 251.034 135.46 251.099 135.155 251.151C134.857 251.204 134.564 251.23 134.276 251.23C133.767 251.23 133.304 251.143 132.888 250.967C132.472 250.785 132.138 250.48 131.886 250.053C131.64 249.625 131.517 249.033 131.517 248.277V242.564H130.146V241.853L131.526 241.281L132.106 239.189H132.984V241.422H135.806V242.564H132.984V248.233C132.984 248.837 133.122 249.288 133.398 249.587C133.679 249.886 134.051 250.035 134.514 250.035ZM142.195 241.246C142.389 241.246 142.591 241.258 142.802 241.281C143.013 241.299 143.2 241.325 143.364 241.36L143.18 242.714C143.022 242.673 142.846 242.641 142.652 242.617C142.459 242.594 142.277 242.582 142.108 242.582C141.721 242.582 141.355 242.661 141.009 242.819C140.669 242.972 140.37 243.194 140.112 243.487C139.855 243.774 139.652 244.123 139.506 244.533C139.359 244.938 139.286 245.389 139.286 245.887V251.055H137.818V241.422H139.031L139.19 243.197H139.251C139.45 242.84 139.691 242.515 139.972 242.222C140.253 241.923 140.578 241.686 140.947 241.51C141.322 241.334 141.738 241.246 142.195 241.246ZM148.787 241.264C149.936 241.264 150.788 241.521 151.345 242.037C151.901 242.553 152.18 243.376 152.18 244.507V251.055H151.116L150.835 249.631H150.765C150.495 249.982 150.214 250.278 149.921 250.519C149.628 250.753 149.288 250.932 148.901 251.055C148.521 251.172 148.052 251.23 147.495 251.23C146.909 251.23 146.388 251.128 145.931 250.923C145.48 250.718 145.122 250.407 144.859 249.991C144.601 249.575 144.472 249.048 144.472 248.409C144.472 247.448 144.853 246.71 145.614 246.194C146.376 245.679 147.536 245.397 149.095 245.351L150.756 245.28V244.691C150.756 243.859 150.577 243.276 150.22 242.942C149.862 242.608 149.359 242.441 148.708 242.441C148.204 242.441 147.724 242.515 147.267 242.661C146.81 242.808 146.376 242.98 145.966 243.18L145.518 242.072C145.951 241.85 146.449 241.659 147.012 241.501C147.574 241.343 148.166 241.264 148.787 241.264ZM150.738 246.309L149.271 246.37C148.069 246.417 147.223 246.613 146.731 246.959C146.238 247.305 145.992 247.794 145.992 248.427C145.992 248.978 146.159 249.385 146.493 249.648C146.827 249.912 147.27 250.044 147.82 250.044C148.676 250.044 149.376 249.807 149.921 249.332C150.466 248.857 150.738 248.146 150.738 247.196V246.309ZM158.297 250.035C158.537 250.035 158.783 250.015 159.035 249.974C159.287 249.933 159.492 249.883 159.651 249.824V250.958C159.481 251.034 159.243 251.099 158.939 251.151C158.64 251.204 158.347 251.23 158.06 251.23C157.55 251.23 157.087 251.143 156.671 250.967C156.255 250.785 155.921 250.48 155.669 250.053C155.423 249.625 155.3 249.033 155.3 248.277V242.564H153.929V241.853L155.309 241.281L155.889 239.189H156.768V241.422H159.589V242.564H156.768V248.233C156.768 248.837 156.905 249.288 157.181 249.587C157.462 249.886 157.834 250.035 158.297 250.035ZM163.061 241.422V251.055H161.602V241.422H163.061ZM162.349 237.818C162.589 237.818 162.794 237.897 162.964 238.056C163.14 238.208 163.228 238.448 163.228 238.776C163.228 239.099 163.14 239.339 162.964 239.497C162.794 239.655 162.589 239.734 162.349 239.734C162.097 239.734 161.886 239.655 161.716 239.497C161.552 239.339 161.47 239.099 161.47 238.776C161.47 238.448 161.552 238.208 161.716 238.056C161.886 237.897 162.097 237.818 162.349 237.818ZM168.273 251.055L164.616 241.422H166.181L168.299 247.249C168.445 247.647 168.595 248.087 168.747 248.567C168.9 249.048 169.005 249.435 169.064 249.728H169.125C169.195 249.435 169.313 249.048 169.477 248.567C169.641 248.081 169.79 247.642 169.925 247.249L172.043 241.422H173.608L169.943 251.055H168.273ZM178.863 241.246C179.684 241.246 180.387 241.428 180.973 241.791C181.559 242.154 182.007 242.664 182.318 243.32C182.628 243.971 182.783 244.732 182.783 245.605V246.511H176.13C176.148 247.642 176.429 248.503 176.974 249.095C177.519 249.687 178.286 249.982 179.276 249.982C179.886 249.982 180.425 249.927 180.894 249.815C181.362 249.704 181.849 249.54 182.353 249.323V250.606C181.866 250.823 181.383 250.981 180.902 251.081C180.428 251.181 179.865 251.23 179.215 251.23C178.289 251.23 177.481 251.043 176.789 250.668C176.104 250.287 175.57 249.73 175.19 248.998C174.809 248.266 174.618 247.369 174.618 246.309C174.618 245.271 174.791 244.375 175.137 243.619C175.488 242.857 175.981 242.271 176.613 241.861C177.252 241.451 178.002 241.246 178.863 241.246ZM178.846 242.441C178.067 242.441 177.445 242.696 176.983 243.206C176.52 243.716 176.244 244.428 176.156 245.342H181.254C181.248 244.768 181.157 244.264 180.982 243.83C180.812 243.391 180.551 243.051 180.199 242.811C179.848 242.564 179.397 242.441 178.846 242.441ZM193.049 250.035C193.289 250.035 193.535 250.015 193.787 249.974C194.039 249.933 194.244 249.883 194.402 249.824V250.958C194.233 251.034 193.995 251.099 193.691 251.151C193.392 251.204 193.099 251.23 192.812 251.23C192.302 251.23 191.839 251.143 191.423 250.967C191.007 250.785 190.673 250.48 190.421 250.053C190.175 249.625 190.052 249.033 190.052 248.277V242.564H188.681V241.853L190.061 241.281L190.641 239.189H191.52V241.422H194.341V242.564H191.52V248.233C191.52 248.837 191.657 249.288 191.933 249.587C192.214 249.886 192.586 250.035 193.049 250.035ZM197.813 241.422V251.055H196.354V241.422H197.813ZM197.101 237.818C197.341 237.818 197.546 237.897 197.716 238.056C197.892 238.208 197.98 238.448 197.98 238.776C197.98 239.099 197.892 239.339 197.716 239.497C197.546 239.655 197.341 239.734 197.101 239.734C196.849 239.734 196.638 239.655 196.468 239.497C196.304 239.339 196.222 239.099 196.222 238.776C196.222 238.448 196.304 238.208 196.468 238.056C196.638 237.897 196.849 237.818 197.101 237.818ZM211.365 241.246C212.426 241.246 213.226 241.524 213.765 242.081C214.304 242.632 214.573 243.52 214.573 244.744V251.055H213.132V244.814C213.132 244.035 212.962 243.452 212.622 243.065C212.288 242.673 211.79 242.477 211.128 242.477C210.196 242.477 209.52 242.746 209.098 243.285C208.676 243.824 208.465 244.618 208.465 245.667V251.055H207.015V244.814C207.015 244.293 206.939 243.859 206.786 243.514C206.64 243.168 206.417 242.91 206.118 242.74C205.825 242.564 205.453 242.477 205.002 242.477C204.363 242.477 203.851 242.608 203.464 242.872C203.077 243.136 202.796 243.528 202.62 244.05C202.45 244.565 202.365 245.201 202.365 245.957V251.055H200.906V241.422H202.084L202.304 242.784H202.383C202.576 242.45 202.819 242.169 203.112 241.94C203.405 241.712 203.734 241.539 204.097 241.422C204.46 241.305 204.847 241.246 205.257 241.246C205.989 241.246 206.602 241.384 207.094 241.659C207.592 241.929 207.952 242.342 208.175 242.898H208.254C208.57 242.342 209.004 241.929 209.555 241.659C210.106 241.384 210.709 241.246 211.365 241.246ZM221.279 241.246C222.1 241.246 222.803 241.428 223.389 241.791C223.975 242.154 224.423 242.664 224.734 243.32C225.044 243.971 225.199 244.732 225.199 245.605V246.511H218.546C218.564 247.642 218.845 248.503 219.39 249.095C219.935 249.687 220.702 249.982 221.693 249.982C222.302 249.982 222.841 249.927 223.31 249.815C223.778 249.704 224.265 249.54 224.769 249.323V250.606C224.282 250.823 223.799 250.981 223.318 251.081C222.844 251.181 222.281 251.23 221.631 251.23C220.705 251.23 219.897 251.043 219.205 250.668C218.52 250.287 217.986 249.73 217.606 248.998C217.225 248.266 217.034 247.369 217.034 246.309C217.034 245.271 217.207 244.375 217.553 243.619C217.904 242.857 218.397 242.271 219.029 241.861C219.668 241.451 220.418 241.246 221.279 241.246ZM221.262 242.441C220.483 242.441 219.861 242.696 219.399 243.206C218.936 243.716 218.66 244.428 218.572 245.342H223.67C223.664 244.768 223.573 244.264 223.398 243.83C223.228 243.391 222.967 243.051 222.615 242.811C222.264 242.564 221.813 242.441 221.262 242.441ZM235.957 241.264C237.106 241.264 237.958 241.521 238.515 242.037C239.071 242.553 239.35 243.376 239.35 244.507V251.055H238.286L238.005 249.631H237.935C237.665 249.982 237.384 250.278 237.091 250.519C236.798 250.753 236.458 250.932 236.071 251.055C235.691 251.172 235.222 251.23 234.665 251.23C234.079 251.23 233.558 251.128 233.101 250.923C232.65 250.718 232.292 250.407 232.028 249.991C231.771 249.575 231.642 249.048 231.642 248.409C231.642 247.448 232.023 246.71 232.784 246.194C233.546 245.679 234.706 245.397 236.265 245.351L237.926 245.28V244.691C237.926 243.859 237.747 243.276 237.39 242.942C237.032 242.608 236.528 242.441 235.878 242.441C235.374 242.441 234.894 242.515 234.437 242.661C233.98 242.808 233.546 242.98 233.136 243.18L232.688 242.072C233.121 241.85 233.619 241.659 234.182 241.501C234.744 241.343 235.336 241.264 235.957 241.264ZM237.908 246.309L236.441 246.37C235.239 246.417 234.393 246.613 233.901 246.959C233.408 247.305 233.162 247.794 233.162 248.427C233.162 248.978 233.329 249.385 233.663 249.648C233.997 249.912 234.44 250.044 234.99 250.044C235.846 250.044 236.546 249.807 237.091 249.332C237.636 248.857 237.908 248.146 237.908 247.196V246.309ZM246.917 241.246C248.06 241.246 248.924 241.527 249.51 242.09C250.096 242.646 250.389 243.543 250.389 244.779V251.055H248.947V244.876C248.947 244.073 248.763 243.473 248.394 243.074C248.03 242.676 247.471 242.477 246.715 242.477C245.649 242.477 244.899 242.778 244.465 243.382C244.031 243.985 243.815 244.861 243.815 246.01V251.055H242.356V241.422H243.533L243.753 242.811H243.832C244.037 242.471 244.298 242.187 244.614 241.958C244.931 241.724 245.285 241.548 245.678 241.431C246.07 241.308 246.484 241.246 246.917 241.246ZM256.822 251.23C255.604 251.23 254.637 250.814 253.922 249.982C253.213 249.15 252.859 247.914 252.859 246.273C252.859 244.615 253.222 243.364 253.948 242.521C254.675 241.671 255.642 241.246 256.849 241.246C257.359 241.246 257.804 241.313 258.185 241.448C258.566 241.583 258.894 241.765 259.169 241.993C259.444 242.216 259.676 242.471 259.863 242.758H259.969C259.945 242.576 259.922 242.327 259.899 242.011C259.875 241.694 259.863 241.437 259.863 241.237V237.379H261.322V251.055H260.145L259.925 249.684H259.863C259.682 249.971 259.45 250.231 259.169 250.466C258.894 250.7 258.563 250.888 258.176 251.028C257.795 251.163 257.344 251.23 256.822 251.23ZM257.051 250.018C258.082 250.018 258.812 249.725 259.239 249.139C259.667 248.553 259.881 247.683 259.881 246.528V246.265C259.881 245.04 259.676 244.1 259.266 243.443C258.861 242.787 258.123 242.459 257.051 242.459C256.154 242.459 255.484 242.805 255.038 243.496C254.593 244.182 254.37 245.119 254.37 246.309C254.37 247.492 254.59 248.406 255.029 249.051C255.475 249.695 256.149 250.018 257.051 250.018ZM273.618 241.246C274.819 241.246 275.777 241.659 276.492 242.485C277.207 243.312 277.565 244.554 277.565 246.212C277.565 247.308 277.401 248.228 277.072 248.972C276.744 249.716 276.281 250.278 275.684 250.659C275.092 251.04 274.392 251.23 273.583 251.23C273.073 251.23 272.625 251.163 272.238 251.028C271.852 250.894 271.521 250.712 271.245 250.483C270.97 250.255 270.741 250.006 270.56 249.736H270.454C270.472 249.965 270.492 250.24 270.516 250.562C270.545 250.885 270.56 251.166 270.56 251.406V255.361H269.092V241.422H270.296L270.489 242.846H270.56C270.747 242.553 270.976 242.286 271.245 242.046C271.515 241.8 271.843 241.606 272.23 241.466C272.622 241.319 273.085 241.246 273.618 241.246ZM273.363 242.477C272.695 242.477 272.156 242.605 271.746 242.863C271.342 243.121 271.046 243.508 270.859 244.023C270.671 244.533 270.571 245.175 270.56 245.948V246.229C270.56 247.044 270.648 247.732 270.823 248.295C271.005 248.857 271.301 249.285 271.711 249.578C272.127 249.871 272.684 250.018 273.381 250.018C273.979 250.018 274.477 249.856 274.875 249.534C275.274 249.212 275.569 248.764 275.763 248.189C275.962 247.609 276.062 246.944 276.062 246.194C276.062 245.058 275.839 244.155 275.394 243.487C274.954 242.813 274.277 242.477 273.363 242.477ZM283.717 241.264C284.865 241.264 285.718 241.521 286.275 242.037C286.831 242.553 287.109 243.376 287.109 244.507V251.055H286.046L285.765 249.631H285.694C285.425 249.982 285.144 250.278 284.851 250.519C284.558 250.753 284.218 250.932 283.831 251.055C283.45 251.172 282.982 251.23 282.425 251.23C281.839 251.23 281.318 251.128 280.86 250.923C280.409 250.718 280.052 250.407 279.788 249.991C279.53 249.575 279.401 249.048 279.401 248.409C279.401 247.448 279.782 246.71 280.544 246.194C281.306 245.679 282.466 245.397 284.025 245.351L285.686 245.28V244.691C285.686 243.859 285.507 243.276 285.15 242.942C284.792 242.608 284.288 242.441 283.638 242.441C283.134 242.441 282.653 242.515 282.196 242.661C281.739 242.808 281.306 242.98 280.896 243.18L280.447 242.072C280.881 241.85 281.379 241.659 281.942 241.501C282.504 241.343 283.096 241.264 283.717 241.264ZM285.668 246.309L284.2 246.37C282.999 246.417 282.152 246.613 281.66 246.959C281.168 247.305 280.922 247.794 280.922 248.427C280.922 248.978 281.089 249.385 281.423 249.648C281.757 249.912 282.199 250.044 282.75 250.044C283.606 250.044 284.306 249.807 284.851 249.332C285.396 248.857 285.668 248.146 285.668 247.196V246.309ZM294.642 241.246C295.843 241.246 296.801 241.659 297.516 242.485C298.231 243.312 298.588 244.554 298.588 246.212C298.588 247.308 298.424 248.228 298.096 248.972C297.768 249.716 297.305 250.278 296.707 250.659C296.115 251.04 295.415 251.23 294.607 251.23C294.097 251.23 293.649 251.163 293.262 251.028C292.875 250.894 292.544 250.712 292.269 250.483C291.993 250.255 291.765 250.006 291.583 249.736H291.478C291.495 249.965 291.516 250.24 291.539 250.562C291.568 250.885 291.583 251.166 291.583 251.406V255.361H290.115V241.422H291.319L291.513 242.846H291.583C291.771 242.553 291.999 242.286 292.269 242.046C292.538 241.8 292.866 241.606 293.253 241.466C293.646 241.319 294.109 241.246 294.642 241.246ZM294.387 242.477C293.719 242.477 293.18 242.605 292.77 242.863C292.365 243.121 292.069 243.508 291.882 244.023C291.694 244.533 291.595 245.175 291.583 245.948V246.229C291.583 247.044 291.671 247.732 291.847 248.295C292.028 248.857 292.324 249.285 292.734 249.578C293.151 249.871 293.707 250.018 294.404 250.018C295.002 250.018 295.5 249.856 295.899 249.534C296.297 249.212 296.593 248.764 296.786 248.189C296.985 247.609 297.085 246.944 297.085 246.194C297.085 245.058 296.862 244.155 296.417 243.487C295.978 242.813 295.301 242.477 294.387 242.477ZM304.846 241.246C305.666 241.246 306.369 241.428 306.955 241.791C307.541 242.154 307.989 242.664 308.3 243.32C308.61 243.971 308.766 244.732 308.766 245.605V246.511H302.112C302.13 247.642 302.411 248.503 302.956 249.095C303.501 249.687 304.269 249.982 305.259 249.982C305.868 249.982 306.407 249.927 306.876 249.815C307.345 249.704 307.831 249.54 308.335 249.323V250.606C307.849 250.823 307.365 250.981 306.885 251.081C306.41 251.181 305.848 251.23 305.197 251.23C304.272 251.23 303.463 251.043 302.772 250.668C302.086 250.287 301.553 249.73 301.172 248.998C300.791 248.266 300.601 247.369 300.601 246.309C300.601 245.271 300.774 244.375 301.119 243.619C301.471 242.857 301.963 242.271 302.596 241.861C303.234 241.451 303.984 241.246 304.846 241.246ZM304.828 242.441C304.049 242.441 303.428 242.696 302.965 243.206C302.502 243.716 302.227 244.428 302.139 245.342H307.236C307.231 244.768 307.14 244.264 306.964 243.83C306.794 243.391 306.533 243.051 306.182 242.811C305.83 242.564 305.379 242.441 304.828 242.441ZM315.621 241.246C315.815 241.246 316.017 241.258 316.228 241.281C316.439 241.299 316.626 241.325 316.79 241.36L316.606 242.714C316.447 242.673 316.272 242.641 316.078 242.617C315.885 242.594 315.703 242.582 315.533 242.582C315.147 242.582 314.78 242.661 314.435 242.819C314.095 242.972 313.796 243.194 313.538 243.487C313.28 243.774 313.078 244.123 312.932 244.533C312.785 244.938 312.712 245.389 312.712 245.887V251.055H311.244V241.422H312.457L312.615 243.197H312.677C312.876 242.84 313.116 242.515 313.398 242.222C313.679 241.923 314.004 241.686 314.373 241.51C314.748 241.334 315.164 241.246 315.621 241.246ZM331.125 251.037L329.411 245.43C329.335 245.189 329.262 244.955 329.192 244.727C329.127 244.492 329.066 244.27 329.007 244.059C328.954 243.842 328.904 243.643 328.858 243.461C328.817 243.273 328.781 243.112 328.752 242.978H328.691C328.667 243.112 328.635 243.273 328.594 243.461C328.553 243.643 328.503 243.842 328.444 244.059C328.392 244.275 328.333 244.504 328.269 244.744C328.204 244.979 328.131 245.216 328.049 245.456L326.256 251.037H324.612L321.958 241.404H323.47L324.859 246.722C324.952 247.073 325.04 247.422 325.122 247.768C325.21 248.107 325.283 248.43 325.342 248.734C325.406 249.033 325.453 249.294 325.483 249.517H325.553C325.588 249.37 325.626 249.194 325.667 248.989C325.714 248.784 325.764 248.567 325.817 248.339C325.875 248.104 325.937 247.873 326.001 247.645C326.066 247.41 326.13 247.19 326.194 246.985L327.97 241.404H329.543L331.257 246.977C331.345 247.258 331.43 247.551 331.512 247.855C331.6 248.16 331.679 248.456 331.749 248.743C331.819 249.024 331.869 249.276 331.899 249.499H331.969C331.992 249.3 332.036 249.054 332.101 248.761C332.165 248.468 332.238 248.146 332.32 247.794C332.408 247.442 332.499 247.085 332.593 246.722L333.999 241.404H335.484L332.821 251.037H331.125ZM345.548 246.221C345.548 247.012 345.445 247.718 345.24 248.339C345.035 248.96 344.739 249.484 344.353 249.912C343.966 250.34 343.497 250.668 342.946 250.896C342.401 251.119 341.783 251.23 341.092 251.23C340.447 251.23 339.856 251.119 339.317 250.896C338.783 250.668 338.32 250.34 337.928 249.912C337.541 249.484 337.239 248.96 337.023 248.339C336.812 247.718 336.706 247.012 336.706 246.221C336.706 245.166 336.885 244.27 337.242 243.531C337.6 242.787 338.109 242.222 338.772 241.835C339.44 241.442 340.234 241.246 341.153 241.246C342.032 241.246 342.8 241.442 343.456 241.835C344.118 242.228 344.631 242.796 344.994 243.54C345.363 244.278 345.548 245.172 345.548 246.221ZM338.218 246.221C338.218 246.994 338.32 247.665 338.526 248.233C338.731 248.802 339.047 249.241 339.475 249.552C339.902 249.862 340.453 250.018 341.127 250.018C341.795 250.018 342.343 249.862 342.771 249.552C343.204 249.241 343.524 248.802 343.729 248.233C343.934 247.665 344.036 246.994 344.036 246.221C344.036 245.453 343.934 244.791 343.729 244.234C343.524 243.672 343.207 243.238 342.779 242.934C342.352 242.629 341.798 242.477 341.118 242.477C340.116 242.477 339.381 242.808 338.912 243.47C338.449 244.132 338.218 245.049 338.218 246.221ZM352.447 241.246C352.641 241.246 352.843 241.258 353.054 241.281C353.265 241.299 353.452 241.325 353.616 241.36L353.432 242.714C353.274 242.673 353.098 242.641 352.904 242.617C352.711 242.594 352.529 242.582 352.359 242.582C351.973 242.582 351.607 242.661 351.261 242.819C350.921 242.972 350.622 243.194 350.364 243.487C350.107 243.774 349.904 244.123 349.758 244.533C349.611 244.938 349.538 245.389 349.538 245.887V251.055H348.07V241.422H349.283L349.442 243.197H349.503C349.702 242.84 349.943 242.515 350.224 242.222C350.505 241.923 350.83 241.686 351.199 241.51C351.574 241.334 351.99 241.246 352.447 241.246ZM356.886 237.379V244.48C356.886 244.715 356.877 245.002 356.859 245.342C356.842 245.676 356.827 245.972 356.816 246.229H356.877C357 246.077 357.179 245.852 357.413 245.553C357.653 245.254 357.856 245.014 358.02 244.832L361.219 241.422H362.933L359.057 245.535L363.214 251.055H361.456L358.055 246.493L356.886 247.565V251.055H355.436V237.379H356.886Z" fill="#1E1E1E" fill-opacity="0.5"/>
<path d="M68.9445 179.781C68.9445 181.135 68.6111 182.302 67.9445 183.281C67.2882 184.26 66.3403 185.01 65.1007 185.531C63.8715 186.052 62.4028 186.312 60.6945 186.312C59.8611 186.312 59.0642 186.266 58.3038 186.172C57.5434 186.078 56.8247 185.943 56.1476 185.766C55.4809 185.578 54.8715 185.354 54.3195 185.094V181.562C55.2465 181.969 56.283 182.339 57.4288 182.672C58.5747 182.995 59.7413 183.156 60.9288 183.156C61.8976 183.156 62.6997 183.031 63.3351 182.781C63.9809 182.521 64.4601 182.156 64.7726 181.688C65.0851 181.208 65.2413 180.651 65.2413 180.016C65.2413 179.339 65.059 178.766 64.6945 178.297C64.3299 177.828 63.7778 177.401 63.0382 177.016C62.309 176.62 61.3924 176.198 60.2882 175.75C59.5382 175.448 58.8195 175.104 58.132 174.719C57.4549 174.333 56.8507 173.88 56.3195 173.359C55.7882 172.839 55.3663 172.224 55.0538 171.516C54.7517 170.797 54.6007 169.953 54.6007 168.984C54.6007 167.693 54.908 166.589 55.5226 165.672C56.1476 164.755 57.0226 164.052 58.1476 163.562C59.283 163.073 60.6059 162.828 62.1163 162.828C63.3142 162.828 64.4392 162.953 65.4913 163.203C66.5538 163.453 67.5955 163.807 68.6163 164.266L67.4288 167.281C66.4913 166.896 65.5799 166.589 64.6945 166.359C63.8195 166.13 62.9236 166.016 62.007 166.016C61.2153 166.016 60.5434 166.135 59.9913 166.375C59.4392 166.615 59.0174 166.953 58.7257 167.391C58.4445 167.818 58.3038 168.328 58.3038 168.922C58.3038 169.589 58.4653 170.151 58.7882 170.609C59.1215 171.057 59.632 171.469 60.3195 171.844C61.0174 172.219 61.9132 172.635 63.007 173.094C64.2674 173.615 65.3351 174.161 66.2101 174.734C67.0955 175.307 67.7726 175.995 68.2413 176.797C68.7101 177.589 68.9445 178.583 68.9445 179.781ZM79.757 168.375C81.9445 168.375 83.5955 168.859 84.7101 169.828C85.8351 170.797 86.3976 172.307 86.3976 174.359V186H83.7882L83.0851 183.547H82.9601C82.4705 184.172 81.9653 184.688 81.4445 185.094C80.9236 185.5 80.3195 185.802 79.632 186C78.9549 186.208 78.1267 186.312 77.1476 186.312C76.1163 186.312 75.1945 186.125 74.382 185.75C73.5695 185.365 72.9288 184.781 72.4601 184C71.9913 183.219 71.757 182.229 71.757 181.031C71.757 179.25 72.4184 177.911 73.7413 177.016C75.0747 176.12 77.0851 175.625 79.7726 175.531L82.7726 175.422V174.516C82.7726 173.318 82.4913 172.464 81.9288 171.953C81.3767 171.443 80.5955 171.188 79.5851 171.188C78.7205 171.188 77.882 171.312 77.0695 171.562C76.257 171.812 75.4653 172.12 74.6945 172.484L73.507 169.891C74.3507 169.443 75.309 169.078 76.382 168.797C77.4653 168.516 78.5903 168.375 79.757 168.375ZM82.757 177.734L80.5226 177.812C78.6892 177.875 77.4028 178.188 76.6632 178.75C75.9236 179.312 75.5538 180.083 75.5538 181.062C75.5538 181.917 75.809 182.542 76.3195 182.938C76.8299 183.323 77.5017 183.516 78.3351 183.516C79.6059 183.516 80.658 183.156 81.4913 182.438C82.3351 181.708 82.757 180.641 82.757 179.234V177.734ZM95.4913 186L88.9132 168.703H92.8038L96.3663 178.859C96.5955 179.505 96.8038 180.203 96.9913 180.953C97.1788 181.703 97.309 182.333 97.382 182.844H97.507C97.5799 182.312 97.7205 181.677 97.9288 180.938C98.1372 180.188 98.3507 179.495 98.5695 178.859L102.132 168.703H106.007L99.4288 186H95.4913ZM115.523 168.375C117.064 168.375 118.387 168.693 119.491 169.328C120.595 169.964 121.444 170.865 122.038 172.031C122.632 173.198 122.929 174.594 122.929 176.219V178.188H111.382C111.424 179.865 111.872 181.156 112.726 182.062C113.59 182.969 114.799 183.422 116.351 183.422C117.455 183.422 118.444 183.318 119.319 183.109C120.205 182.891 121.116 182.573 122.054 182.156V185.141C121.189 185.547 120.309 185.844 119.413 186.031C118.517 186.219 117.444 186.312 116.194 186.312C114.497 186.312 113.002 185.984 111.71 185.328C110.429 184.661 109.424 183.672 108.694 182.359C107.976 181.047 107.616 179.417 107.616 177.469C107.616 175.531 107.944 173.885 108.601 172.531C109.257 171.177 110.179 170.146 111.366 169.438C112.554 168.729 113.939 168.375 115.523 168.375ZM115.523 171.141C114.366 171.141 113.429 171.516 112.71 172.266C112.002 173.016 111.585 174.115 111.46 175.562H119.335C119.325 174.698 119.179 173.932 118.898 173.266C118.627 172.599 118.21 172.078 117.648 171.703C117.095 171.328 116.387 171.141 115.523 171.141ZM141.819 183.344C142.299 183.344 142.773 183.302 143.241 183.219C143.71 183.125 144.137 183.016 144.523 182.891V185.672C144.116 185.849 143.59 186 142.944 186.125C142.299 186.25 141.627 186.312 140.929 186.312C139.95 186.312 139.069 186.151 138.288 185.828C137.507 185.495 136.887 184.927 136.429 184.125C135.97 183.323 135.741 182.214 135.741 180.797V171.5H133.382V169.859L135.913 168.562L137.116 164.859H139.429V168.703H144.382V171.5H139.429V180.75C139.429 181.625 139.648 182.276 140.085 182.703C140.523 183.13 141.101 183.344 141.819 183.344ZM151.71 168.703V186H148.038V168.703H151.71ZM149.898 162.078C150.46 162.078 150.944 162.229 151.351 162.531C151.767 162.833 151.976 163.354 151.976 164.094C151.976 164.823 151.767 165.344 151.351 165.656C150.944 165.958 150.46 166.109 149.898 166.109C149.314 166.109 148.819 165.958 148.413 165.656C148.017 165.344 147.819 164.823 147.819 164.094C147.819 163.354 148.017 162.833 148.413 162.531C148.819 162.229 149.314 162.078 149.898 162.078ZM176.523 168.375C178.46 168.375 179.918 168.875 180.898 169.875C181.887 170.875 182.382 172.479 182.382 174.688V186H178.71V175.344C178.71 174.031 178.455 173.042 177.944 172.375C177.434 171.708 176.658 171.375 175.616 171.375C174.158 171.375 173.106 171.844 172.46 172.781C171.825 173.708 171.507 175.057 171.507 176.828V186H167.835V175.344C167.835 174.469 167.72 173.74 167.491 173.156C167.273 172.562 166.934 172.12 166.476 171.828C166.017 171.526 165.439 171.375 164.741 171.375C163.731 171.375 162.924 171.604 162.319 172.062C161.726 172.521 161.299 173.198 161.038 174.094C160.778 174.979 160.648 176.068 160.648 177.359V186H156.976V168.703H159.835L160.351 171.031H160.554C160.908 170.427 161.345 169.932 161.866 169.547C162.398 169.151 162.986 168.859 163.632 168.672C164.278 168.474 164.95 168.375 165.648 168.375C166.939 168.375 168.028 168.604 168.913 169.062C169.799 169.51 170.46 170.198 170.898 171.125H171.179C171.72 170.188 172.476 169.495 173.444 169.047C174.413 168.599 175.439 168.375 176.523 168.375ZM194.398 168.375C195.939 168.375 197.262 168.693 198.366 169.328C199.47 169.964 200.319 170.865 200.913 172.031C201.507 173.198 201.804 174.594 201.804 176.219V178.188H190.257C190.299 179.865 190.747 181.156 191.601 182.062C192.465 182.969 193.674 183.422 195.226 183.422C196.33 183.422 197.319 183.318 198.194 183.109C199.08 182.891 199.991 182.573 200.929 182.156V185.141C200.064 185.547 199.184 185.844 198.288 186.031C197.392 186.219 196.319 186.312 195.069 186.312C193.372 186.312 191.877 185.984 190.585 185.328C189.304 184.661 188.299 183.672 187.569 182.359C186.851 181.047 186.491 179.417 186.491 177.469C186.491 175.531 186.819 173.885 187.476 172.531C188.132 171.177 189.054 170.146 190.241 169.438C191.429 168.729 192.814 168.375 194.398 168.375ZM194.398 171.141C193.241 171.141 192.304 171.516 191.585 172.266C190.877 173.016 190.46 174.115 190.335 175.562H198.21C198.2 174.698 198.054 173.932 197.773 173.266C197.502 172.599 197.085 172.078 196.523 171.703C195.97 171.328 195.262 171.141 194.398 171.141ZM221.038 168.375C223.226 168.375 224.877 168.859 225.991 169.828C227.116 170.797 227.679 172.307 227.679 174.359V186H225.069L224.366 183.547H224.241C223.752 184.172 223.247 184.688 222.726 185.094C222.205 185.5 221.601 185.802 220.913 186C220.236 186.208 219.408 186.312 218.429 186.312C217.398 186.312 216.476 186.125 215.663 185.75C214.851 185.365 214.21 184.781 213.741 184C213.273 183.219 213.038 182.229 213.038 181.031C213.038 179.25 213.7 177.911 215.023 177.016C216.356 176.12 218.366 175.625 221.054 175.531L224.054 175.422V174.516C224.054 173.318 223.773 172.464 223.21 171.953C222.658 171.443 221.877 171.188 220.866 171.188C220.002 171.188 219.163 171.312 218.351 171.562C217.538 171.812 216.747 172.12 215.976 172.484L214.788 169.891C215.632 169.443 216.59 169.078 217.663 168.797C218.747 168.516 219.872 168.375 221.038 168.375ZM224.038 177.734L221.804 177.812C219.97 177.875 218.684 178.188 217.944 178.75C217.205 179.312 216.835 180.083 216.835 181.062C216.835 181.917 217.09 182.542 217.601 182.938C218.111 183.323 218.783 183.516 219.616 183.516C220.887 183.516 221.939 183.156 222.773 182.438C223.616 181.708 224.038 180.641 224.038 179.234V177.734ZM241.835 168.375C243.783 168.375 245.299 168.88 246.382 169.891C247.476 170.891 248.023 172.5 248.023 174.719V186H244.351V175.406C244.351 174.062 244.075 173.057 243.523 172.391C242.97 171.714 242.116 171.375 240.96 171.375C239.283 171.375 238.116 171.891 237.46 172.922C236.814 173.953 236.491 175.448 236.491 177.406V186H232.819V168.703H235.679L236.194 171.047H236.398C236.773 170.443 237.236 169.948 237.788 169.562C238.351 169.167 238.976 168.87 239.663 168.672C240.361 168.474 241.085 168.375 241.835 168.375ZM258.976 186.312C256.913 186.312 255.257 185.562 254.007 184.062C252.767 182.552 252.148 180.328 252.148 177.391C252.148 174.422 252.778 172.177 254.038 170.656C255.309 169.135 256.981 168.375 259.054 168.375C259.929 168.375 260.694 168.495 261.351 168.734C262.007 168.964 262.569 169.276 263.038 169.672C263.517 170.068 263.924 170.51 264.257 171H264.429C264.377 170.677 264.314 170.214 264.241 169.609C264.179 168.995 264.148 168.427 264.148 167.906V161.688H267.835V186H264.96L264.304 183.641H264.148C263.835 184.141 263.439 184.594 262.96 185C262.491 185.396 261.929 185.714 261.273 185.953C260.627 186.193 259.861 186.312 258.976 186.312ZM260.007 183.328C261.58 183.328 262.689 182.875 263.335 181.969C263.981 181.062 264.314 179.703 264.335 177.891V177.406C264.335 175.469 264.023 173.984 263.398 172.953C262.773 171.911 261.632 171.391 259.976 171.391C258.653 171.391 257.642 171.927 256.944 173C256.257 174.062 255.913 175.547 255.913 177.453C255.913 179.359 256.257 180.818 256.944 181.828C257.642 182.828 258.663 183.328 260.007 183.328ZM290.179 168.375C290.47 168.375 290.788 168.391 291.132 168.422C291.476 168.453 291.773 168.495 292.023 168.547L291.679 171.984C291.46 171.922 291.189 171.875 290.866 171.844C290.554 171.812 290.273 171.797 290.023 171.797C289.366 171.797 288.741 171.906 288.148 172.125C287.554 172.333 287.028 172.656 286.569 173.094C286.111 173.521 285.752 174.057 285.491 174.703C285.231 175.349 285.101 176.099 285.101 176.953V186H281.413V168.703H284.288L284.788 171.75H284.96C285.304 171.135 285.731 170.573 286.241 170.062C286.752 169.552 287.335 169.146 287.991 168.844C288.658 168.531 289.387 168.375 290.179 168.375ZM302.116 168.375C303.658 168.375 304.981 168.693 306.085 169.328C307.189 169.964 308.038 170.865 308.632 172.031C309.226 173.198 309.523 174.594 309.523 176.219V178.188H297.976C298.017 179.865 298.465 181.156 299.319 182.062C300.184 182.969 301.392 183.422 302.944 183.422C304.049 183.422 305.038 183.318 305.913 183.109C306.799 182.891 307.71 182.573 308.648 182.156V185.141C307.783 185.547 306.903 185.844 306.007 186.031C305.111 186.219 304.038 186.312 302.788 186.312C301.09 186.312 299.595 185.984 298.304 185.328C297.023 184.661 296.017 183.672 295.288 182.359C294.569 181.047 294.21 179.417 294.21 177.469C294.21 175.531 294.538 173.885 295.194 172.531C295.851 171.177 296.773 170.146 297.96 169.438C299.148 168.729 300.533 168.375 302.116 168.375ZM302.116 171.141C300.96 171.141 300.023 171.516 299.304 172.266C298.595 173.016 298.179 174.115 298.054 175.562H305.929C305.918 174.698 305.773 173.932 305.491 173.266C305.22 172.599 304.804 172.078 304.241 171.703C303.689 171.328 302.981 171.141 302.116 171.141ZM325.288 181.062C325.288 182.198 325.012 183.156 324.46 183.938C323.908 184.719 323.101 185.312 322.038 185.719C320.986 186.115 319.694 186.312 318.163 186.312C316.955 186.312 315.913 186.224 315.038 186.047C314.174 185.88 313.356 185.62 312.585 185.266V182.094C313.408 182.479 314.33 182.812 315.351 183.094C316.382 183.375 317.356 183.516 318.273 183.516C319.481 183.516 320.351 183.328 320.882 182.953C321.413 182.568 321.679 182.057 321.679 181.422C321.679 181.047 321.569 180.714 321.351 180.422C321.142 180.12 320.747 179.812 320.163 179.5C319.59 179.177 318.747 178.792 317.632 178.344C316.538 177.906 315.616 177.469 314.866 177.031C314.116 176.594 313.549 176.068 313.163 175.453C312.778 174.828 312.585 174.031 312.585 173.062C312.585 171.531 313.189 170.37 314.398 169.578C315.616 168.776 317.226 168.375 319.226 168.375C320.288 168.375 321.288 168.484 322.226 168.703C323.174 168.911 324.101 169.219 325.007 169.625L323.851 172.391C323.069 172.047 322.283 171.766 321.491 171.547C320.71 171.318 319.913 171.203 319.101 171.203C318.153 171.203 317.429 171.349 316.929 171.641C316.439 171.932 316.194 172.349 316.194 172.891C316.194 173.297 316.314 173.641 316.554 173.922C316.793 174.203 317.205 174.484 317.788 174.766C318.382 175.047 319.205 175.396 320.257 175.812C321.288 176.208 322.179 176.625 322.929 177.062C323.689 177.49 324.273 178.016 324.679 178.641C325.085 179.266 325.288 180.073 325.288 181.062ZM344.569 177.312C344.569 178.75 344.382 180.026 344.007 181.141C343.632 182.255 343.085 183.198 342.366 183.969C341.648 184.729 340.783 185.312 339.773 185.719C338.762 186.115 337.622 186.312 336.351 186.312C335.163 186.312 334.075 186.115 333.085 185.719C332.095 185.312 331.236 184.729 330.507 183.969C329.788 183.198 329.231 182.255 328.835 181.141C328.439 180.026 328.241 178.75 328.241 177.312C328.241 175.406 328.569 173.792 329.226 172.469C329.892 171.135 330.84 170.12 332.069 169.422C333.299 168.724 334.762 168.375 336.46 168.375C338.054 168.375 339.46 168.724 340.679 169.422C341.898 170.12 342.851 171.135 343.538 172.469C344.226 173.802 344.569 175.417 344.569 177.312ZM332.023 177.312C332.023 178.573 332.174 179.651 332.476 180.547C332.788 181.443 333.267 182.13 333.913 182.609C334.559 183.078 335.392 183.312 336.413 183.312C337.434 183.312 338.267 183.078 338.913 182.609C339.559 182.13 340.033 181.443 340.335 180.547C340.637 179.651 340.788 178.573 340.788 177.312C340.788 176.052 340.637 174.984 340.335 174.109C340.033 173.224 339.559 172.552 338.913 172.094C338.267 171.625 337.429 171.391 336.398 171.391C334.877 171.391 333.767 171.901 333.069 172.922C332.372 173.943 332.023 175.406 332.023 177.312ZM363.866 168.703V186H360.976L360.476 183.672H360.273C359.908 184.266 359.444 184.76 358.882 185.156C358.319 185.542 357.694 185.828 357.007 186.016C356.319 186.214 355.595 186.312 354.835 186.312C353.533 186.312 352.418 186.094 351.491 185.656C350.575 185.208 349.872 184.521 349.382 183.594C348.892 182.667 348.648 181.469 348.648 180V168.703H352.335V179.312C352.335 180.656 352.606 181.661 353.148 182.328C353.7 182.995 354.554 183.328 355.71 183.328C356.825 183.328 357.71 183.099 358.366 182.641C359.023 182.182 359.486 181.505 359.757 180.609C360.038 179.714 360.179 178.615 360.179 177.312V168.703H363.866ZM377.898 168.375C378.189 168.375 378.507 168.391 378.851 168.422C379.194 168.453 379.491 168.495 379.741 168.547L379.398 171.984C379.179 171.922 378.908 171.875 378.585 171.844C378.273 171.812 377.991 171.797 377.741 171.797C377.085 171.797 376.46 171.906 375.866 172.125C375.273 172.333 374.747 172.656 374.288 173.094C373.83 173.521 373.47 174.057 373.21 174.703C372.95 175.349 372.819 176.099 372.819 176.953V186H369.132V168.703H372.007L372.507 171.75H372.679C373.023 171.135 373.45 170.573 373.96 170.062C374.47 169.552 375.054 169.146 375.71 168.844C376.377 168.531 377.106 168.375 377.898 168.375ZM389.913 186.312C388.278 186.312 386.861 185.995 385.663 185.359C384.465 184.724 383.543 183.75 382.898 182.438C382.252 181.125 381.929 179.458 381.929 177.438C381.929 175.333 382.283 173.615 382.991 172.281C383.7 170.948 384.679 169.964 385.929 169.328C387.189 168.693 388.632 168.375 390.257 168.375C391.288 168.375 392.22 168.479 393.054 168.688C393.898 168.885 394.611 169.13 395.194 169.422L394.101 172.359C393.465 172.099 392.814 171.88 392.148 171.703C391.481 171.526 390.84 171.438 390.226 171.438C389.215 171.438 388.372 171.661 387.694 172.109C387.028 172.557 386.528 173.224 386.194 174.109C385.872 174.995 385.71 176.094 385.71 177.406C385.71 178.677 385.877 179.75 386.21 180.625C386.543 181.49 387.038 182.146 387.694 182.594C388.351 183.031 389.158 183.25 390.116 183.25C391.064 183.25 391.913 183.135 392.663 182.906C393.413 182.677 394.122 182.38 394.788 182.016V185.203C394.132 185.578 393.429 185.854 392.679 186.031C391.929 186.219 391.007 186.312 389.913 186.312ZM405.741 168.375C407.283 168.375 408.606 168.693 409.71 169.328C410.814 169.964 411.663 170.865 412.257 172.031C412.851 173.198 413.148 174.594 413.148 176.219V178.188H401.601C401.642 179.865 402.09 181.156 402.944 182.062C403.809 182.969 405.017 183.422 406.569 183.422C407.674 183.422 408.663 183.318 409.538 183.109C410.424 182.891 411.335 182.573 412.273 182.156V185.141C411.408 185.547 410.528 185.844 409.632 186.031C408.736 186.219 407.663 186.312 406.413 186.312C404.715 186.312 403.22 185.984 401.929 185.328C400.648 184.661 399.642 183.672 398.913 182.359C398.194 181.047 397.835 179.417 397.835 177.469C397.835 175.531 398.163 173.885 398.819 172.531C399.476 171.177 400.398 170.146 401.585 169.438C402.773 168.729 404.158 168.375 405.741 168.375ZM405.741 171.141C404.585 171.141 403.648 171.516 402.929 172.266C402.22 173.016 401.804 174.115 401.679 175.562H409.554C409.543 174.698 409.398 173.932 409.116 173.266C408.845 172.599 408.429 172.078 407.866 171.703C407.314 171.328 406.606 171.141 405.741 171.141ZM428.913 181.062C428.913 182.198 428.637 183.156 428.085 183.938C427.533 184.719 426.726 185.312 425.663 185.719C424.611 186.115 423.319 186.312 421.788 186.312C420.58 186.312 419.538 186.224 418.663 186.047C417.799 185.88 416.981 185.62 416.21 185.266V182.094C417.033 182.479 417.955 182.812 418.976 183.094C420.007 183.375 420.981 183.516 421.898 183.516C423.106 183.516 423.976 183.328 424.507 182.953C425.038 182.568 425.304 182.057 425.304 181.422C425.304 181.047 425.194 180.714 424.976 180.422C424.767 180.12 424.372 179.812 423.788 179.5C423.215 179.177 422.372 178.792 421.257 178.344C420.163 177.906 419.241 177.469 418.491 177.031C417.741 176.594 417.174 176.068 416.788 175.453C416.403 174.828 416.21 174.031 416.21 173.062C416.21 171.531 416.814 170.37 418.023 169.578C419.241 168.776 420.851 168.375 422.851 168.375C423.913 168.375 424.913 168.484 425.851 168.703C426.799 168.911 427.726 169.219 428.632 169.625L427.476 172.391C426.694 172.047 425.908 171.766 425.116 171.547C424.335 171.318 423.538 171.203 422.726 171.203C421.778 171.203 421.054 171.349 420.554 171.641C420.064 171.932 419.819 172.349 419.819 172.891C419.819 173.297 419.939 173.641 420.179 173.922C420.418 174.203 420.83 174.484 421.413 174.766C422.007 175.047 422.83 175.396 423.882 175.812C424.913 176.208 425.804 176.625 426.554 177.062C427.314 177.49 427.898 178.016 428.304 178.641C428.71 179.266 428.913 180.073 428.913 181.062Z" fill="#4942E4"/>
<g filter="url(#filter0_d_68_99)">
<path d="M189.507 57.2673C189.507 64.0961 190.852 70.8579 193.465 77.1669C196.078 83.4758 199.909 89.2082 204.737 94.0369C209.566 98.8655 215.298 102.696 221.607 105.309C227.916 107.922 234.678 109.267 241.507 109.267C248.336 109.267 255.098 107.922 261.406 105.309C267.715 102.696 273.448 98.8655 278.277 94.0369C283.105 89.2082 286.935 83.4758 289.549 77.1669C292.162 70.8579 293.507 64.0961 293.507 57.2673C293.507 43.4761 288.028 30.2497 278.277 20.4978C268.525 10.7459 255.298 5.26733 241.507 5.26733C227.716 5.26733 214.489 10.7459 204.737 20.4978C194.986 30.2497 189.507 43.4761 189.507 57.2673Z" stroke="#B6C0FE" stroke-width="10" stroke-linecap="round" stroke-linejoin="round"/>
<path d="M241.507 28.3783V57.2672L258.84 74.6005" stroke="#B6C0FE" stroke-width="10.8333" stroke-linecap="round" stroke-linejoin="round"/>
</g>
<defs>
<filter id="filter0_d_68_99" x="180.507" y="0.267334" width="122" height="122" filterUnits="userSpaceOnUse" color-interpolation-filters="sRGB">
<feFlood flood-opacity="0" result="BackgroundImageFix"/>
<feColorMatrix in="SourceAlpha" type="matrix" values="0 0 0 0 0 0 0 0 0 0 0 0 0 0 0 0 0 0 127 0" result="hardAlpha"/>
<feOffset dy="4"/>
<feGaussianBlur stdDeviation="2"/>
<feComposite in2="hardAlpha" operator="out"/>
<feColorMatrix type="matrix" values="0 0 0 0 0 0 0 0 0 0 0 0 0 0 0 0 0 0 0.25 0"/>
<feBlend mode="normal" in2="BackgroundImageFix" result="effect1_dropShadow_68_99"/>
<feBlend mode="normal" in="SourceGraphic" in2="effect1_dropShadow_68_99" result="shape"/>
</filter>
</defs>
</svg>
