<svg width="30" height="30" viewBox="0 0 22 22" fill="none" xmlns="http://www.w3.org/2000/svg">
<rect x="1" y="1" width="20" height="20" rx="1.5" fill="#1E1E1E"/>
<path d="M1 2.4325C1 1.64125 1.6575 1 2.46875 1H19.5312C20.3425 1 21 1.64125 21 2.4325V19.5675C21 20.3587 20.3425 21 19.5312 21H2.46875C1.6575 21 1 20.3587 1 19.5675V2.4325ZM7.17875 17.7425V8.71125H4.1775V17.7425H7.17875ZM5.67875 7.4775C6.725 7.4775 7.37625 6.785 7.37625 5.9175C7.3575 5.03125 6.72625 4.3575 5.69875 4.3575C4.67125 4.3575 4 5.0325 4 5.9175C4 6.785 4.65125 7.4775 5.65875 7.4775H5.67875ZM11.8138 17.7425V12.6988C11.8138 12.4288 11.8337 12.1587 11.9137 11.9662C12.13 11.4275 12.6238 10.8687 13.4538 10.8687C14.54 10.8687 14.9738 11.6962 14.9738 12.9113V17.7425H17.975V12.5625C17.975 9.7875 16.495 8.4975 14.52 8.4975C12.9275 8.4975 12.2137 9.3725 11.8138 9.98875V10.02H11.7938C11.8004 10.0096 11.8071 9.99915 11.8138 9.98875V8.71125H8.81375C8.85125 9.55875 8.81375 17.7425 8.81375 17.7425H11.8138Z" fill="#FFFEFE"/>
<rect x="1" y="1" width="20" height="20" rx="1.5" stroke="#1E1E1E" stroke-width="0.5"/>
</svg>
