<svg width="30" height="30" viewBox="0 0 22 22" fill="none" xmlns="http://www.w3.org/2000/svg">
<rect x="1" y="1" width="20" height="20" rx="2.7" fill="#1E1E1E"/>
<path d="M3.85714 1C2.28125 1 1 2.28125 1 3.85714V18.1429C1 19.7188 2.28125 21 3.85714 21H18.1429C19.7188 21 21 19.7188 21 18.1429V3.85714C21 2.28125 19.7188 1 18.1429 1H3.85714ZM17.1205 4.75L12.4866 10.0446L17.9375 17.25H13.6696L10.3304 12.8795L6.50446 17.25H4.38393L9.33929 11.5848L4.11161 4.75H8.48661L11.5089 8.74554L15 4.75H17.1205ZM15.433 15.9821L7.84821 5.95089H6.58482L14.2545 15.9821H15.4286H15.433Z" fill="#FFFEFE"/>
<rect x="1" y="1" width="20" height="20" rx="2.7" stroke="#1E1E1E" stroke-width="0.5"/>
</svg>
