<svg width="389" height="376" viewBox="0 0 389 376" fill="none" xmlns="http://www.w3.org/2000/svg">
<path d="M263 376C332.588 376 389 319.588 389 250C389 180.412 332.588 124 263 124C193.412 124 137 180.412 137 250C137 319.588 193.412 376 263 376Z" fill="#8696FE"/>
<path d="M261.433 168.208C262.895 168.374 264.362 168.524 265.825 168.707C287.449 171.382 306.307 179.99 321.94 195.257C336.927 209.894 345.855 227.747 349.443 248.33C349.597 249.209 349.768 250.088 349.93 250.967C349.93 251.721 349.93 252.476 349.93 253.23C349.855 253.38 349.768 253.521 349.709 253.68C348.834 256.013 346.726 257.338 344.343 257.042C342.081 256.763 340.451 254.967 340.026 252.576C339.401 249.047 338.864 245.48 337.914 242.03C331.164 217.598 316.827 199.165 294.195 187.474C283.595 181.999 272.262 178.995 260.358 178.157C257.675 177.97 255.742 176.236 255.488 173.732C255.225 171.153 256.729 169.083 259.387 168.353C259.496 168.324 259.596 168.262 259.7 168.212C260.275 168.208 260.854 168.208 261.433 168.208Z" fill="#FFFEFE"/>
<path d="M260.375 192.485C264.766 192.906 268.966 193.706 273.091 194.906C298.636 202.356 317.127 222.384 322.573 248.521C322.831 249.758 323.081 251.05 323.002 252.292C322.84 254.762 320.752 256.608 318.319 256.687C315.823 256.771 313.673 255.058 313.252 252.583C311.994 245.234 309.594 238.288 305.769 231.888C296.22 215.914 282.17 206.389 263.929 202.964C262.567 202.71 261.179 202.581 259.804 202.377C257.287 202.002 255.517 200.148 255.383 197.756C255.25 195.364 256.783 193.252 259.121 192.656C259.554 192.548 260.021 192.531 260.375 192.485Z" fill="#FFFEFE"/>
<path d="M260.083 217.535C263.287 217.885 266.416 218.614 269.429 219.748C284.216 225.323 293.453 235.868 297.349 251.134C298.045 253.868 296.816 256.297 294.378 257.238C292.095 258.117 289.491 257.209 288.307 255.067C288.02 254.547 287.828 253.947 287.695 253.363C284.624 239.789 273.458 229.46 259.679 227.473C256.95 227.081 255.179 225.231 255.063 222.66C254.959 220.323 256.6 218.206 258.95 217.673C259.317 217.59 259.696 217.581 260.083 217.535Z" fill="#FFFEFE"/>
<path d="M295.424 337.206C295.165 337.206 294.903 337.177 294.565 337.156C296.253 336.869 297.869 336.681 299.44 336.315C311.773 333.444 320.502 326.257 325.489 314.561C326.677 311.774 326.919 308.949 326.469 305.982C325.485 299.478 321.89 295.137 315.519 293.716C306.482 291.699 297.382 289.95 288.286 288.229C284.478 287.508 280.599 287.158 276.695 287.47C274.133 287.675 271.966 288.508 270.612 290.875C269.483 292.858 268.304 294.816 267.142 296.783C266.279 298.241 265.408 299.695 264.529 301.178C242.638 291.149 226.151 275.567 214.543 254.601C215.526 254.009 216.414 253.422 217.356 252.926C220.126 251.463 222.793 249.851 225.26 247.897C226.568 246.859 227.288 245.563 227.547 243.951C228.038 240.876 227.768 237.814 227.284 234.78C225.555 223.902 222.676 213.281 219.847 202.657C219.356 200.807 218.656 199.015 217.36 197.544C212.606 192.144 204.394 191.419 199.773 193.032C195.661 194.469 191.981 196.74 188.744 199.665C181.952 205.806 178.29 213.614 176.761 222.523C176.457 224.285 176.294 226.072 176.065 227.852C176.065 229.939 176.065 232.022 176.065 234.11C176.224 235.485 176.369 236.864 176.536 238.239C177.636 247.213 180.482 255.651 184.494 263.713C191.698 278.187 201.794 290.412 213.943 300.945C227.001 312.265 241.201 321.907 256.954 329.132C264.587 332.631 272.491 335.302 280.82 336.594C282.133 336.798 283.449 336.94 284.766 337.215" fill="#FFFEFE"/>
<path d="M189.06 109.338C200.229 71.2895 178.437 31.3907 140.389 20.2223C102.34 9.05388 62.4407 30.845 51.2723 68.8939C42.8982 97.4231 53.0554 126.992 74.7015 144.71L46.4234 164.687L117.545 160.88C149.602 162.074 179.612 141.526 189.06 109.338Z" fill="#4942E4"/>
<path d="M94.0753 62.2195C100.814 40.172 113.743 37.9585 132.79 43.5494C151.347 48.9963 162.33 57.961 156.306 78.4841C152.086 92.8618 144.895 94.6209 134.005 97.1652C126.251 99.0268 124.654 100.828 121.841 110.413L105.987 105.759C111.073 88.4323 114.672 87.0853 125.902 83.8405C132.6 81.9366 136.532 80.8213 138.877 72.8329C141.366 64.3541 138.509 60.4458 129.171 57.7046C118.356 54.5302 115.148 57.7264 111.156 67.2332L94.0753 62.2195ZM112.29 115.216C120.278 117.56 121.292 120.928 119.416 127.319C117.54 133.709 114.903 135.873 106.914 133.528C98.9258 131.184 97.9995 127.976 99.8756 121.584C101.752 115.192 104.304 112.871 112.29 115.216Z" fill="#FFFEFE"/>
<path d="M8.31105 262.061C3.72083 239.726 18.1063 217.901 40.4385 213.311C62.7728 208.721 84.5983 223.106 89.1881 245.439C92.6298 262.184 85.4044 278.644 72.1582 287.768L87.4123 300.56L46.8401 294.995C28.4134 294.156 12.1942 280.955 8.31105 262.061Z" fill="#8696FE" fill-opacity="0.5"/>
<path d="M52.32 268.358C56.3228 267.535 57.5377 268.763 58.196 271.966C58.8543 275.169 58.209 276.713 54.2062 277.536C50.2018 278.359 49.0624 277.18 48.4044 273.978C47.744 270.774 48.3156 269.181 52.32 268.358ZM52.139 243.746L54.0134 264.735L49.3948 265.685L42.7779 245.67L40.3729 233.968L49.734 232.044L52.139 243.746Z" fill="#4942E4"/>
</svg>
