<svg width="984" height="605" viewBox="0 0 984 605" fill="none" xmlns="http://www.w3.org/2000/svg">
<path d="M897.398 67.8836H120.057C111.381 67.8836 104.347 74.9173 104.347 83.5938V589.29C104.347 597.966 111.381 605 120.057 605H897.398C906.075 605 913.109 597.966 913.109 589.29V83.5938C913.109 74.9173 906.075 67.8836 897.398 67.8836Z" fill="#C7B7DA"/>
<path d="M897.398 67.8836H120.057C111.385 67.8836 104.347 74.9217 104.347 83.5938V99.304H913.109V83.5938C913.109 74.9217 906.07 67.8836 897.398 67.8836Z" fill="#1E1E1E"/>
<path d="M131.164 83.5937C131.164 86.6572 128.682 89.1394 125.619 89.1394C122.555 89.1394 120.073 86.6572 120.073 83.5937C120.073 80.5302 122.555 78.048 125.619 78.048C128.682 78.048 131.164 80.5302 131.164 83.5937Z" fill="#F75244"/>
<path d="M155.437 83.5937C155.437 86.6572 152.954 89.1394 149.891 89.1394C146.827 89.1394 144.345 86.6572 144.345 83.5937C144.345 80.5302 146.827 78.048 149.891 78.048C152.954 78.048 155.437 80.5302 155.437 83.5937Z" fill="#FFC100"/>
<path d="M179.725 83.5937C179.725 86.6572 177.243 89.1394 174.179 89.1394C171.116 89.1394 168.633 86.6572 168.633 83.5937C168.633 80.5302 171.116 78.048 174.179 78.048C177.243 78.048 179.725 80.5302 179.725 83.5937Z" fill="#18E08F"/>
<path d="M881.689 284.386H732.065V352.772H881.689V284.386Z" fill="#4942E4"/>
<path d="M754.326 376.84C754.326 382.983 749.346 387.979 743.188 387.979C737.029 387.979 732.049 382.999 732.049 376.84C732.049 370.682 737.029 365.702 743.188 365.702C749.346 365.702 754.326 370.682 754.326 376.84Z" fill="#4942E4"/>
<path d="M881.689 365.702H765.12V376.84H881.689V365.702Z" fill="#4942E4"/>
<path d="M881.689 385.104H765.12V396.243H881.689V385.104Z" fill="#4942E4"/>
<path d="M881.689 150.158H732.065V218.544H881.689V150.158Z" fill="#4942E4"/>
<path d="M754.326 242.612C754.326 248.755 749.346 253.751 743.188 253.751C737.029 253.751 732.049 248.771 732.049 242.612C732.049 236.454 737.029 231.474 743.188 231.474C749.346 231.474 754.326 236.454 754.326 242.612Z" fill="#4942E4"/>
<path d="M881.689 231.474H765.12V242.612H881.689V231.474Z" fill="#4942E4"/>
<path d="M881.689 250.876H765.12V262.015H881.689V250.876Z" fill="#4942E4"/>
<path d="M881.689 418.504H732.065V486.891H881.689V418.504Z" fill="#4942E4"/>
<path d="M743.188 522.097C749.339 522.097 754.326 517.11 754.326 510.958C754.326 504.807 749.339 499.82 743.188 499.82C737.036 499.82 732.049 504.807 732.049 510.958C732.049 517.11 737.036 522.097 743.188 522.097Z" fill="#4942E4"/>
<path d="M881.689 499.82H765.12V510.958H881.689V499.82Z" fill="#4942E4"/>
<path d="M881.689 519.222H765.12V530.361H881.689V519.222Z" fill="#4942E4"/>
<path d="M151.87 118.141H134.856V115.077H151.87V118.141ZM151.87 121.345H134.856V124.409H151.87V121.345ZM151.87 127.614H134.856V130.677H151.87V127.614Z" fill="#FAFAFC"/>
<path d="M707.085 117.261H219.205V128.478H707.085V117.261Z" fill="#4942E4"/>
<path d="M787.396 122.869C787.396 127.63 783.547 131.479 778.786 131.479C774.026 131.479 770.177 127.63 770.177 122.869C770.177 118.109 774.026 114.26 778.786 114.26C783.547 114.26 787.396 118.109 787.396 122.869ZM807.426 114.26C802.666 114.26 798.817 118.109 798.817 122.869C798.817 127.63 802.666 131.479 807.426 131.479C812.186 131.479 816.035 127.63 816.035 122.869C816.035 118.109 812.186 114.26 807.426 114.26ZM836.066 114.26C831.306 114.26 827.457 118.109 827.457 122.869C827.457 127.63 831.306 131.479 836.066 131.479C840.826 131.479 844.675 127.63 844.675 122.869C844.675 118.109 840.826 114.26 836.066 114.26ZM864.706 114.26C859.945 114.26 856.096 118.109 856.096 122.869C856.096 127.63 859.945 131.479 864.706 131.479C869.466 131.479 873.315 127.63 873.315 122.869C873.315 118.109 869.466 114.26 864.706 114.26Z" fill="#4942E4"/>
<path d="M145.791 565.206C150.728 565.206 154.73 561.204 154.73 556.267C154.73 551.33 150.728 547.328 145.791 547.328C140.854 547.328 136.852 551.33 136.852 556.267C136.852 561.204 140.854 565.206 145.791 565.206Z" fill="#4942E4"/>
<path d="M257.019 547.328H163.402V556.267H257.019V547.328Z" fill="#4942E4"/>
<path d="M412.833 562.912H163.402V571.851H412.833V562.912Z" fill="#4942E4"/>
<path d="M707.101 487.566V150.158L135.783 150.158V487.566L707.101 487.566Z" fill="#4C42E4" fill-opacity="0.59"/>
<path d="M623.993 487.566H534.728L707.069 315.225V404.49L623.978 487.582L623.993 487.566ZM400.264 487.566H430.616L707.085 211.098V180.746L400.264 487.566ZM135.767 276.248V306.6L292.21 150.158H261.857L135.767 276.248ZM448.84 150.158H316.607L135.767 330.998V463.231L448.84 150.158Z" fill="#4942E4"/>
<path d="M616.123 348.248C616.123 348.248 650.151 418.221 658.493 444.002C666.835 469.766 590.484 362.827 590.484 362.827L616.123 348.248Z" fill="#F6AA8A"/>
<path d="M275.023 355.459L165.821 258.7L136.396 297.331C136.396 297.331 227.452 454.653 264.764 454.999C293.2 455.266 344.179 412.031 344.179 412.031L275.023 355.459Z" fill="#F6AA8A"/>
<path d="M351.547 303.914C330.26 278.165 322.577 241.78 331.627 209.621C340.676 177.462 367.226 151.305 398.803 140.433C392.362 106.688 404.836 69.9731 430.475 47.1147C468.29 13.432 532.953 14.4532 571.678 46.5806C590.562 62.2436 602.392 87.4585 598.244 111.637C629.256 134.998 649.255 172.498 648.658 211.318C648.061 250.138 627.984 288.172 596.265 310.575L351.531 303.929L351.547 303.914Z" fill="#1E1E1E"/>
<path d="M638.855 356.213C638.855 356.213 590.484 265.769 555.733 247.059C535.844 236.344 466.97 230.123 466.97 230.123C466.97 230.123 404.695 232.417 396.918 235.433C382.543 241.042 275.007 355.459 275.007 355.459L344.163 423.704L367.32 402.809C371.515 411.324 372.552 410.727 373.007 415.99C373.919 426.375 369.363 491.682 369.363 491.682H585.881L559.032 391.64L638.84 356.229L638.855 356.213Z" fill="#FFFEFE"/>
<path d="M365.074 398.128C364.508 398.128 363.958 397.876 363.581 397.389C354.846 386.094 351.343 373.557 353.181 360.172C355.632 342.325 367.273 326.097 376.621 315.634C386.675 304.354 396.023 297.363 396.415 297.064C397.248 296.451 398.426 296.608 399.055 297.457C399.683 298.289 399.51 299.468 398.662 300.096C398.285 300.379 361.35 328.249 356.904 360.706C355.208 373.054 358.46 384.633 366.55 395.096C367.195 395.913 367.037 397.107 366.205 397.735C365.859 398.002 365.451 398.128 365.058 398.128H365.074Z" fill="#BDD8F3"/>
<path d="M524.784 239.958L548.035 166.701C548.035 166.701 579.141 182.144 585.174 155.876C590.547 132.468 564.986 127.3 551.13 136.82C551.13 136.82 584.231 56.9493 513.457 41.0192C442.682 25.089 429.187 123.121 425.809 146.827C419.871 188.585 447.27 212.575 468.683 217.476L463.671 242.895C463.671 242.895 459.021 265.11 479.994 268.707C490.865 270.577 499.679 267.827 506.387 263.758C515.232 258.401 521.642 249.792 524.768 239.942L524.784 239.958Z" fill="#F6AA8A"/>
<path d="M453.223 106.232C448.275 100.105 468.839 97.5916 469.059 101.566C469.279 105.525 456.146 109.846 453.223 106.232Z" fill="#1E1E1E"/>
<path d="M507.864 131.714C507.911 136.003 504.47 139.522 500.181 139.569C495.892 139.616 492.373 136.176 492.326 131.887C492.279 127.598 495.72 124.079 500.008 124.032C504.297 123.985 507.816 127.425 507.864 131.714Z" fill="#1E1E1E"/>
<path d="M470.049 126.357C470.096 130.646 466.656 134.165 462.367 134.212C458.078 134.259 454.559 130.819 454.512 126.53C454.465 122.241 457.905 118.722 462.194 118.675C466.483 118.628 470.002 122.068 470.049 126.357Z" fill="#1E1E1E"/>
<path d="M554.916 156.175C554.79 156.175 554.665 156.175 554.539 156.128C553.581 155.924 552.968 154.965 553.172 154.007C554.193 149.325 557.571 145.272 561.97 143.402C566.384 141.533 571.632 141.941 575.716 144.455C576.549 144.973 576.816 146.073 576.298 146.906C575.779 147.739 574.679 147.99 573.847 147.487C570.736 145.555 566.73 145.256 563.368 146.686C560.006 148.116 557.445 151.21 556.66 154.777C556.471 155.609 555.733 156.175 554.916 156.175Z" fill="#1E1E1E"/>
<path d="M468.698 217.492C494.149 221.922 512.043 212.26 512.043 212.26C512.043 212.26 500.794 224.42 467.976 222.095L468.698 217.492Z" fill="#D65258"/>
<path d="M503.795 151.619C504.329 154.714 507.251 156.788 510.346 156.253C513.441 155.719 515.515 152.797 514.98 149.702C514.446 146.607 511.524 144.534 508.429 145.068C505.334 145.602 503.261 148.524 503.795 151.619Z" fill="#EB8E71"/>
<path d="M435.879 147.503C436.414 150.598 439.336 152.672 442.431 152.137C445.526 151.603 447.599 148.681 447.065 145.586C446.531 142.491 443.609 140.418 440.514 140.952C437.419 141.486 435.345 144.408 435.879 147.503Z" fill="#EB8E71"/>
<path d="M167.235 261.669C167.235 261.669 161.705 250.138 156.584 238.449C151.462 226.761 143.858 196.362 136.789 196.283C129.719 196.204 136.93 233.406 136.93 233.406C136.93 233.406 85.5734 191.413 78.6452 195.199C70.4288 199.692 105.038 227.782 105.038 227.782C105.038 227.782 62.5737 204.704 57.625 209.118C52.6762 213.533 92.7687 238.104 92.7687 238.104C92.7687 238.104 46.2979 219.785 42.0247 224.09C37.7516 228.379 80.4833 249.603 80.4833 249.603C80.4833 249.603 41.8519 234.632 38.8198 240.224C35.7878 245.817 136.427 297.3 136.427 297.3L167.266 261.637L167.235 261.669Z" fill="#F6AA8A"/>
<path d="M140.7 270.875C140.308 270.875 139.899 270.749 139.569 270.498C129.044 262.58 114.7 260.114 102.116 264.057C101.126 264.371 100.058 263.821 99.7597 262.816C99.4455 261.826 99.9954 260.758 101.001 260.459C112.406 256.877 125.179 258.15 135.752 263.648C133.772 259.297 132.107 254.395 131.023 249.619C130.787 248.598 131.431 247.593 132.437 247.357C133.458 247.137 134.464 247.765 134.699 248.771C136.239 255.558 139.161 262.926 142.303 267.969C142.79 268.739 142.649 269.744 141.973 270.357C141.612 270.687 141.156 270.859 140.7 270.859V270.875Z" fill="#D65258"/>
<path d="M656.498 441.174C647.134 426.076 586.556 347.462 586.556 347.462C586.556 347.462 594.018 341.964 593.107 334.266C592.196 326.568 585.896 327.95 585.896 327.95C585.896 327.95 594.458 314.392 589.541 309.632C587.09 307.244 580.617 308.831 574.773 310.999C584.466 297.41 602.517 270.875 597.286 268.66C590.216 265.675 547.94 308.752 547.94 308.752C547.94 308.752 529.826 300.395 525.066 300.615C520.29 300.835 510.408 312.586 509.01 333.826C507.612 355.05 518.468 356.637 522.034 365.545C525.6 374.453 533 401.615 559.157 454.936C585.315 508.256 614.787 523.165 639.546 509.152C664.306 495.138 665.845 456.287 656.482 441.189L656.498 441.174Z" fill="#F6AA8A"/>
<path d="M640.929 422.039C640.348 422.039 639.782 421.772 639.405 421.269L607.702 378.364C607.089 377.532 607.262 376.353 608.095 375.725C608.927 375.097 610.121 375.285 610.734 376.118L642.437 419.022C643.05 419.855 642.877 421.033 642.044 421.662C641.715 421.913 641.322 422.039 640.929 422.039Z" fill="#D65258"/>
<path d="M546.055 358.821C543.73 358.821 541.735 358.491 540.352 357.674C539.111 356.936 538.341 355.82 538.121 354.469C537.854 352.772 538.451 347.148 553.737 338.068C545.254 339.12 535.482 339.309 533.33 335.146C533 334.517 532.717 333.48 533.204 332.145C535.733 325.342 561.781 314.659 566.981 312.586C567.939 312.193 569.039 312.664 569.432 313.638C569.825 314.612 569.353 315.696 568.379 316.089C551.491 322.829 536.99 330.825 536.723 333.559C537.917 335.79 550.894 335.334 564.467 332.428C565.394 332.239 566.337 332.758 566.635 333.653C566.95 334.549 566.541 335.538 565.677 335.962C553.769 341.76 541.279 350.243 541.86 353.856C541.892 354.029 541.939 354.218 542.3 354.422C545.631 356.433 558.796 353.338 567.06 350.494C568.049 350.149 569.118 350.683 569.448 351.673C569.777 352.662 569.259 353.731 568.269 354.061C565.489 355.019 553.926 358.805 546.039 358.805L546.055 358.821Z" fill="#D65258"/>
<path d="M477.889 151.101C477.543 151.101 477.213 151.006 476.899 150.818C476.239 150.409 470.363 146.639 469.751 141.643C469.201 137.087 475.768 123.184 477.087 120.434C477.543 119.492 478.674 119.099 479.601 119.554C480.544 120.01 480.936 121.141 480.481 122.068C477.386 128.478 473.175 138.627 473.49 141.172C473.82 143.89 477.496 146.733 478.878 147.597C479.758 148.147 480.025 149.31 479.491 150.189C479.13 150.771 478.517 151.085 477.889 151.085V151.101Z" fill="#1E1E1E"/>
<path d="M489.703 148.618C485.084 156.285 475.972 160.998 467.049 160.338C471.557 166.449 482.083 169.309 488.257 164.878C494.431 160.448 494.054 154.855 489.718 148.618H489.703Z" fill="#FFFEFE"/>
<path d="M416.257 139.381C416.257 139.381 407.208 54.0272 469.499 29.5664C499.82 17.6581 558.671 26.0787 579.722 58.3475C600.774 90.632 584.215 135.532 584.215 135.532C584.215 135.532 570.045 132.657 560.21 139.428C550.375 146.199 537.069 165.02 529.23 166.575C521.39 168.13 536.472 133.631 536.472 133.631C536.472 133.631 485.759 124.55 457.937 76.1786C457.937 76.1786 422.353 97.3402 416.289 139.381H416.257Z" fill="#1E1E1E"/>
<path d="M707.085 487.566H135.767V530.361H707.085V487.566Z" fill="#4942E4"/>
<path d="M927.499 546.573C937.318 539.001 951.457 540.839 959.029 550.658C966.586 560.477 964.748 574.616 954.945 582.188L949.713 575.386C955.777 570.704 956.924 561.969 952.243 555.89C947.561 549.81 938.81 548.679 932.746 553.36L927.515 546.558L927.499 546.573Z" fill="#4942E4"/>
<path d="M292.807 52.7232C290.199 40.6106 297.944 28.6237 310.072 26.0158C322.185 23.4079 334.172 31.1688 336.764 43.2814L328.374 45.088C326.772 37.5943 319.357 32.8026 311.863 34.4051C304.369 36.0075 299.578 43.4227 301.18 50.9165L292.791 52.7232H292.807Z" fill="#4942E4"/>
<path d="M953.107 167.565C943.115 167.565 934.977 159.427 934.977 149.435C934.977 139.444 943.115 131.306 953.107 131.306C963.098 131.306 971.236 139.444 971.236 149.435C971.236 159.427 963.098 167.565 953.107 167.565ZM953.107 138.469C947.058 138.469 942.125 143.387 942.125 149.451C942.125 155.515 947.042 160.432 953.107 160.432C959.171 160.432 964.088 155.515 964.088 149.451C964.088 143.387 959.171 138.469 953.107 138.469Z" fill="#4942E4"/>
<path d="M55.1737 538.231L39.4949 496.426L83.5463 503.747L55.1894 538.231H55.1737ZM50.5391 505.507L57.5302 524.124L70.1612 508.759L50.5391 505.491V505.507Z" fill="#44E3A0"/>
<path d="M793.836 41.1447L787.709 44.8209L783.593 38.0027L773.931 44.6952L767.852 34.6093L758.158 41.3018L750.115 27.9639L756.242 24.272L760.358 31.1059L770.051 24.4134L776.115 34.4836L785.793 27.791L793.836 41.1447Z" fill="#44E3A0"/>
<path d="M209.354 39.9978L202.206 39.558L202.708 31.6086L190.941 31.6243L191.68 19.8731H179.897L180.871 4.31997L188.004 4.75985L187.501 12.7249H199.284L198.561 24.4605H210.328L209.354 39.9978Z" fill="#4942E4"/>
<path d="M59.6513 80.4516L36.7458 57.4676L59.7299 34.5621L82.6354 57.5461L59.6513 80.4516ZM46.8475 57.4833L59.667 70.3499L72.5337 57.5304L59.7142 44.6637L46.8475 57.4833Z" fill="#44E3A0"/>
<path d="M914.946 334.611C952.603 334.611 983.129 304.085 983.129 266.429C983.129 228.773 952.603 198.247 914.946 198.247C877.29 198.247 846.764 228.773 846.764 266.429C846.764 304.085 877.29 334.611 914.946 334.611Z" fill="#44E3A0"/>
<path d="M926.1 293.828L914.962 301.039L903.823 293.828C875.969 275.824 875.969 262.957 875.969 258.118C875.969 246.791 885.144 237.601 896.487 237.601C904.609 237.601 911.616 242.314 914.962 249.164C918.293 242.314 925.299 237.601 933.421 237.601C944.764 237.601 953.939 246.791 953.939 258.118C953.939 262.957 953.939 275.808 926.1 293.828Z" fill="#FFFEFE"/>
<path d="M254.647 83.107H304.904C330.935 83.107 352.034 104.206 352.034 130.238V132.61C352.034 158.642 330.935 179.74 304.904 179.74H293.781V193.833L272.085 179.74H254.647C228.615 179.74 207.516 158.642 207.516 132.61V130.238C207.516 104.206 228.615 83.107 254.647 83.107Z" fill="#FFFEFE"/>
<path d="M257.333 131.416C257.333 137.967 252.023 143.277 245.472 143.277C238.921 143.277 233.611 137.967 233.611 131.416C233.611 124.865 238.921 119.554 245.472 119.554C252.023 119.554 257.333 124.865 257.333 131.416ZM279.783 119.554C273.232 119.554 267.922 124.865 267.922 131.416C267.922 137.967 273.232 143.277 279.783 143.277C286.334 143.277 291.644 137.967 291.644 131.416C291.644 124.865 286.334 119.554 279.783 119.554ZM314.094 119.554C307.543 119.554 302.233 124.865 302.233 131.416C302.233 137.967 307.543 143.277 314.094 143.277C320.645 143.277 325.955 137.967 325.955 131.416C325.955 124.865 320.645 119.554 314.094 119.554Z" fill="#44E3A0"/>
<path d="M698.192 67.8832H632.115C637.582 80.7342 650.307 89.7361 665.153 89.7361C679.999 89.7361 692.725 80.7342 698.192 67.8832Z" fill="#4942E4"/>
<path d="M692.814 76.1501C706.833 62.1312 706.833 39.4019 692.814 25.3829C678.795 11.364 656.066 11.364 642.047 25.383C628.028 39.4019 628.028 62.1312 642.047 76.1501C656.066 90.1691 678.795 90.1691 692.814 76.1501Z" fill="#8696FE"/>
<path d="M658.492 64.0969C658.775 63.5471 659.168 63.0915 659.702 62.7301C660.236 62.3688 660.864 62.1331 661.618 62.0232C662.373 61.9289 663.205 62.0075 664.148 62.2588C664.933 62.4631 665.593 62.7616 666.08 63.17C666.583 63.5628 666.944 64.0027 667.18 64.474C667.416 64.9453 667.541 65.4166 667.557 65.8879C667.557 66.3592 667.526 66.7677 667.4 67.129C667.306 67.3961 667.148 67.7103 666.897 68.0716C666.646 68.4329 666.332 68.7786 665.97 69.0928C665.609 69.407 665.169 69.6583 664.651 69.8783C664.132 70.0982 663.551 70.2082 662.907 70.2082C661.524 70.2396 660.346 69.8626 659.388 69.1085C658.414 68.3387 657.958 67.2547 658.021 65.8565C658.052 65.2438 658.209 64.6625 658.476 64.1126L658.492 64.0969ZM676.025 32.2523C676.213 32.8022 676.182 33.462 675.915 34.2632C675.145 36.4627 674.391 38.6935 673.652 40.9558C672.898 43.2181 672.191 45.4489 671.5 47.6483C670.809 49.8478 670.181 51.9686 669.599 54.011C669.018 56.0533 668.515 57.9542 668.075 59.7138C667.934 60.3265 667.698 60.7192 667.4 60.8606C667.086 61.002 666.599 60.9863 665.923 60.8135C665.106 60.6721 664.352 60.4836 663.661 60.2636C662.97 60.0437 662.294 59.7766 661.65 59.4467C660.974 59.1011 660.534 58.7083 660.299 58.2841C660.079 57.86 660.047 57.2159 660.189 56.3675C660.425 54.6708 660.754 52.6599 661.179 50.3505C661.603 48.0411 662.074 45.6689 662.608 43.2338C663.142 40.7987 663.677 38.395 664.242 36.0071C664.808 33.6348 665.326 31.4982 665.829 29.613C666.064 28.7018 666.41 28.152 666.866 27.932C667.321 27.7278 668.013 27.7906 668.955 28.1048C669.835 28.3405 670.793 28.6704 671.846 29.1103C672.883 29.5502 673.794 30.0372 674.548 30.5713C675.333 31.1369 675.836 31.6868 676.025 32.2209V32.2523Z" fill="#FFFEFE"/>
<path d="M59.6831 427.836C92.6451 427.836 119.366 401.115 119.366 368.153C119.366 335.191 92.6451 308.47 59.6831 308.47C26.721 308.47 0 335.191 0 368.153C0 401.115 26.721 427.836 59.6831 427.836Z" fill="#8696FE"/>
<path d="M60.3585 334.973C61.0969 332.491 61.7881 330.417 62.4165 328.783C63.422 326.505 65.0558 326.159 67.3338 327.746C69.1405 328.971 70.4916 330.464 71.4185 332.271C72.3454 334.077 72.5182 336.214 71.9369 338.696C71.6698 339.749 71.3871 340.927 71.1043 342.184C70.8058 343.456 70.4759 344.697 70.1145 345.923C71.23 346.551 72.4396 347.431 73.775 348.546C75.4717 350.086 76.4929 351.563 76.8385 352.992C77.1841 354.422 77.3255 355.742 77.2784 356.967C77.2313 357.925 77.1056 359.009 76.917 360.219C76.7285 361.444 76.5086 362.654 76.2415 363.864C75.9744 365.089 75.6602 366.236 75.2832 367.32C74.9061 368.404 74.5448 369.347 74.1678 370.148C73.2723 371.53 72.0312 371.923 70.4287 371.342C69.3133 370.918 68.2921 370.431 67.3652 369.865C66.4383 369.315 65.6371 368.687 64.9773 367.996C64.3175 367.304 63.8305 366.519 63.5162 365.655C63.202 364.775 63.0921 363.785 63.202 362.686C63.4063 361.57 63.6419 360.266 63.8776 358.758C64.1132 357.25 64.1289 355.946 63.9247 354.83C63.9247 354.186 63.7362 353.778 63.3749 353.558C62.8407 353.354 62.1652 353.448 61.3482 353.872C60.5313 354.296 59.6987 354.893 58.8503 355.663C58.002 356.433 57.2165 357.36 56.5095 358.444C55.8025 359.528 55.2841 360.675 54.9542 361.853C54.64 363.047 54.5928 364.257 54.8285 365.466C55.0642 366.692 55.7397 367.791 56.8551 368.797C58.7089 370.336 60.7513 371.735 63.0135 373.007C65.2601 374.28 67.2867 375.584 69.0934 376.935C70.9 378.286 72.2354 379.747 73.1466 381.302C74.0421 382.858 74.1049 384.711 73.3037 386.816C72.8324 387.665 72.2197 388.592 71.4813 389.597C70.7429 390.603 69.8003 391.53 68.6692 392.378C67.5223 393.226 66.1713 393.933 64.5845 394.483C62.9978 395.033 61.1126 395.316 58.9446 395.316H57.9077C57.3264 395.316 57.0122 395.284 56.9494 395.237C56.4781 396.934 56.0225 398.693 55.5983 400.516C55.1741 402.338 54.8285 403.941 54.5614 405.323C54.3415 406.219 53.9959 406.737 53.4931 406.878C52.9904 407.004 52.2049 406.816 51.1523 406.281C49.2985 405.386 48.026 404.035 47.3347 402.228C46.6435 400.437 46.3607 398.568 46.455 396.667C46.5021 395.928 46.5649 395.253 46.6121 394.64C46.6592 394.027 46.8006 393.415 47.0048 392.771C45.5752 392.079 44.177 391.31 42.7945 390.461C41.412 389.613 40.0923 388.529 38.8198 387.209C37.1231 385.513 36.2747 384.319 36.2747 383.643C36.2276 382.857 36.5732 382.182 37.3116 381.664C37.94 381.286 38.6784 381.019 39.4953 380.862C40.3123 380.705 41.1292 380.658 41.9618 380.705C42.7788 380.752 43.5957 380.925 44.3812 381.177C45.1824 381.444 45.8894 381.789 46.5178 382.213C48.1517 383.109 49.7384 383.863 51.278 384.476C52.8176 385.088 54.2315 385.528 55.5198 385.78C56.8237 386.047 57.9234 386.157 58.8503 386.094C59.7772 386.047 60.4842 385.795 60.9555 385.371C61.5839 384.837 61.4739 384.224 60.5941 383.502C59.7144 382.795 58.4576 381.978 56.8237 381.082C55.1898 380.187 53.3675 379.181 51.388 378.066C49.4085 376.95 47.5861 375.756 45.9522 374.5C43.6743 372.756 41.9461 370.635 40.7522 368.153C39.5582 365.671 39.3382 362.827 40.0766 359.654C41.0821 356.794 42.6374 353.904 44.7583 350.966C46.8791 348.028 49.5185 345.64 52.6919 343.786C53.4303 343.362 54.2472 343.016 55.1584 342.749C56.0539 342.482 57.0436 342.325 58.0962 342.278C58.8346 339.89 59.573 337.455 60.3271 334.973H60.3585Z" fill="#FFFEFE"/>
<path d="M948.032 405.559C959.537 405.559 968.864 396.232 968.864 384.727C968.864 373.222 959.537 363.896 948.032 363.896C936.527 363.896 927.201 373.222 927.201 384.727C927.201 396.232 936.527 405.559 948.032 405.559Z" fill="#8696FE"/>
<path d="M948.033 373.887L951.206 380.313L958.323 381.349L953.17 386.361L954.395 393.431L948.033 390.1L941.686 393.431L942.896 386.361L937.758 381.349L944.859 380.313L948.033 373.887Z" fill="#FFFEFE"/>
</svg>
